  0
SECTION
  2
HEADER
  9
$ACADVER
  1
AC1018
  9
$ACADMAINTVER
 70
     0
  9
$DWGCODEPAGE
  3
ANSI_1252
  9
$INSBASE
 10
0.0
 20
0.0
 30
0.0
  9
$EXTMIN
 10
1.000000000000000E+20
 20
1.000000000000000E+20
 30
1.000000000000000E+20
  9
$EXTMAX
 10
-1.000000000000000E+20
 20
-1.000000000000000E+20
 30
-1.000000000000000E+20
  9
$LIMMIN
 10
0.0
 20
0.0
  9
$LIMMAX
 10
12.0
 20
9.0
  9
$ORTHOMODE
 70
     0
  9
$REGENMODE
 70
     1
  9
$FILLMODE
 70
     1
  9
$QTEXTMODE
 70
     0
  9
$MIRRTEXT
 70
     1
  9
$LTSCALE
 40
1.0
  9
$ATTMODE
 70
     1
  9
$TEXTSIZE
 40
0.2
  9
$TRACEWID
 40
0.05
  9
$TEXTSTYLE
  7
Standard
  9
$CLAYER
  8
0
  9
$CELTYPE
  6
ByLayer
  9
$CECOLOR
 62
   256
  9
$CELTSCALE
 40
1.0
  9
$DISPSILH
 70
     0
  9
$DIMSCALE
 40
1.0
  9
$DIMASZ
 40
0.18
  9
$DIMEXO
 40
0.0625
  9
$DIMDLI
 40
0.38
  9
$DIMRND
 40
0.0
  9
$DIMDLE
 40
0.0
  9
$DIMEXE
 40
0.18
  9
$DIMTP
 40
0.0
  9
$DIMTM
 40
0.0
  9
$DIMTXT
 40
0.18
  9
$DIMCEN
 40
0.09
  9
$DIMTSZ
 40
0.0
  9
$DIMTOL
 70
     0
  9
$DIMLIM
 70
     0
  9
$DIMTIH
 70
     1
  9
$DIMTOH
 70
     1
  9
$DIMSE1
 70
     0
  9
$DIMSE2
 70
     0
  9
$DIMTAD
 70
     0
  9
$DIMZIN
 70
     0
  9
$DIMBLK
  1

  9
$DIMASO
 70
     1
  9
$DIMSHO
 70
     1
  9
$DIMPOST
  1

  9
$DIMAPOST
  1

  9
$DIMALT
 70
     0
  9
$DIMALTD
 70
     2
  9
$DIMALTF
 40
25.4
  9
$DIMLFAC
 40
1.0
  9
$DIMTOFL
 70
     0
  9
$DIMTVP
 40
0.0
  9
$DIMTIX
 70
     0
  9
$DIMSOXD
 70
     0
  9
$DIMSAH
 70
     0
  9
$DIMBLK1
  1

  9
$DIMBLK2
  1

  9
$DIMSTYLE
  2
Standard
  9
$DIMCLRD
 70
     0
  9
$DIMCLRE
 70
     0
  9
$DIMCLRT
 70
     0
  9
$DIMTFAC
 40
1.0
  9
$DIMGAP
 40
0.09
  9
$DIMJUST
 70
     0
  9
$DIMSD1
 70
     0
  9
$DIMSD2
 70
     0
  9
$DIMTOLJ
 70
     1
  9
$DIMTZIN
 70
     0
  9
$DIMALTZ
 70
     0
  9
$DIMALTTZ
 70
     0
  9
$DIMUPT
 70
     0
  9
$DIMDEC
 70
     4
  9
$DIMTDEC
 70
     4
  9
$DIMALTU
 70
     2
  9
$DIMALTTD
 70
     2
  9
$DIMTXSTY
  7
Standard
  9
$DIMAUNIT
 70
     0
  9
$DIMADEC
 70
     0
  9
$DIMALTRND
 40
0.0
  9
$DIMAZIN
 70
     0
  9
$DIMDSEP
 70
    46
  9
$DIMATFIT
 70
     3
  9
$DIMFRAC
 70
     0
  9
$DIMLDRBLK
  1

  9
$DIMLUNIT
 70
     2
  9
$DIMLWD
 70
    -2
  9
$DIMLWE
 70
    -2
  9
$DIMTMOVE
 70
     0
  9
$LUNITS
 70
     2
  9
$LUPREC
 70
     4
  9
$SKETCHINC
 40
0.1
  9
$FILLETRAD
 40
0.5
  9
$AUNITS
 70
     0
  9
$AUPREC
 70
     0
  9
$MENU
  1
.
  9
$ELEVATION
 40
0.0
  9
$PELEVATION
 40
0.0
  9
$THICKNESS
 40
0.0
  9
$LIMCHECK
 70
     0
  9
$CHAMFERA
 40
0.5
  9
$CHAMFERB
 40
0.5
  9
$CHAMFERC
 40
1.0
  9
$CHAMFERD
 40
0.0
  9
$SKPOLY
 70
     0
  9
$TDCREATE
 40
2458280.849390046
  9
$TDUCREATE
 40
2458280.55772338
  9
$TDUPDATE
 40
2458280.849390058
  9
$TDUUPDATE
 40
2458280.557723391
  9
$TDINDWG
 40
0.0000000116
  9
$TDUSRTIMER
 40
0.0000000116
  9
$USRTIMER
 70
     1
  9
$ANGBASE
 50
0.0
  9
$ANGDIR
 70
     0
  9
$PDMODE
 70
     0
  9
$PDSIZE
 40
0.0
  9
$PLINEWID
 40
0.0
  9
$SPLFRAME
 70
     0
  9
$SPLINETYPE
 70
     6
  9
$SPLINESEGS
 70
     8
  9
$HANDSEED
  5
45
  9
$SURFTAB1
 70
     6
  9
$SURFTAB2
 70
     6
  9
$SURFTYPE
 70
     6
  9
$SURFU
 70
     6
  9
$SURFV
 70
     6
  9
$UCSBASE
  2

  9
$UCSNAME
  2

  9
$UCSORG
 10
0.0
 20
0.0
 30
0.0
  9
$UCSXDIR
 10
1.0
 20
0.0
 30
0.0
  9
$UCSYDIR
 10
0.0
 20
1.0
 30
0.0
  9
$UCSORTHOREF
  2

  9
$UCSORTHOVIEW
 70
     0
  9
$UCSORGTOP
 10
0.0
 20
0.0
 30
0.0
  9
$UCSORGBOTTOM
 10
0.0
 20
0.0
 30
0.0
  9
$UCSORGLEFT
 10
0.0
 20
0.0
 30
0.0
  9
$UCSORGRIGHT
 10
0.0
 20
0.0
 30
0.0
  9
$UCSORGFRONT
 10
0.0
 20
0.0
 30
0.0
  9
$UCSORGBACK
 10
0.0
 20
0.0
 30
0.0
  9
$PUCSBASE
  2

  9
$PUCSNAME
  2

  9
$PUCSORG
 10
0.0
 20
0.0
 30
0.0
  9
$PUCSXDIR
 10
1.0
 20
0.0
 30
0.0
  9
$PUCSYDIR
 10
0.0
 20
1.0
 30
0.0
  9
$PUCSORTHOREF
  2

  9
$PUCSORTHOVIEW
 70
     0
  9
$PUCSORGTOP
 10
0.0
 20
0.0
 30
0.0
  9
$PUCSORGBOTTOM
 10
0.0
 20
0.0
 30
0.0
  9
$PUCSORGLEFT
 10
0.0
 20
0.0
 30
0.0
  9
$PUCSORGRIGHT
 10
0.0
 20
0.0
 30
0.0
  9
$PUCSORGFRONT
 10
0.0
 20
0.0
 30
0.0
  9
$PUCSORGBACK
 10
0.0
 20
0.0
 30
0.0
  9
$USERI1
 70
     0
  9
$USERI2
 70
     0
  9
$USERI3
 70
     0
  9
$USERI4
 70
     0
  9
$USERI5
 70
     0
  9
$USERR1
 40
0.0
  9
$USERR2
 40
0.0
  9
$USERR3
 40
0.0
  9
$USERR4
 40
0.0
  9
$USERR5
 40
0.0
  9
$WORLDVIEW
 70
     1
  9
$SHADEDGE
 70
     3
  9
$SHADEDIF
 70
    70
  9
$TILEMODE
 70
     1
  9
$MAXACTVP
 70
    64
  9
$PINSBASE
 10
0.0
 20
0.0
 30
0.0
  9
$PLIMCHECK
 70
     0
  9
$PEXTMIN
 10
1.000000000000000E+20
 20
1.000000000000000E+20
 30
1.000000000000000E+20
  9
$PEXTMAX
 10
-1.000000000000000E+20
 20
-1.000000000000000E+20
 30
-1.000000000000000E+20
  9
$PLIMMIN
 10
0.0
 20
0.0
  9
$PLIMMAX
 10
12.0
 20
9.0
  9
$UNITMODE
 70
     0
  9
$VISRETAIN
 70
     1
  9
$PLINEGEN
 70
     0
  9
$PSLTSCALE
 70
     1
  9
$TREEDEPTH
 70
  3020
  9
$CMLSTYLE
  2
Standard
  9
$CMLJUST
 70
     0
  9
$CMLSCALE
 40
1.0
  9
$PROXYGRAPHICS
 70
     1
  9
$MEASUREMENT
 70
     0
  9
$CELWEIGHT
370
    -1
  9
$ENDCAPS
280
     0
  9
$JOINSTYLE
280
     0
  9
$LWDISPLAY
290
     1
  9
$INSUNITS
 70
     1
  9
$HYPERLINKBASE
  1

  9
$STYLESHEET
  1

  9
$XEDIT
290
     1
  9
$CEPSNTYPE
380
     0
  9
$PSTYLEMODE
290
     1
  9
$FINGERPRINTGUID
  2
{A02DBE87-3520-4F05-9FD5-E07253C74E9D}
  9
$VERSIONGUID
  2
{FAEB1C32-E019-11D5-929B-00C0DF256EC4}
  9
$EXTNAMES
290
     1
  9
$PSVPSCALE
 40
0.0
  9
$OLESTARTUP
290
     0
  9
$SORTENTS
280
   127
  9
$INDEXCTL
280
     0
  9
$HIDETEXT
280
     1
  9
$XCLIPFRAME
290
     0
  9
$HALOGAP
280
     0
  9
$OBSCOLOR
 70
   257
  9
$OBSLTYPE
280
     0
  9
$INTERSECTIONDISPLAY
280
     0
  9
$INTERSECTIONCOLOR
 70
   257
  9
$DIMASSOC
280
     2
  9
$PROJECTNAME
  1

  0
ENDSEC
  0
SECTION
  2
CLASSES
  0
CLASS
  1
ACDBDICTIONARYWDFLT
  2
AcDbDictionaryWithDefault
  3
ObjectDBX Classes
 90
        0
 91
        3
280
     0
281
     0
  0
CLASS
  1
VISUALSTYLE
  2
AcDbVisualStyle
  3
ObjectDBX Classes
 90
     4095
 91
        3
280
     0
281
     0
  0
ENDSEC
  0
SECTION
  2
TABLES
  0
TABLE
  2
VPORT
  5
8
330
0
100
AcDbSymbolTable
 70
     1
  0
VPORT
  5
29
330
8
100
AcDbSymbolTableRecord
100
AcDbViewportTableRecord
  2
*Active
 70
     0
 10
0.0
 20
0.0
 11
1.0
 21
1.0
 12
0.0
 22
0.0
 13
0.0
 23
0.0
 14
0.5
 24
0.5
 15
0.5
 25
0.5
 16
0.0
 26
0.0
 36
1.0
 17
49.99918754175368
 27
-49.99918754175368
 37
0.0
 40
99.99837508350736
 41
1.0
 42
50.0
 43
0.0
 44
0.0
 50
0.0
 51
0.0
 71
     0
 72
   100
 73
     1
 74
     3
 75
     0
 76
     0
 77
     0
 78
     0
281
     0
 65
     1
110
0.0
120
0.0
130
0.0
111
1.0
121
0.0
131
0.0
112
0.0
122
1.0
132
0.0
 79
     0
146
0.0
  0
ENDTAB
  0
TABLE
  2
LTYPE
  5
5
330
0
100
AcDbSymbolTable
 70
     1
  0
LTYPE
  5
14
330
5
100
AcDbSymbolTableRecord
100
AcDbLinetypeTableRecord
  2
ByBlock
 70
     0
  3

 72
    65
 73
     0
 40
0.0
  0
LTYPE
  5
15
330
5
100
AcDbSymbolTableRecord
100
AcDbLinetypeTableRecord
  2
ByLayer
 70
     0
  3

 72
    65
 73
     0
 40
0.0
  0
LTYPE
  5
16
330
5
100
AcDbSymbolTableRecord
100
AcDbLinetypeTableRecord
  2
Continuous
 70
     0
  3
Solid line
 72
    65
 73
     0
 40
0.0
  0
ENDTAB
  0
TABLE
  2
LAYER
  5
2
330
0
100
AcDbSymbolTable
 70
     2
  0
LAYER
  5
10
330
2
100
AcDbSymbolTableRecord
100
AcDbLayerTableRecord
  2
0
 70
     0
 62
     7
  6
Continuous
370
    -3
390
F
  0
LAYER
  5
3B
330
2
100
AcDbSymbolTableRecord
100
AcDbLayerTableRecord
  2
Layer 1
 70
     0
 62
     7
  6
Continuous
370
    -3
390
F
  0
ENDTAB
  0
TABLE
  2
STYLE
  5
3
330
0
100
AcDbSymbolTable
 70
     1
  0
STYLE
  5
11
330
3
100
AcDbSymbolTableRecord
100
AcDbTextStyleTableRecord
  2
Standard
 70
     0
 40
0.0
 41
1.0
 50
0.0
 71
     0
 42
0.2
  3
txt
  4

  0
ENDTAB
  0
TABLE
  2
VIEW
  5
6
330
0
100
AcDbSymbolTable
 70
     0
  0
ENDTAB
  0
TABLE
  2
UCS
  5
7
330
0
100
AcDbSymbolTable
 70
     0
  0
ENDTAB
  0
TABLE
  2
APPID
  5
9
330
0
100
AcDbSymbolTable
 70
     1
  0
APPID
  5
12
330
9
100
AcDbSymbolTableRecord
100
AcDbRegAppTableRecord
  2
ACAD
 70
     0
  0
ENDTAB
  0
TABLE
  2
DIMSTYLE
  5
A
330
0
100
AcDbSymbolTable
 70
     1
100
AcDbDimStyleTable
  0
DIMSTYLE
105
27
330
A
100
AcDbSymbolTableRecord
100
AcDbDimStyleTableRecord
  2
Standard
 70
     0
340
11
  0
ENDTAB
  0
TABLE
  2
BLOCK_RECORD
  5
1
330
0
100
AcDbSymbolTable
 70
     1
  0
BLOCK_RECORD
  5
1F
330
1
100
AcDbSymbolTableRecord
100
AcDbBlockTableRecord
  2
*Model_Space
340
22
  0
BLOCK_RECORD
  5
1B
330
1
100
AcDbSymbolTableRecord
100
AcDbBlockTableRecord
  2
*Paper_Space
340
1E
  0
BLOCK_RECORD
  5
23
330
1
100
AcDbSymbolTableRecord
100
AcDbBlockTableRecord
  2
*Paper_Space0
340
26
  0
ENDTAB
  0
ENDSEC
  0
SECTION
  2
BLOCKS
  0
BLOCK
  5
20
330
1F
100
AcDbEntity
  8
0
100
AcDbBlockBegin
  2
*Model_Space
 70
     0
 71
     0
 10
0.0
 20
0.0
 30
0.0
  3
*Model_Space
  1

  0
ENDBLK
  5
21
330
1F
100
AcDbEntity
  8
0
100
AcDbBlockEnd
  0
BLOCK
  5
1C
330
1B
100
AcDbEntity
 67
     1
  8
0
100
AcDbBlockBegin
  2
*Paper_Space
 70
     0
 71
     0
 10
0.0
 20
0.0
 30
0.0
  3
*Paper_Space
  1

  0
ENDBLK
  5
1D
330
1B
100
AcDbEntity
 67
     1
  8
0
100
AcDbBlockEnd
  0
BLOCK
  5
24
330
23
100
AcDbEntity
  8
0
100
AcDbBlockBegin
  2
*Paper_Space0
 70
     0
 71
     0
 10
0.0
 20
0.0
 30
0.0
  3
*Paper_Space0
  1

  0
ENDBLK
  5
25
330
23
100
AcDbEntity
  8
0
100
AcDbBlockEnd
  0
ENDSEC
  0
SECTION
  2
ENTITIES
  0
SPLINE
  5
3C
330
1F
100
AcDbEntity
  8
Layer 1
370
     0
100
AcDbSpline
210
0.0
220
0.0
230
1.0
 70
    11
 71
     3
 72
   113
 73
   109
 74
     0
 42
0.0000000001
 43
0.0000000001
 40
0.0
 40
0.0
 40
0.0
 40
0.0
 40
1.0
 40
1.0
 40
1.0
 40
2.0
 40
2.0
 40
2.0
 40
3.0
 40
3.0
 40
3.0
 40
4.0
 40
4.0
 40
4.0
 40
5.0
 40
5.0
 40
5.0
 40
6.0
 40
6.0
 40
6.0
 40
7.0
 40
7.0
 40
7.0
 40
8.0
 40
8.0
 40
8.0
 40
9.0
 40
9.0
 40
9.0
 40
10.0
 40
10.0
 40
10.0
 40
11.0
 40
11.0
 40
11.0
 40
12.0
 40
12.0
 40
12.0
 40
13.0
 40
13.0
 40
13.0
 40
14.0
 40
14.0
 40
14.0
 40
15.0
 40
15.0
 40
15.0
 40
16.0
 40
16.0
 40
16.0
 40
17.0
 40
17.0
 40
17.0
 40
18.0
 40
18.0
 40
18.0
 40
19.0
 40
19.0
 40
19.0
 40
20.0
 40
20.0
 40
20.0
 40
21.0
 40
21.0
 40
21.0
 40
22.0
 40
22.0
 40
22.0
 40
23.0
 40
23.0
 40
23.0
 40
24.0
 40
24.0
 40
24.0
 40
25.0
 40
25.0
 40
25.0
 40
26.0
 40
26.0
 40
26.0
 40
27.0
 40
27.0
 40
27.0
 40
28.0
 40
28.0
 40
28.0
 40
29.0
 40
29.0
 40
29.0
 40
30.0
 40
30.0
 40
30.0
 40
31.0
 40
31.0
 40
31.0
 40
32.0
 40
32.0
 40
32.0
 40
33.0
 40
33.0
 40
33.0
 40
34.0
 40
34.0
 40
34.0
 40
35.0
 40
35.0
 40
35.0
 40
36.0
 40
36.0
 40
36.0
 40
36.0
 10
54.82318249497476
 20
-60.60508624786956
 30
0.0
 10
56.55675454315248
 20
-59.11542696004754
 30
0.0
 10
57.46212563667613
 20
-57.94133841867439
 30
0.0
 10
57.45730250299679
 20
-55.71925183068824
 30
0.0
 10
57.45454642660859
 20
-54.10040146216934
 30
0.0
 10
56.86681313682497
 20
-52.72132973942384
 30
0.0
 10
54.63232420509192
 20
-51.01359590738549
 30
0.0
 10
59.363129325437
 20
-47.06999510542001
 30
0.0
 10
57.16825899178433
 20
-42.04670137837721
 30
0.0
 10
52.35408256069621
 20
-39.14489745115128
 30
0.0
 10
52.35408256069621
 20
-39.14489745115128
 30
0.0
 10
52.35408256069621
 20
-35.47277017342348
 30
0.0
 10
52.35408256069621
 20
-35.47277017342348
 30
0.0
 10
52.35408256069621
 20
-35.47277017342348
 30
0.0
 10
51.63302407563341
 20
-35.47277017342348
 30
0.0
 10
51.63302407563341
 20
-35.47277017342348
 30
0.0
 10
51.63302407563341
 20
-35.47277017342348
 30
0.0
 10
51.63302407563341
 20
-38.73665363614917
 30
0.0
 10
51.63302407563341
 20
-38.73665363614917
 30
0.0
 10
51.40461424496135
 20
-38.61538627506837
 30
0.0
 10
51.17275931880403
 20
-38.49653048082726
 30
0.0
 10
50.93470322077327
 20
-38.38490938710516
 30
0.0
 10
50.40346949694774
 20
-38.13513996442455
 30
0.0
 10
49.91271564507391
 20
-37.87365721709408
 30
0.0
 10
49.45865206011798
 20
-37.60321722150198
 30
0.0
 10
49.45865206011798
 20
-37.60321722150198
 30
0.0
 10
49.45865206011798
 20
-35.47277017342348
 30
0.0
 10
49.45865206011798
 20
-35.47277017342348
 30
0.0
 10
49.45865206011798
 20
-35.47277017342348
 30
0.0
 10
48.73759357505519
 20
-35.47277017342348
 30
0.0
 10
48.73759357505519
 20
-35.47277017342348
 30
0.0
 10
48.73759357505519
 20
-35.47277017342348
 30
0.0
 10
48.73759357505519
 20
-37.14467501241522
 30
0.0
 10
48.73759357505519
 20
-37.14467501241522
 30
0.0
 10
46.95165607550167
 20
-35.92614473928236
 30
0.0
 10
45.94896103451971
 20
-34.5711886849336
 30
0.0
 10
45.94896103451971
 20
-33.3275092147584
 30
0.0
 10
45.94896103451971
 20
-31.64079046518008
 30
0.0
 10
47.13838025080221
 20
-30.21348740564108
 30
0.0
 10
48.90347492266996
 20
-30.21348740564108
 30
0.0
 10
52.77576224809079
 20
-30.21348740564108
 30
0.0
 10
52.53529458322035
 20
-34.70623642795539
 30
0.0
 10
54.01220701774695
 20
-34.70623642795539
 30
0.0
 10
55.48911945227356
 20
-34.70623642795539
 30
0.0
 10
56.1736599251927
 20
-33.78329534745696
 30
0.0
 10
56.1736599251927
 20
-32.49069552139122
 30
0.0
 10
56.1736599251927
 20
-30.95211587767864
 30
0.0
 10
53.51955836335623
 20
-28.36657171599864
 30
0.0
 10
50.1960747487357
 20
-28.36657171599864
 30
0.0
 10
46.87224662456666
 20
-28.36657171599864
 30
0.0
 10
43.85658229155322
 20
-29.78457301772747
 30
0.0
 10
43.39804008246647
 20
-33.50252006540909
 30
0.0
 10
43.07799071188676
 20
-36.10081108038452
 30
0.0
 10
43.92651772990379
 20
-38.19611815451347
 30
0.0
 10
46.45866291156242
 20
-40.07162813668349
 30
0.0
 10
44.60055066159292
 20
-41.64465873524856
 30
0.0
 10
43.63092853726936
 20
-42.82322590075253
 30
0.0
 10
43.63885225688543
 20
-45.12661674219057
 30
0.0
 10
43.64384764533904
 20
-46.56701116457353
 30
0.0
 10
44.1092800453963
 20
-47.81654729707364
 30
0.0
 10
45.78755831103575
 20
-49.27451170643138
 30
0.0
 10
41.1439141064675
 20
-53.32801105437633
 30
0.0
 10
43.6495320528897
 20
-58.46051430830154
 30
0.0
 10
48.73759357505519
 20
-61.27274575291099
 30
0.0
 10
48.73759357505519
 20
-61.27274575291099
 30
0.0
 10
48.73759357505519
 20
-65.36483017029074
 30
0.0
 10
48.73759357505519
 20
-65.36483017029074
 30
0.0
 10
48.73759357505519
 20
-65.36483017029074
 30
0.0
 10
49.45865206011798
 20
-65.36483017029074
 30
0.0
 10
49.45865206011798
 20
-65.36483017029074
 30
0.0
 10
49.45865206011798
 20
-65.36483017029074
 30
0.0
 10
49.45865206011798
 20
-61.64619410351207
 30
0.0
 10
49.45865206011798
 20
-61.64619410351207
 30
0.0
 10
49.5265204411774
 20
-61.67961152971899
 30
0.0
 10
49.59283852926846
 20
-61.71440699412001
 30
0.0
 10
49.66208494852198
 20
-61.74713540122988
 30
0.0
 10
50.39313421049199
 20
-62.08992240201224
 30
0.0
 10
51.04976940998061
 20
-62.45648056164283
 30
0.0
 10
51.63302407563341
 20
-62.83681910321441
 30
0.0
 10
51.63302407563341
 20
-62.83681910321441
 30
0.0
 10
51.63302407563341
 20
-65.36483017029074
 30
0.0
 10
51.63302407563341
 20
-65.36483017029074
 30
0.0
 10
51.63302407563341
 20
-65.36483017029074
 30
0.0
 10
52.35408256069621
 20
-65.36483017029074
 30
0.0
 10
52.35408256069621
 20
-65.36483017029074
 30
0.0
 10
52.35408256069621
 20
-65.36483017029074
 30
0.0
 10
52.35408256069621
 20
-63.34531519683728
 30
0.0
 10
52.35408256069621
 20
-63.34531519683728
 30
0.0
 10
53.82823891883461
 20
-64.46738279638316
 30
0.0
 10
54.64748262522702
 20
-65.6814344453852
 30
0.0
 10
54.64748262522702
 20
-66.80453557357664
 30
0.0
 10
54.64748262522702
 20
-68.49228785180054
 30
0.0
 10
53.45823566371877
 20
-69.9189018922425
 30
0.0
 10
51.69365775617381
 20
-69.9189018922425
 30
0.0
 10
47.82119817597873
 20
-69.9189018922425
 30
0.0
 10
48.06183809562343
 20
-65.42511934128261
 30
0.0
 10
46.5845811515483
 20
-65.42511934128261
 30
0.0
 10
45.10697969792464
 20
-65.42511934128261
 30
0.0
 10
44.42330049887681
 20
-66.34806042178104
 30
0.0
 10
44.42330049887681
 20
-67.64066024784678
 30
0.0
 10
44.42330049887681
 20
-69.17889538201084
 30
0.0
 10
47.07671304161624
 20
-71.76443954369084
 30
0.0
 10
50.40071342055955
 20
-71.76443954369084
 30
0.0
 10
53.72419703518006
 20
-71.76443954369084
 30
0.0
 10
56.73968911341925
 20
-70.34747177060758
 30
0.0
 10
57.198231322506
 20
-66.62918021337742
 30
0.0
 10
57.48761934326699
 20
-64.2803141115341
 30
0.0
 10
56.82340493371082
 20
-62.34175888198401
 30
0.0
 10
54.82318249497476
 20
-60.60508624786956
 30
0.0
  0
SPLINE
  5
3D
330
1F
100
AcDbEntity
  8
Layer 1
370
     0
100
AcDbSpline
210
0.0
220
0.0
230
1.0
 70
    11
 71
     3
 72
    14
 73
    10
 74
     0
 42
0.0000000001
 43
0.0000000001
 40
0.0
 40
0.0
 40
0.0
 40
0.0
 40
1.0
 40
1.0
 40
1.0
 40
2.0
 40
2.0
 40
2.0
 40
3.0
 40
3.0
 40
3.0
 40
3.0
 10
48.73759357505519
 20
-56.83339571061804
 30
0.0
 10
45.78790282058428
 20
-54.71466198718939
 30
0.0
 10
44.17663166213293
 20
-52.04264592882962
 30
0.0
 10
46.60404594103996
 20
-49.92804631998327
 30
0.0
 10
47.19763589314851
 20
-50.37005207074083
 30
0.0
 10
47.90370821285046
 20
-50.83617348989512
 30
0.0
 10
48.73759357505519
 20
-51.33261174931963
 30
0.0
 10
48.73759357505519
 20
-51.33261174931963
 30
0.0
 10
48.73759357505519
 20
-56.83339571061804
 30
0.0
 10
48.73759357505519
 20
-56.83339571061804
 30
0.0
  0
SPLINE
  5
3E
330
1F
100
AcDbEntity
  8
Layer 1
370
     0
100
AcDbSpline
210
0.0
220
0.0
230
1.0
 70
    11
 71
     3
 72
    14
 73
    10
 74
     0
 42
0.0000000001
 43
0.0000000001
 40
0.0
 40
0.0
 40
0.0
 40
0.0
 40
1.0
 40
1.0
 40
1.0
 40
2.0
 40
2.0
 40
2.0
 40
3.0
 40
3.0
 40
3.0
 40
3.0
 10
48.73759357505519
 20
-47.33113334320194
 30
0.0
 10
45.35726588492805
 20
-44.91336533165361
 30
0.0
 10
45.04169513847916
 20
-42.59102646504669
 30
0.0
 10
47.29340954763845
 20
-40.64351398723495
 30
0.0
 10
47.73334824110486
 20
-40.92325574063725
 30
0.0
 10
48.21445582562
 20
-41.19782985081166
 30
0.0
 10
48.73759357505519
 20
-41.46964788459787
 30
0.0
 10
48.73759357505519
 20
-41.46964788459787
 30
0.0
 10
48.73759357505519
 20
-47.33113334320194
 30
0.0
 10
48.73759357505519
 20
-47.33113334320194
 30
0.0
  0
SPLINE
  5
3F
330
1F
100
AcDbEntity
  8
Layer 1
370
     0
100
AcDbSpline
210
0.0
220
0.0
230
1.0
 70
    11
 71
     3
 72
    23
 73
    19
 74
     0
 42
0.0000000001
 43
0.0000000001
 40
0.0
 40
0.0
 40
0.0
 40
0.0
 40
1.0
 40
1.0
 40
1.0
 40
2.0
 40
2.0
 40
2.0
 40
3.0
 40
3.0
 40
3.0
 40
4.0
 40
4.0
 40
4.0
 40
5.0
 40
5.0
 40
5.0
 40
6.0
 40
6.0
 40
6.0
 40
6.0
 10
51.63302407563341
 20
-58.54491914769016
 30
0.0
 10
51.56997882825334
 20
-58.51219074058029
 30
0.0
 10
51.51175671455262
 20
-58.47980684301894
 30
0.0
 10
51.44698891942992
 20
-58.44776745500612
 30
0.0
 10
50.75383570779766
 20
-58.10463594467523
 30
0.0
 10
50.08428140023935
 20
-57.72670896994332
 30
0.0
 10
49.45865206011798
 20
-57.32328828862057
 30
0.0
 10
49.45865206011798
 20
-57.32328828862057
 30
0.0
 10
49.45865206011798
 20
-51.75222437942305
 30
0.0
 10
49.45865206011798
 20
-51.75222437942305
 30
0.0
 10
49.7271972531932
 20
-51.90553112851668
 30
0.0
 10
50.00538871362713
 20
-52.06056042535292
 30
0.0
 10
50.2980495750991
 20
-52.21972383677146
 30
0.0
 10
50.78001843348555
 20
-52.48155109365045
 30
0.0
 10
51.22374673198573
 20
-52.74303384098091
 30
0.0
 10
51.63302407563341
 20
-53.00417207876285
 30
0.0
 10
51.63302407563341
 20
-53.00417207876285
 30
0.0
 10
51.63302407563341
 20
-58.54491914769016
 30
0.0
 10
51.63302407563341
 20
-58.54491914769016
 30
0.0
  0
SPLINE
  5
40
330
1F
100
AcDbEntity
  8
Layer 1
370
     0
100
AcDbSpline
210
0.0
220
0.0
230
1.0
 70
    11
 71
     3
 72
    20
 73
    16
 74
     0
 42
0.0000000001
 43
0.0000000001
 40
0.0
 40
0.0
 40
0.0
 40
0.0
 40
1.0
 40
1.0
 40
1.0
 40
2.0
 40
2.0
 40
2.0
 40
3.0
 40
3.0
 40
3.0
 40
4.0
 40
4.0
 40
4.0
 40
5.0
 40
5.0
 40
5.0
 40
5.0
 10
51.63302407563341
 20
-49.07538518738394
 30
0.0
 10
51.36912976146328
 20
-48.92552353377557
 30
0.0
 10
51.09627819903149
 20
-48.77256129423047
 30
0.0
 10
50.80930174511018
 20
-48.61615395920013
 30
0.0
 10
50.32164847917306
 20
-48.34950356864179
 30
0.0
 10
49.87240802789648
 20
-48.08388670672903
 30
0.0
 10
49.45865206011798
 20
-47.81895886391332
 30
0.0
 10
49.45865206011798
 20
-47.81895886391332
 30
0.0
 10
49.45865206011798
 20
-41.8410291779078
 30
0.0
 10
49.45865206011798
 20
-41.8410291779078
 30
0.0
 10
50.22673609855443
 20
-42.23721515871153
 30
0.0
 10
50.96123045600969
 20
-42.67336424714416
 30
0.0
 10
51.63302407563341
 20
-43.13948566629846
 30
0.0
 10
51.63302407563341
 20
-43.13948566629846
 30
0.0
 10
51.63302407563341
 20
-49.07538518738394
 30
0.0
 10
51.63302407563341
 20
-49.07538518738394
 30
0.0
  0
SPLINE
  5
41
330
1F
100
AcDbEntity
  8
Layer 1
370
     0
100
AcDbSpline
210
0.0
220
0.0
230
1.0
 70
    11
 71
     3
 72
    14
 73
    10
 74
     0
 42
0.0000000001
 43
0.0000000001
 40
0.0
 40
0.0
 40
0.0
 40
0.0
 40
1.0
 40
1.0
 40
1.0
 40
2.0
 40
2.0
 40
2.0
 40
3.0
 40
3.0
 40
3.0
 40
3.0
 10
52.35408256069621
 20
-43.66968586147841
 30
0.0
 10
55.06399466939373
 20
-45.78773056581002
 30
0.0
 10
56.36589625326964
 20
-48.36948512245624
 30
0.0
 10
53.76760523829421
 20
-50.39210068184642
 30
0.0
 10
53.34385849360848
 20
-50.10512422792511
 30
0.0
 10
52.87394746942041
 20
-49.80643444935395
 30
0.0
 10
52.35408256069621
 20
-49.49672036522999
 30
0.0
 10
52.35408256069621
 20
-49.49672036522999
 30
0.0
 10
52.35408256069621
 20
-43.66968586147841
 30
0.0
 10
52.35408256069621
 20
-43.66968586147841
 30
0.0
  0
SPLINE
  5
42
330
1F
100
AcDbEntity
  8
Layer 1
370
     0
100
AcDbSpline
210
0.0
220
0.0
230
1.0
 70
    11
 71
     3
 72
    14
 73
    10
 74
     0
 42
0.0000000001
 43
0.0000000001
 40
0.0
 40
0.0
 40
0.0
 40
0.0
 40
1.0
 40
1.0
 40
1.0
 40
2.0
 40
2.0
 40
2.0
 40
3.0
 40
3.0
 40
3.0
 40
3.0
 10
54.0432128771142
 20
-59.99082572284952
 30
0.0
 10
53.54367403175297
 20
-59.62805716825271
 30
0.0
 10
52.98591307269103
 20
-59.27252331417493
 30
0.0
 10
52.35408256069621
 20
-58.92319063197059
 30
0.0
 10
52.35408256069621
 20
-58.92319063197059
 30
0.0
 10
52.35408256069621
 20
-53.4888970135375
 30
0.0
 10
52.35408256069621
 20
-53.4888970135375
 30
0.0
 10
55.64242620136717
 20
-55.82604979073099
 30
0.0
 10
56.05618216914568
 20
-58.07776419989028
 30
0.0
 10
54.0432128771142
 20
-59.99082572284952
 30
0.0
  0
HATCH
  5
43
330
1F
100
AcDbEntity
  8
Layer 1
 62
   250
420
  2301728
100
AcDbHatch
 10
0.0
 20
0.0
 30
0.0
210
0.0
220
0.0
230
1.0
  2
SOLID
 70
     1
 71
     0
 91
        7
 92
        1
 93
        1
 72
     4
 94
        3
 73
     0
 74
     1
 95
      113
 96
      109
 40
0.0
 40
0.0
 40
0.0
 40
0.0
 40
1.0
 40
1.0
 40
1.0
 40
2.0
 40
2.0
 40
2.0
 40
3.0
 40
3.0
 40
3.0
 40
4.0
 40
4.0
 40
4.0
 40
5.0
 40
5.0
 40
5.0
 40
6.0
 40
6.0
 40
6.0
 40
7.0
 40
7.0
 40
7.0
 40
8.0
 40
8.0
 40
8.0
 40
9.0
 40
9.0
 40
9.0
 40
10.0
 40
10.0
 40
10.0
 40
11.0
 40
11.0
 40
11.0
 40
12.0
 40
12.0
 40
12.0
 40
13.0
 40
13.0
 40
13.0
 40
14.0
 40
14.0
 40
14.0
 40
15.0
 40
15.0
 40
15.0
 40
16.0
 40
16.0
 40
16.0
 40
17.0
 40
17.0
 40
17.0
 40
18.0
 40
18.0
 40
18.0
 40
19.0
 40
19.0
 40
19.0
 40
20.0
 40
20.0
 40
20.0
 40
21.0
 40
21.0
 40
21.0
 40
22.0
 40
22.0
 40
22.0
 40
23.0
 40
23.0
 40
23.0
 40
24.0
 40
24.0
 40
24.0
 40
25.0
 40
25.0
 40
25.0
 40
26.0
 40
26.0
 40
26.0
 40
27.0
 40
27.0
 40
27.0
 40
28.0
 40
28.0
 40
28.0
 40
29.0
 40
29.0
 40
29.0
 40
30.0
 40
30.0
 40
30.0
 40
31.0
 40
31.0
 40
31.0
 40
32.0
 40
32.0
 40
32.0
 40
33.0
 40
33.0
 40
33.0
 40
34.0
 40
34.0
 40
34.0
 40
35.0
 40
35.0
 40
35.0
 40
36.0
 40
36.0
 40
36.0
 40
36.0
 10
54.82318249497476
 20
-60.60508624786956
 10
56.55675454315248
 20
-59.11542696004754
 10
57.46212563667613
 20
-57.94133841867439
 10
57.45730250299679
 20
-55.71925183068824
 10
57.45454642660859
 20
-54.10040146216934
 10
56.86681313682497
 20
-52.72132973942384
 10
54.63232420509192
 20
-51.01359590738549
 10
59.363129325437
 20
-47.06999510542001
 10
57.16825899178433
 20
-42.04670137837721
 10
52.35408256069621
 20
-39.14489745115128
 10
52.35408256069621
 20
-39.14489745115128
 10
52.35408256069621
 20
-35.47277017342348
 10
52.35408256069621
 20
-35.47277017342348
 10
52.35408256069621
 20
-35.47277017342348
 10
51.63302407563341
 20
-35.47277017342348
 10
51.63302407563341
 20
-35.47277017342348
 10
51.63302407563341
 20
-35.47277017342348
 10
51.63302407563341
 20
-38.73665363614917
 10
51.63302407563341
 20
-38.73665363614917
 10
51.40461424496135
 20
-38.61538627506837
 10
51.17275931880403
 20
-38.49653048082726
 10
50.93470322077327
 20
-38.38490938710516
 10
50.40346949694774
 20
-38.13513996442455
 10
49.91271564507391
 20
-37.87365721709408
 10
49.45865206011798
 20
-37.60321722150198
 10
49.45865206011798
 20
-37.60321722150198
 10
49.45865206011798
 20
-35.47277017342348
 10
49.45865206011798
 20
-35.47277017342348
 10
49.45865206011798
 20
-35.47277017342348
 10
48.73759357505519
 20
-35.47277017342348
 10
48.73759357505519
 20
-35.47277017342348
 10
48.73759357505519
 20
-35.47277017342348
 10
48.73759357505519
 20
-37.14467501241522
 10
48.73759357505519
 20
-37.14467501241522
 10
46.95165607550167
 20
-35.92614473928236
 10
45.94896103451971
 20
-34.5711886849336
 10
45.94896103451971
 20
-33.3275092147584
 10
45.94896103451971
 20
-31.64079046518008
 10
47.13838025080221
 20
-30.21348740564108
 10
48.90347492266996
 20
-30.21348740564108
 10
52.77576224809079
 20
-30.21348740564108
 10
52.53529458322035
 20
-34.70623642795539
 10
54.01220701774695
 20
-34.70623642795539
 10
55.48911945227356
 20
-34.70623642795539
 10
56.1736599251927
 20
-33.78329534745696
 10
56.1736599251927
 20
-32.49069552139122
 10
56.1736599251927
 20
-30.95211587767864
 10
53.51955836335623
 20
-28.36657171599864
 10
50.1960747487357
 20
-28.36657171599864
 10
46.87224662456666
 20
-28.36657171599864
 10
43.85658229155322
 20
-29.78457301772747
 10
43.39804008246647
 20
-33.50252006540909
 10
43.07799071188676
 20
-36.10081108038452
 10
43.92651772990379
 20
-38.19611815451347
 10
46.45866291156242
 20
-40.07162813668349
 10
44.60055066159292
 20
-41.64465873524856
 10
43.63092853726936
 20
-42.82322590075253
 10
43.63885225688543
 20
-45.12661674219057
 10
43.64384764533904
 20
-46.56701116457353
 10
44.1092800453963
 20
-47.81654729707364
 10
45.78755831103575
 20
-49.27451170643138
 10
41.1439141064675
 20
-53.32801105437633
 10
43.6495320528897
 20
-58.46051430830154
 10
48.73759357505519
 20
-61.27274575291099
 10
48.73759357505519
 20
-61.27274575291099
 10
48.73759357505519
 20
-65.36483017029074
 10
48.73759357505519
 20
-65.36483017029074
 10
48.73759357505519
 20
-65.36483017029074
 10
49.45865206011798
 20
-65.36483017029074
 10
49.45865206011798
 20
-65.36483017029074
 10
49.45865206011798
 20
-65.36483017029074
 10
49.45865206011798
 20
-61.64619410351207
 10
49.45865206011798
 20
-61.64619410351207
 10
49.5265204411774
 20
-61.67961152971899
 10
49.59283852926846
 20
-61.71440699412001
 10
49.66208494852198
 20
-61.74713540122988
 10
50.39313421049199
 20
-62.08992240201224
 10
51.04976940998061
 20
-62.45648056164283
 10
51.63302407563341
 20
-62.83681910321441
 10
51.63302407563341
 20
-62.83681910321441
 10
51.63302407563341
 20
-65.36483017029074
 10
51.63302407563341
 20
-65.36483017029074
 10
51.63302407563341
 20
-65.36483017029074
 10
52.35408256069621
 20
-65.36483017029074
 10
52.35408256069621
 20
-65.36483017029074
 10
52.35408256069621
 20
-65.36483017029074
 10
52.35408256069621
 20
-63.34531519683728
 10
52.35408256069621
 20
-63.34531519683728
 10
53.82823891883461
 20
-64.46738279638316
 10
54.64748262522702
 20
-65.6814344453852
 10
54.64748262522702
 20
-66.80453557357664
 10
54.64748262522702
 20
-68.49228785180054
 10
53.45823566371877
 20
-69.9189018922425
 10
51.69365775617381
 20
-69.9189018922425
 10
47.82119817597873
 20
-69.9189018922425
 10
48.06183809562343
 20
-65.42511934128261
 10
46.5845811515483
 20
-65.42511934128261
 10
45.10697969792464
 20
-65.42511934128261
 10
44.42330049887681
 20
-66.34806042178104
 10
44.42330049887681
 20
-67.64066024784678
 10
44.42330049887681
 20
-69.17889538201084
 10
47.07671304161624
 20
-71.76443954369084
 10
50.40071342055955
 20
-71.76443954369084
 10
53.72419703518006
 20
-71.76443954369084
 10
56.73968911341925
 20
-70.34747177060758
 10
57.198231322506
 20
-66.62918021337742
 10
57.48761934326699
 20
-64.2803141115341
 10
56.82340493371082
 20
-62.34175888198401
 10
54.82318249497476
 20
-60.60508624786956
 97
        0
 92
        1
 93
        1
 72
     4
 94
        3
 73
     0
 74
     1
 95
       14
 96
       10
 40
0.0
 40
0.0
 40
0.0
 40
0.0
 40
1.0
 40
1.0
 40
1.0
 40
2.0
 40
2.0
 40
2.0
 40
3.0
 40
3.0
 40
3.0
 40
3.0
 10
48.73759357505519
 20
-56.83339571061804
 10
45.78790282058428
 20
-54.71466198718939
 10
44.17663166213293
 20
-52.04264592882962
 10
46.60404594103996
 20
-49.92804631998327
 10
47.19763589314851
 20
-50.37005207074083
 10
47.90370821285046
 20
-50.83617348989512
 10
48.73759357505519
 20
-51.33261174931963
 10
48.73759357505519
 20
-51.33261174931963
 10
48.73759357505519
 20
-56.83339571061804
 10
48.73759357505519
 20
-56.83339571061804
 97
        0
 92
        1
 93
        1
 72
     4
 94
        3
 73
     0
 74
     1
 95
       14
 96
       10
 40
0.0
 40
0.0
 40
0.0
 40
0.0
 40
1.0
 40
1.0
 40
1.0
 40
2.0
 40
2.0
 40
2.0
 40
3.0
 40
3.0
 40
3.0
 40
3.0
 10
48.73759357505519
 20
-47.33113334320194
 10
45.35726588492805
 20
-44.91336533165361
 10
45.04169513847916
 20
-42.59102646504669
 10
47.29340954763845
 20
-40.64351398723495
 10
47.73334824110486
 20
-40.92325574063725
 10
48.21445582562
 20
-41.19782985081166
 10
48.73759357505519
 20
-41.46964788459787
 10
48.73759357505519
 20
-41.46964788459787
 10
48.73759357505519
 20
-47.33113334320194
 10
48.73759357505519
 20
-47.33113334320194
 97
        0
 92
        1
 93
        1
 72
     4
 94
        3
 73
     0
 74
     1
 95
       23
 96
       19
 40
0.0
 40
0.0
 40
0.0
 40
0.0
 40
1.0
 40
1.0
 40
1.0
 40
2.0
 40
2.0
 40
2.0
 40
3.0
 40
3.0
 40
3.0
 40
4.0
 40
4.0
 40
4.0
 40
5.0
 40
5.0
 40
5.0
 40
6.0
 40
6.0
 40
6.0
 40
6.0
 10
51.63302407563341
 20
-58.54491914769016
 10
51.56997882825334
 20
-58.51219074058029
 10
51.51175671455262
 20
-58.47980684301894
 10
51.44698891942992
 20
-58.44776745500612
 10
50.75383570779766
 20
-58.10463594467523
 10
50.08428140023935
 20
-57.72670896994332
 10
49.45865206011798
 20
-57.32328828862057
 10
49.45865206011798
 20
-57.32328828862057
 10
49.45865206011798
 20
-51.75222437942305
 10
49.45865206011798
 20
-51.75222437942305
 10
49.7271972531932
 20
-51.90553112851668
 10
50.00538871362713
 20
-52.06056042535292
 10
50.2980495750991
 20
-52.21972383677146
 10
50.78001843348555
 20
-52.48155109365045
 10
51.22374673198573
 20
-52.74303384098091
 10
51.63302407563341
 20
-53.00417207876285
 10
51.63302407563341
 20
-53.00417207876285
 10
51.63302407563341
 20
-58.54491914769016
 10
51.63302407563341
 20
-58.54491914769016
 97
        0
 92
        1
 93
        1
 72
     4
 94
        3
 73
     0
 74
     1
 95
       20
 96
       16
 40
0.0
 40
0.0
 40
0.0
 40
0.0
 40
1.0
 40
1.0
 40
1.0
 40
2.0
 40
2.0
 40
2.0
 40
3.0
 40
3.0
 40
3.0
 40
4.0
 40
4.0
 40
4.0
 40
5.0
 40
5.0
 40
5.0
 40
5.0
 10
51.63302407563341
 20
-49.07538518738394
 10
51.36912976146328
 20
-48.92552353377557
 10
51.09627819903149
 20
-48.77256129423047
 10
50.80930174511018
 20
-48.61615395920013
 10
50.32164847917306
 20
-48.34950356864179
 10
49.87240802789648
 20
-48.08388670672903
 10
49.45865206011798
 20
-47.81895886391332
 10
49.45865206011798
 20
-47.81895886391332
 10
49.45865206011798
 20
-41.8410291779078
 10
49.45865206011798
 20
-41.8410291779078
 10
50.22673609855443
 20
-42.23721515871153
 10
50.96123045600969
 20
-42.67336424714416
 10
51.63302407563341
 20
-43.13948566629846
 10
51.63302407563341
 20
-43.13948566629846
 10
51.63302407563341
 20
-49.07538518738394
 10
51.63302407563341
 20
-49.07538518738394
 97
        0
 92
        1
 93
        1
 72
     4
 94
        3
 73
     0
 74
     1
 95
       14
 96
       10
 40
0.0
 40
0.0
 40
0.0
 40
0.0
 40
1.0
 40
1.0
 40
1.0
 40
2.0
 40
2.0
 40
2.0
 40
3.0
 40
3.0
 40
3.0
 40
3.0
 10
52.35408256069621
 20
-43.66968586147841
 10
55.06399466939373
 20
-45.78773056581002
 10
56.36589625326964
 20
-48.36948512245624
 10
53.76760523829421
 20
-50.39210068184642
 10
53.34385849360848
 20
-50.10512422792511
 10
52.87394746942041
 20
-49.80643444935395
 10
52.35408256069621
 20
-49.49672036522999
 10
52.35408256069621
 20
-49.49672036522999
 10
52.35408256069621
 20
-43.66968586147841
 10
52.35408256069621
 20
-43.66968586147841
 97
        0
 92
        1
 93
        1
 72
     4
 94
        3
 73
     0
 74
     1
 95
       14
 96
       10
 40
0.0
 40
0.0
 40
0.0
 40
0.0
 40
1.0
 40
1.0
 40
1.0
 40
2.0
 40
2.0
 40
2.0
 40
3.0
 40
3.0
 40
3.0
 40
3.0
 10
54.0432128771142
 20
-59.99082572284952
 10
53.54367403175297
 20
-59.62805716825271
 10
52.98591307269103
 20
-59.27252331417493
 10
52.35408256069621
 20
-58.92319063197059
 10
52.35408256069621
 20
-58.92319063197059
 10
52.35408256069621
 20
-53.4888970135375
 10
52.35408256069621
 20
-53.4888970135375
 10
55.64242620136717
 20
-55.82604979073099
 10
56.05618216914568
 20
-58.07776419989028
 10
54.0432128771142
 20
-59.99082572284952
 97
        0
 75
     2
 76
     1
 98
        0
  0
ENDSEC
  0
SECTION
  2
OBJECTS
  0
DICTIONARY
  5
C
330
0
100
AcDbDictionary
281
     1
  3
ACAD_GROUP
350
D
  3
ACAD_LAYOUT
350
1A
  3
ACAD_MLINESTYLE
350
17
  3
ACAD_PLOTSETTINGS
350
19
  3
ACAD_PLOTSTYLENAME
350
E
  3
ACAD_TABLESTYLE
350
44
  3
ACAD_VISUALSTYLE
350
2A
  0
DICTIONARY
  5
D
102
{ACAD_REACTORS
330
C
102
}
330
C
100
AcDbDictionary
281
     1
  0
DICTIONARY
  5
1A
102
{ACAD_REACTORS
330
C
102
}
330
C
100
AcDbDictionary
281
     1
  3
Layout1
350
1E
  3
Layout2
350
26
  3
Model
350
22
  0
DICTIONARY
  5
17
102
{ACAD_REACTORS
330
C
102
}
330
C
100
AcDbDictionary
281
     1
  3
Standard
350
18
  0
DICTIONARY
  5
19
102
{ACAD_REACTORS
330
C
102
}
330
C
100
AcDbDictionary
281
     1
  0
ACDBDICTIONARYWDFLT
  5
E
102
{ACAD_REACTORS
330
C
102
}
330
C
100
AcDbDictionary
281
     1
  3
Normal
350
F
100
AcDbDictionaryWithDefault
340
F
  0
DICTIONARY
  5
44
102
{ACAD_REACTORS
330
C
102
}
330
C
100
AcDbDictionary
281
     1
  0
DICTIONARY
  5
2A
102
{ACAD_REACTORS
330
C
102
}
330
C
100
AcDbDictionary
281
     1
  3
2dWireframe
350
2F
  3
3D Hidden
350
31
  3
3dWireframe
350
30
  3
Basic
350
32
  3
Brighten
350
36
  3
ColorChange
350
3A
  3
Conceptual
350
34
  3
Dim
350
35
  3
Facepattern
350
39
  3
Flat
350
2B
  3
FlatWithEdges
350
2C
  3
Gouraud
350
2D
  3
GouraudWithEdges
350
2E
  3
Linepattern
350
38
  3
Realistic
350
33
  3
Thicken
350
37
  0
LAYOUT
  5
1E
102
{ACAD_REACTORS
330
1A
102
}
330
1A
100
AcDbPlotSettings
  1

  2
none_device
  4

  6

 40
0.0
 41
0.0
 42
0.0
 43
0.0
 44
0.0
 45
0.0
 46
0.0
 47
0.0
 48
0.0
 49
0.0
140
0.0
141
0.0
142
1.0
143
1.0
 70
   688
 72
     0
 73
     0
 74
     5
  7

 75
    16
 76
     0
 77
     2
 78
   300
147
1.0
148
0.0
149
0.0
100
AcDbLayout
  1
Layout1
 70
     1
 71
     1
 10
0.0
 20
0.0
 11
12.0
 21
9.0
 12
0.0
 22
0.0
 32
0.0
 14
1.000000000000000E+20
 24
1.000000000000000E+20
 34
1.000000000000000E+20
 15
-1.000000000000000E+20
 25
-1.000000000000000E+20
 35
-1.000000000000000E+20
146
0.0
 13
0.0
 23
0.0
 33
0.0
 16
1.0
 26
0.0
 36
0.0
 17
0.0
 27
1.0
 37
0.0
 76
     0
330
1B
  0
LAYOUT
  5
26
102
{ACAD_REACTORS
330
1A
102
}
330
1A
100
AcDbPlotSettings
  1

  2
none_device
  4

  6

 40
0.0
 41
0.0
 42
0.0
 43
0.0
 44
0.0
 45
0.0
 46
0.0
 47
0.0
 48
0.0
 49
0.0
140
0.0
141
0.0
142
1.0
143
1.0
 70
   688
 72
     0
 73
     0
 74
     5
  7

 75
    16
 76
     0
 77
     2
 78
   300
147
1.0
148
0.0
149
0.0
100
AcDbLayout
  1
Layout2
 70
     1
 71
     2
 10
0.0
 20
0.0
 11
0.0
 21
0.0
 12
0.0
 22
0.0
 32
0.0
 14
0.0
 24
0.0
 34
0.0
 15
0.0
 25
0.0
 35
0.0
146
0.0
 13
0.0
 23
0.0
 33
0.0
 16
1.0
 26
0.0
 36
0.0
 17
0.0
 27
1.0
 37
0.0
 76
     0
330
23
  0
LAYOUT
  5
22
102
{ACAD_REACTORS
330
1A
102
}
330
1A
100
AcDbPlotSettings
  1

  2
none_device
  4

  6

 40
0.0
 41
0.0
 42
0.0
 43
0.0
 44
0.0
 45
0.0
 46
0.0
 47
0.0
 48
0.0
 49
0.0
140
0.0
141
0.0
142
1.0
143
1.0
 70
  1712
 72
     0
 73
     0
 74
     0
  7

 75
     0
 76
     0
 77
     2
 78
   300
147
1.0
148
0.0
149
0.0
100
AcDbLayout
  1
Model
 70
     1
 71
     0
 10
0.0
 20
0.0
 11
12.0
 21
9.0
 12
0.0
 22
0.0
 32
0.0
 14
1.000000000000000E+20
 24
1.000000000000000E+20
 34
1.000000000000000E+20
 15
-1.000000000000000E+20
 25
-1.000000000000000E+20
 35
-1.000000000000000E+20
146
0.0
 13
0.0
 23
0.0
 33
0.0
 16
1.0
 26
0.0
 36
0.0
 17
0.0
 27
1.0
 37
0.0
 76
     0
330
1F
331
29
  0
MLINESTYLE
  5
18
102
{ACAD_REACTORS
330
17
102
}
330
17
100
AcDbMlineStyle
  2
Standard
 70
     0
  3

 62
   256
 51
90.0
 52
90.0
 71
     2
 49
0.5
 62
   256
  6
BYLAYER
 49
-0.5
 62
   256
  6
BYLAYER
  0
ACDBPLACEHOLDER
  5
F
102
{ACAD_REACTORS
330
E
102
}
330
E
  0
VISUALSTYLE
  5
2F
102
{ACAD_REACTORS
330
2A
102
}
330
2A
100
AcDbVisualStyle
  2
2dWireframe
 70
     4
 71
     0
 72
     2
 73
     0
 90
        0
 40
-0.6
 41
-30.0
 62
     5
 63
     7
421
 16777215
 74
     1
 91
        4
 64
     7
 65
   257
 75
     1
175
     1
 42
1.0
 92
        0
 66
   257
 43
1.0
 76
     1
 77
     6
 78
     2
 67
     7
 79
     5
170
     0
171
     0
290
     0
174
     0
 93
        1
 44
0.0
173
     0
291
     0
 45
0.0
1001
ACAD
1000
AcDbSavedByObjectVersion
1070
     0
  0
VISUALSTYLE
  5
31
102
{ACAD_REACTORS
330
2A
102
}
330
2A
100
AcDbVisualStyle
  2
3D Hidden
 70
     6
 71
     1
 72
     2
 73
     2
 90
        0
 40
-0.6
 41
-30.0
 62
     5
 63
     7
421
 16777215
 74
     2
 91
        2
 64
     7
 65
   257
 75
     2
175
     1
 42
40.0
 92
        0
 66
   257
 43
1.0
 76
     1
 77
     6
 78
     2
 67
     7
 79
     3
170
     0
171
     0
290
     0
174
     0
 93
        1
 44
0.0
173
     0
291
     0
 45
0.0
1001
ACAD
1000
AcDbSavedByObjectVersion
1070
     0
  0
VISUALSTYLE
  5
30
102
{ACAD_REACTORS
330
2A
102
}
330
2A
100
AcDbVisualStyle
  2
3dWireframe
 70
     5
 71
     0
 72
     2
 73
     0
 90
        0
 40
-0.6
 41
-30.0
 62
     5
 63
     7
421
 16777215
 74
     1
 91
        4
 64
     7
 65
   257
 75
     1
175
     1
 42
1.0
 92
        0
 66
   257
 43
1.0
 76
     1
 77
     6
 78
     2
 67
     7
 79
     5
170
     0
171
     0
290
     0
174
     0
 93
        1
 44
0.0
173
     0
291
     0
 45
0.0
1001
ACAD
1000
AcDbSavedByObjectVersion
1070
     0
  0
VISUALSTYLE
  5
32
102
{ACAD_REACTORS
330
2A
102
}
330
2A
100
AcDbVisualStyle
  2
Basic
 70
     7
 71
     1
 72
     0
 73
     1
 90
        0
 40
-0.6
 41
-30.0
 62
     5
 63
     7
421
 16777215
 74
     0
 91
        4
 64
     7
 65
   257
 75
     1
175
     1
 42
1.0
 92
        8
 66
     7
 43
1.0
 76
     1
 77
     6
 78
     2
 67
     7
 79
     5
170
     0
171
     0
290
     0
174
     0
 93
        1
 44
0.0
173
     0
291
     1
 45
0.0
1001
ACAD
1000
AcDbSavedByObjectVersion
1070
     0
  0
VISUALSTYLE
  5
36
102
{ACAD_REACTORS
330
2A
102
}
330
2A
100
AcDbVisualStyle
  2
Brighten
 70
    12
 71
     2
 72
     2
 73
     0
 90
        0
 40
-0.6
 41
-30.0
 62
     5
 63
     7
421
 16777215
 74
     1
 91
        4
 64
     7
 65
   257
 75
     1
175
     1
 42
1.0
 92
        8
 66
     7
 43
1.0
 76
     1
 77
     6
 78
     2
 67
     7
 79
     5
170
     0
171
     0
290
     0
174
     0
 93
        1
 44
50.0
173
     0
291
     1
 45
0.0
1001
ACAD
1000
AcDbSavedByObjectVersion
1070
     0
  0
VISUALSTYLE
  5
3A
102
{ACAD_REACTORS
330
2A
102
}
330
2A
100
AcDbVisualStyle
  2
ColorChange
 70
    16
 71
     2
 72
     2
 73
     3
 90
        0
 40
-0.6
 41
-30.0
 62
     5
 63
     8
421
  8421504
 74
     1
 91
        4
 64
     7
 65
   257
 75
     1
175
     1
 42
1.0
 92
        8
 66
     8
424
  8421504
 43
1.0
 76
     1
 77
     6
 78
     2
 67
     7
 79
     5
170
     0
171
     0
290
     0
174
     0
 93
        1
 44
0.0
173
     0
291
     1
 45
0.0
1001
ACAD
1000
AcDbSavedByObjectVersion
1070
     0
  0
VISUALSTYLE
  5
34
102
{ACAD_REACTORS
330
2A
102
}
330
2A
100
AcDbVisualStyle
  2
Conceptual
 70
     9
 71
     3
 72
     2
 73
     0
 90
        0
 40
-0.6
 41
-30.0
 62
     5
 63
     7
421
 16777215
 74
     2
 91
        2
 64
     7
 65
   257
 75
     1
175
     1
 42
40.0
 92
        8
 66
     7
 43
1.0
 76
     1
 77
     6
 78
     2
 67
     7
 79
     3
170
     0
171
     0
290
     0
174
     0
 93
        1
 44
0.0
173
     0
291
     0
 45
0.0
1001
ACAD
1000
AcDbSavedByObjectVersion
1070
     0
  0
VISUALSTYLE
  5
35
102
{ACAD_REACTORS
330
2A
102
}
330
2A
100
AcDbVisualStyle
  2
Dim
 70
    11
 71
     2
 72
     2
 73
     0
 90
        0
 40
-0.6
 41
-30.0
 62
     5
 63
     7
421
 16777215
 74
     1
 91
        4
 64
     7
 65
   257
 75
     1
175
     1
 42
1.0
 92
        8
 66
     7
 43
1.0
 76
     1
 77
     6
 78
     2
 67
     7
 79
     5
170
     0
171
     0
290
     0
174
     0
 93
        1
 44
-50.0
173
     0
291
     1
 45
0.0
1001
ACAD
1000
AcDbSavedByObjectVersion
1070
     0
  0
VISUALSTYLE
  5
39
102
{ACAD_REACTORS
330
2A
102
}
330
2A
100
AcDbVisualStyle
  2
Facepattern
 70
    15
 71
     2
 72
     2
 73
     0
 90
        0
 40
-0.6
 41
-30.0
 62
     5
 63
     7
421
 16777215
 74
     1
 91
        4
 64
     7
 65
   257
 75
     1
175
     1
 42
1.0
 92
        8
 66
     7
 43
1.0
 76
     1
 77
     6
 78
     2
 67
     7
 79
     5
170
     0
171
     0
290
     0
174
     0
 93
        1
 44
0.0
173
     0
291
     1
 45
0.0
1001
ACAD
1000
AcDbSavedByObjectVersion
1070
     0
  0
VISUALSTYLE
  5
2B
102
{ACAD_REACTORS
330
2A
102
}
330
2A
100
AcDbVisualStyle
  2
Flat
 70
     0
 71
     2
 72
     1
 73
     1
 90
        2
 40
-0.6
 41
30.0
 62
     5
 63
     7
421
 16777215
 74
     0
 91
        4
 64
     7
 65
   257
 75
     1
175
     1
 42
1.0
 92
        8
 66
     7
 43
1.0
 76
     1
 77
     6
 78
     2
 67
     7
 79
     5
170
     0
171
     0
290
     0
174
     0
 93
       13
 44
0.0
173
     0
291
     1
 45
0.0
1001
ACAD
1000
AcDbSavedByObjectVersion
1070
     0
  0
VISUALSTYLE
  5
2C
102
{ACAD_REACTORS
330
2A
102
}
330
2A
100
AcDbVisualStyle
  2
FlatWithEdges
 70
     1
 71
     2
 72
     1
 73
     1
 90
        2
 40
-0.6
 41
30.0
 62
     5
 63
     7
421
 16777215
 74
     1
 91
        4
 64
     7
 65
   257
 75
     1
175
     1
 42
1.0
 92
        0
 66
   257
 43
1.0
 76
     1
 77
     6
 78
     2
 67
     7
 79
     5
170
     0
171
     0
290
     0
174
     0
 93
       13
 44
0.0
173
     0
291
     1
 45
0.0
1001
ACAD
1000
AcDbSavedByObjectVersion
1070
     0
  0
VISUALSTYLE
  5
2D
102
{ACAD_REACTORS
330
2A
102
}
330
2A
100
AcDbVisualStyle
  2
Gouraud
 70
     2
 71
     2
 72
     2
 73
     1
 90
        2
 40
-0.6
 41
30.0
 62
     5
 63
     7
421
 16777215
 74
     0
 91
        4
 64
     7
 65
   257
 75
     1
175
     1
 42
1.0
 92
        0
 66
     7
 43
1.0
 76
     1
 77
     6
 78
     2
 67
     7
 79
     5
170
     0
171
     0
290
     0
174
     0
 93
       13
 44
0.0
173
     0
291
     1
 45
0.0
1001
ACAD
1000
AcDbSavedByObjectVersion
1070
     0
  0
VISUALSTYLE
  5
2E
102
{ACAD_REACTORS
330
2A
102
}
330
2A
100
AcDbVisualStyle
  2
GouraudWithEdges
 70
     3
 71
     2
 72
     2
 73
     1
 90
        2
 40
-0.6
 41
30.0
 62
     5
 63
     7
421
 16777215
 74
     1
 91
        4
 64
     7
 65
   257
 75
     1
175
     1
 42
1.0
 92
        0
 66
   257
 43
1.0
 76
     1
 77
     6
 78
     2
 67
     7
 79
     5
170
     0
171
     0
290
     0
174
     0
 93
       13
 44
0.0
173
     0
291
     1
 45
0.0
1001
ACAD
1000
AcDbSavedByObjectVersion
1070
     0
  0
VISUALSTYLE
  5
38
102
{ACAD_REACTORS
330
2A
102
}
330
2A
100
AcDbVisualStyle
  2
Linepattern
 70
    14
 71
     2
 72
     2
 73
     0
 90
        0
 40
-0.6
 41
-30.0
 62
     5
 63
     7
421
 16777215
 74
     1
 91
        4
 64
     7
 65
   257
 75
     7
175
     7
 42
1.0
 92
        8
 66
     7
 43
1.0
 76
     1
 77
     6
 78
     2
 67
     7
 79
     5
170
     0
171
     0
290
     0
174
     0
 93
        1
 44
0.0
173
     0
291
     1
 45
0.0
1001
ACAD
1000
AcDbSavedByObjectVersion
1070
     0
  0
VISUALSTYLE
  5
33
102
{ACAD_REACTORS
330
2A
102
}
330
2A
100
AcDbVisualStyle
  2
Realistic
 70
     8
 71
     2
 72
     2
 73
     0
 90
        0
 40
-0.6
 41
-30.0
 62
     5
 63
     7
421
 16777215
 74
     1
 91
        0
 64
     7
 65
   257
 75
     1
175
     1
 42
1.0
 92
        8
 66
     8
424
  7895160
 43
1.0
 76
     1
 77
     6
 78
     2
 67
     7
 79
     5
170
     0
171
     0
290
     0
174
     0
 93
       13
 44
0.0
173
     0
291
     0
 45
0.0
1001
ACAD
1000
AcDbSavedByObjectVersion
1070
     0
  0
VISUALSTYLE
  5
37
102
{ACAD_REACTORS
330
2A
102
}
330
2A
100
AcDbVisualStyle
  2
Thicken
 70
    13
 71
     2
 72
     2
 73
     0
 90
        0
 40
-0.6
 41
-30.0
 62
     5
 63
     7
421
 16777215
 74
     1
 91
        4
 64
     7
 65
   257
 75
     1
175
     1
 42
1.0
 92
       12
 66
     7
 43
1.0
 76
     1
 77
     6
 78
     2
 67
     7
 79
     5
170
     0
171
     0
290
     0
174
     0
 93
        1
 44
0.0
173
     0
291
     1
 45
0.0
1001
ACAD
1000
AcDbSavedByObjectVersion
1070
     0
  0
ENDSEC
  0
EOF
