<?xml version="1.0" encoding="utf-8"?>
<!-- Generator: Adobe Illustrator 16.0.0, SVG Export Plug-In . SVG Version: 6.00 Build 0)  -->
<!DOCTYPE svg PUBLIC "-//W3C//DTD SVG 1.1//EN" "http://www.w3.org/Graphics/SVG/1.1/DTD/svg11.dtd">
<svg version="1.1" id="Layer_1" xmlns="http://www.w3.org/2000/svg" xmlns:xlink="http://www.w3.org/1999/xlink" x="0px" y="0px"
	 width="283.46px" height="283.46px" viewBox="0 0 283.46 283.46" enable-background="new 0 0 283.46 283.46" xml:space="preserve">
<path fill-rule="evenodd" clip-rule="evenodd" d="M135.627,89.919c1.715,2.71,3.276,5.225,4.882,7.71
	c6.544,10.123,14.108,19.459,21.967,28.576c1.647,1.912,2.944,4.093,4.326,6.212c4.696,7.205,1.694,13.668-3.856,18.143
	c-1.003,0.804-2.21,1.363-3.353,1.983c-0.471,0.254-1.074,0.427-1.468-0.104s-0.033-1.037,0.333-1.433
	c1.045-1.12,2.09-2.243,3.193-3.308c3.536-3.414,3.668-5.637,0.652-9.559c-1.746-2.269-3.93-4.084-6.045-5.945
	c-4.594-4.049-9.074-8.241-14.035-11.858c-0.464-0.341-0.926-1.075-1.558-0.671c-0.554,0.351-0.273,1.135-0.273,1.721
	c0,17.249-0.012,34.499,0.035,51.748c0.028,10.321-9.528,20.435-19.438,20.467c-6.218,0.018-10.111-3.68-10.226-9.906
	c-0.188-10.146,10.32-20.83,20.119-20.325c0.537,0.026,1.08,0.036,1.603,0.128c3.053,0.537,3.054,0.547,3.054-2.676
	c0.002-18.781,0.028-37.563-0.021-56.347c-0.01-3.977-0.326-7.953-0.454-11.932C135.043,91.817,134.762,91.024,135.627,89.919z"/>
</svg>
