<?xml version="1.0" encoding="utf-8"?>
<!-- Generator: Adobe Illustrator 16.0.0, SVG Export Plug-In . SVG Version: 6.00 Build 0)  -->
<!DOCTYPE svg PUBLIC "-//W3C//DTD SVG 1.1//EN" "http://www.w3.org/Graphics/SVG/1.1/DTD/svg11.dtd">
<svg version="1.1" id="Layer_1" xmlns="http://www.w3.org/2000/svg" xmlns:xlink="http://www.w3.org/1999/xlink" x="0px" y="0px"
	 width="283.46px" height="283.46px" viewBox="0 0 283.46 283.46" enable-background="new 0 0 283.46 283.46" xml:space="preserve">
<path d="M158.258,112.403c5.803,12.945,7.751,27.288-1.23,41.262c-5.544,8.621-12.402,8.621-12.402,8.621V102.19h-0.005
	c0.012-1.404-0.313-2.749-1.023-3.945c-2.787-4.691-10.379-5.325-16.958-1.417c-6.576,3.907-9.651,10.878-6.864,15.57
	s10.381,5.327,16.957,1.419c2.392-1.421,4.31-3.246,5.661-5.218v81.863h2.232c0-14.935,11.632-26.021,16.713-35.565
	C166.419,145.352,167.957,125.952,158.258,112.403z"/>
</svg>
