<?xml version="1.0" encoding="utf-8"?>
<!-- Generator: Adobe Illustrator 16.0.0, SVG Export Plug-In . SVG Version: 6.00 Build 0)  -->
<!DOCTYPE svg PUBLIC "-//W3C//DTD SVG 1.1//EN" "http://www.w3.org/Graphics/SVG/1.1/DTD/svg11.dtd">
<svg version="1.1" id="Layer_1" xmlns="http://www.w3.org/2000/svg" xmlns:xlink="http://www.w3.org/1999/xlink" x="0px" y="0px"
	 width="283.46px" height="283.46px" viewBox="0 0 283.46 283.46" enable-background="new 0 0 283.46 283.46" xml:space="preserve">
<path d="M188.347,111.797l0.04-11.913l-77.037,21.342v10.294l0.034-0.009v36.112c-2.281-1.024-5.371-1-8.312,0.303
	c-4.692,2.088-7.227,6.627-5.674,10.151c1.56,3.526,6.635,4.687,11.334,2.604c4.179-1.85,6.637-5.652,6.023-8.951v-41.084
	l35.241-9.024v35.69c-2.297-1.097-5.443-1.113-8.447,0.222c-4.7,2.085-7.232,6.628-5.678,10.152
	c1.558,3.522,6.633,4.684,11.332,2.606c3.825-1.699,6.179-5.016,6.09-8.095h0.07v-41.439l31.519-8.078v33.215
	c-2.284-1.06-5.4-1.051-8.368,0.264c-4.699,2.086-7.232,6.631-5.679,10.156c1.559,3.521,6.634,4.68,11.332,2.606
	c3.863-1.724,6.226-5.086,6.089-8.189v-38.915L188.347,111.797z"/>
</svg>
