<?xml version="1.0" encoding="utf-8"?>
<!-- Generator: Adobe Illustrator 16.0.0, SVG Export Plug-In . SVG Version: 6.00 Build 0)  -->
<!DOCTYPE svg PUBLIC "-//W3C//DTD SVG 1.1//EN" "http://www.w3.org/Graphics/SVG/1.1/DTD/svg11.dtd">
<svg version="1.1" id="Layer_1" xmlns="http://www.w3.org/2000/svg" xmlns:xlink="http://www.w3.org/1999/xlink" x="0px" y="0px"
	 width="283.46px" height="283.46px" viewBox="0 0 283.46 283.46" enable-background="new 0 0 283.46 283.46" xml:space="preserve">
<path fill-rule="evenodd" clip-rule="evenodd" d="M130.665,153.43c2.837-4.666,6.958-6.854,11.725-8.119
	c1.627-0.432,3.237-0.959,4.8-1.578c5.374-2.132,6.839-5.589,4.67-10.987c-0.544-1.358-1.212-2.662-1.822-3.985
	c0.382-0.17,0.605-0.349,0.691-0.297c5.308,3.137,7.415,11.416,4.142,16.612c-0.612,0.979-0.554,1.69-0.067,2.563
	c0.877,1.565,1.48,3.228,1.8,4.997c0.618,3.472-0.411,6.27-3.341,8.314c-2.564,1.791-5.468,2.896-8.37,3.922
	c-8.196,2.893-14.104,7.709-14.959,17.016c-0.088,0.934-0.509,1.645-1.529,1.693c-1.024,0.051-1.541-0.615-1.665-1.543
	c-0.152-1.111-0.297-2.233-0.297-3.352c-0.015-20.887,0.062-41.777-0.055-62.665c-0.035-6.26,2.645-10.694,8.127-13.262
	c5.634-2.639,11.416-2.961,16.838,0.739c5.485,3.745,6.153,10.926,1.331,15.501c-5.509,5.23-11.976,6.669-19.191,4.034
	c-3.354-1.224-3.499-1.185-3.504,2.292c-0.014,8.055-0.009,16.112,0.005,24.168C129.992,150.694,129.869,151.928,130.665,153.43z
	 M130.502,167.67c3.697-6.032,9.928-7.377,15.891-9.217c0.975-0.305,1.916-0.77,2.81-1.266c3.063-1.703,4.206-4.51,3.348-7.855
	c-0.366-1.434-0.991-1.771-2.401-1.135c-2.985,1.346-6.055,2.494-9.058,3.795c-2.518,1.09-4.794,2.604-6.582,4.682
	C131.869,159.745,130.029,163.176,130.502,167.67z"/>
</svg>
