<?xml version="1.0" encoding="utf-8"?>
<!-- Generator: Adobe Illustrator 16.0.0, SVG Export Plug-In . SVG Version: 6.00 Build 0)  -->
<!DOCTYPE svg PUBLIC "-//W3C//DTD SVG 1.1//EN" "http://www.w3.org/Graphics/SVG/1.1/DTD/svg11.dtd">
<svg version="1.1" id="Layer_1" xmlns="http://www.w3.org/2000/svg" xmlns:xlink="http://www.w3.org/1999/xlink" x="0px" y="0px"
	 width="283.46px" height="283.46px" viewBox="0 0 283.46 283.46" enable-background="new 0 0 283.46 283.46" xml:space="preserve">
<path d="M159.47,130.329c-1.983,0.013-4.539,1.845-6.438,4.688c0.259-2.866-1.137-4.623-3.574-4.623h-0.016
	c-1.88,0.008-5.223,1.22-10.467,6.949c-0.71,0.776-1.44,1.474-2.18,2.103c2.165-8.104,5.338-18.781,5.338-18.781h-5.993
	c0,0-1.498,6.124-3.188,12.936c-1.42-2.108-3.77-3.732-7.024-3.151c-1.816,0.325-3.285,1.231-4.249,2.622
	c-1.085,1.564-1.454,3.671-1.039,5.932c0.438,2.389,2.357,4.347,5.008,5.108c0.598,0.171,1.476,0.347,2.576,0.347
	c0.617,0,1.31-0.061,2.058-0.201c-0.739,2.904-1.363,5.299-1.725,6.558c-3.072,10.756,3.866,11.819,7.771,8.356
	c8.121-7.208,3.608-15.053,0.948-18.43c0.86-0.711,1.745-1.544,2.646-2.528c3.824-4.179,6.461-5.736,8.103-6.274
	c2.875-0.856-5.155,25.671-5.155,25.671h4.606c0,0,1.868-8.025,3.466-14.188c2.662-7.925,5.206-9.415,7.134-9.415
	c-2.233,2.601-0.383,5.906,2.006,6.02c1.542,0.074,3.623-0.418,4.015-4.095C164.507,132.072,162.28,130.312,159.47,130.329z
	 M130.637,142.848c-1.617,0.42-3.19,0.441-4.635,0.027c-2.179-0.625-3.749-2.199-4.1-4.105c-0.351-1.921-0.058-3.686,0.832-4.966
	c0.764-1.104,1.947-1.826,3.42-2.091c3.152-0.566,5.291,1.461,6.351,3.688C131.872,137.946,131.229,140.518,130.637,142.848z
	 M135.204,156.809c-2.624-0.189-1.5-4.122,0-10.992c0.191-0.878,0.447-1.944,0.748-3.134
	C141.519,149.386,137.695,156.984,135.204,156.809z"/>
</svg>
