<?xml version="1.0" encoding="utf-8"?>
<!-- Generator: Adobe Illustrator 16.0.0, SVG Export Plug-In . SVG Version: 6.00 Build 0)  -->
<!DOCTYPE svg PUBLIC "-//W3C//DTD SVG 1.1//EN" "http://www.w3.org/Graphics/SVG/1.1/DTD/svg11.dtd">
<svg version="1.1" id="Layer_1" xmlns="http://www.w3.org/2000/svg" xmlns:xlink="http://www.w3.org/1999/xlink" x="0px" y="0px"
	 width="283.46px" height="283.46px" viewBox="0 0 283.46 283.46" enable-background="new 0 0 283.46 283.46" xml:space="preserve">
<path fill-rule="evenodd" clip-rule="evenodd" d="M153.193,99.089c9.664,0,19.325-0.004,28.989,0.002
	c3.269,0.002,3.353,0.012,3.276,3.365c-0.43,19.625-0.355,39.254-0.262,58.88c0.018,3.905,0.6,7.781-1.256,11.472
	c-3.16,6.284-7.89,10.474-15.048,11.439c-5.329,0.721-9.486-3.083-9.821-8.472c-0.621-10.064,11.05-20.928,20.323-18.353
	c1.316,0.364,1.424-0.313,1.418-1.291c-0.009-2.454,0.002-4.909,0.002-7.362c0-10.812-0.049-21.628,0.038-32.439
	c0.017-2.179-0.648-2.944-2.879-2.932c-16.79,0.069-33.577,0.069-50.367,0c-2.207-0.009-2.916,0.729-2.904,2.923
	c0.09,16.642,0.041,33.283,0.123,49.923c0.043,9.063-8.057,17.977-17.087,18.611c-6,0.426-10.176-4.422-9.322-10.816
	c1.069-8.008,7.982-15.078,15.959-16.336c1.233-0.193,2.447-0.154,3.638,0.217c1.479,0.463,2.075,0.027,2.048-1.607
	c-0.075-4.677-0.018-9.356-0.018-14.035c-0.002-13.036-0.008-26.073-0.005-39.112c0.002-3.61,0.477-4.073,4.168-4.075
	C133.868,99.085,143.53,99.089,153.193,99.089z"/>
</svg>
