<?xml version="1.0" encoding="utf-8"?>
<!-- Generator: Adobe Illustrator 16.0.0, SVG Export Plug-In . SVG Version: 6.00 Build 0)  -->
<!DOCTYPE svg PUBLIC "-//W3C//DTD SVG 1.1//EN" "http://www.w3.org/Graphics/SVG/1.1/DTD/svg11.dtd">
<svg version="1.1" id="Layer_1" xmlns="http://www.w3.org/2000/svg" xmlns:xlink="http://www.w3.org/1999/xlink" x="0px" y="0px"
	 width="283.46px" height="283.46px" viewBox="0 0 283.46 283.46" enable-background="new 0 0 283.46 283.46" xml:space="preserve">
<path d="M166.688,95.684c-1.031-0.297-2.135,0.115-2.711,1.016c-7.618,11.961-15.681,18.791-23.967,20.299
	c-0.993,0.193-1.963,0.274-2.91,0.3c3.601-2.527,5.966-6.702,5.966-11.442c0-7.704-6.239-13.943-13.962-13.943
	c-7.722,0-13.961,6.239-13.961,13.943c0,12.383,15.344,17.806,25.74,15.889c7.974-1.456,15.595-6.862,22.719-16.101v85.95h4.822
	V97.996C168.424,96.922,167.718,95.979,166.688,95.684z"/>
</svg>
