<?xml version="1.0" encoding="utf-8"?>
<!-- Generator: Adobe Illustrator 16.0.0, SVG Export Plug-In . SVG Version: 6.00 Build 0)  -->
<!DOCTYPE svg PUBLIC "-//W3C//DTD SVG 1.1//EN" "http://www.w3.org/Graphics/SVG/1.1/DTD/svg11.dtd">
<svg version="1.1" id="Layer_1" xmlns="http://www.w3.org/2000/svg" xmlns:xlink="http://www.w3.org/1999/xlink" x="0px" y="0px"
	 width="283.46px" height="283.46px" viewBox="0 0 283.46 283.46" enable-background="new 0 0 283.46 283.46" xml:space="preserve">
<path fill-rule="evenodd" clip-rule="evenodd" d="M107.561,148.118c0-8.052,0.412-16.13-0.108-24.15
	c-0.581-8.949,6.826-13.619,13.972-13.408c0.61,0.018,1.224,0.077,1.831,0.16c3.876,0.544,7.526,3.48,8.329,6.691
	c0.881,3.53-0.662,7.217-4.29,9.667c-4.499,3.043-9.36,3.72-14.415,1.508c-1.926-0.84-2.393-0.309-2.386,1.639
	c0.05,11.811,0.018,23.619,0.03,35.432c0.002,2.524,0.306,2.708,2.863,2.381c11.626-1.477,23.248-2.986,34.888-4.338
	c2.254-0.262,2.984-1.096,2.974-3.316c-0.07-14.342,0.023-28.682-0.068-43.024c-0.028-4.268,1.71-7.327,5.219-9.582
	c4.672-3,10.848-3.184,15.002-0.367c4.997,3.392,5.434,9.473,0.858,13.461c-4.479,3.902-9.608,4.878-15.229,2.874
	c-2.848-1.018-2.841-1.066-2.841,2.051c-0.005,14.416,0,28.833-0.005,43.253c0,3.82-0.601,4.582-4.36,5.042
	c-12.468,1.519-24.941,3.016-37.417,4.456c-4.157,0.479-4.871-0.243-4.873-4.433c-0.003-8.669-0.001-17.333-0.001-26
	C107.542,148.118,107.553,148.118,107.561,148.118z"/>
</svg>
