<?xml version="1.0" encoding="utf-8"?>
<!-- Generator: Adobe Illustrator 16.0.0, SVG Export Plug-In . SVG Version: 6.00 Build 0)  -->
<!DOCTYPE svg PUBLIC "-//W3C//DTD SVG 1.1//EN" "http://www.w3.org/Graphics/SVG/1.1/DTD/svg11.dtd">
<svg version="1.1" id="Layer_1" xmlns="http://www.w3.org/2000/svg" xmlns:xlink="http://www.w3.org/1999/xlink" x="0px" y="0px"
	 width="283.46px" height="283.46px" viewBox="0 0 283.46 283.46" enable-background="new 0 0 283.46 283.46" xml:space="preserve">
<path d="M146.8,99.773c5.804,12.945,4.517,23.118-4.998,33.368c-6.974,7.513-12.402,7.72-12.402,7.72v43.591
	c0-14.935,8.669-15.949,16.713-27.857c3.903-5.78,7.664-15.105,2.863-24.901C153.633,123.148,154.992,111.217,146.8,99.773z
	 M141.802,154.979c-6.057,6.525-10.944,9.281-12.125,9.893c1.538-12.444,9.753-20.361,16.436-28.829
	c0.822-1.044,1.6-2.175,2.313-3.379C150.607,141.107,147.917,148.393,141.802,154.979z"/>
</svg>
