<?xml version="1.0" encoding="utf-8"?>
<!-- Generator: Adobe Illustrator 16.0.0, SVG Export Plug-In . SVG Version: 6.00 Build 0)  -->
<!DOCTYPE svg PUBLIC "-//W3C//DTD SVG 1.1//EN" "http://www.w3.org/Graphics/SVG/1.1/DTD/svg11.dtd">
<svg version="1.1" id="Layer_1" xmlns="http://www.w3.org/2000/svg" xmlns:xlink="http://www.w3.org/1999/xlink" x="0px" y="0px"
	 width="283.46px" height="283.46px" viewBox="0 0 283.46 283.46" enable-background="new 0 0 283.46 283.46" xml:space="preserve">
<path fill-rule="evenodd" clip-rule="evenodd" d="M142.073,133.004c2.495,0.104,4.652,0.551,6.563,1.797
	c4.141,2.702,4.522,7.698,0.896,11.408c-3.536,3.617-9.974,4.716-14.521,2.476c-4.951-2.438-5.87-7.84-2.033-11.819
	C135.536,134.21,138.756,133.22,142.073,133.004z M141.962,147.257c0.519-0.032,1.04-0.048,1.558-0.099
	c2.535-0.248,4.627-1.794,5.172-3.807c0.584-2.172-0.272-4.39-2.419-5.922c-2.722-1.945-5.712-2.396-8.88-1.28
	c-1.899,0.667-3.276,1.928-3.617,3.983c-0.357,2.132,0.593,3.827,2.206,5.114C137.709,146.627,139.725,147.307,141.962,147.257z"/>
</svg>
