<?xml version="1.0" encoding="utf-8"?>
<!-- Generator: Adobe Illustrator 16.0.0, SVG Export Plug-In . SVG Version: 6.00 Build 0)  -->
<!DOCTYPE svg PUBLIC "-//W3C//DTD SVG 1.1//EN" "http://www.w3.org/Graphics/SVG/1.1/DTD/svg11.dtd">
<svg version="1.1" id="Layer_1" xmlns="http://www.w3.org/2000/svg" xmlns:xlink="http://www.w3.org/1999/xlink" x="0px" y="0px"
	 width="283.46px" height="283.46px" viewBox="0 0 283.46 283.46" enable-background="new 0 0 283.46 283.46" xml:space="preserve">
<path d="M150.073,113.089c1.972,15.791,2.036,19.106-7.479,29.355c-6.973,7.512-12.402,7.721-12.402,7.721v-39.258
	c3.395,3.265,9.964,3.347,15.754-0.091c6.577-3.91,9.651-10.88,6.864-15.572c-2.787-4.691-10.379-5.325-16.958-1.417
	c-4.913,2.918-7.869,7.546-7.89,11.656h-0.002v88.273h2.232c0-14.936,8.669-15.951,16.714-27.859
	c4.082-6.043,9.357-15.74,3.69-25.987C154.445,133.029,155.252,125.309,150.073,113.089z M142.594,164.283
	c-6.057,6.524-10.944,9.281-12.125,9.893c1.538-12.444,9.753-20.361,16.437-28.83c1.248-1.583,2.37-3.159,3.326-4.775
	C152.99,149.68,149.104,157.271,142.594,164.283z"/>
</svg>
