  0
SECTION
  2
HEADER
  9
$ACADVER
  1
AC1018
  9
$ACADMAINTVER
 70
     0
  9
$DWGCODEPAGE
  3
ANSI_1252
  9
$INSBASE
 10
0.0
 20
0.0
 30
0.0
  9
$EXTMIN
 10
1.000000000000000E+20
 20
1.000000000000000E+20
 30
1.000000000000000E+20
  9
$EXTMAX
 10
-1.000000000000000E+20
 20
-1.000000000000000E+20
 30
-1.000000000000000E+20
  9
$LIMMIN
 10
0.0
 20
0.0
  9
$LIMMAX
 10
12.0
 20
9.0
  9
$ORTHOMODE
 70
     0
  9
$REGENMODE
 70
     1
  9
$FILLMODE
 70
     1
  9
$QTEXTMODE
 70
     0
  9
$MIRRTEXT
 70
     1
  9
$LTSCALE
 40
1.0
  9
$ATTMODE
 70
     1
  9
$TEXTSIZE
 40
0.2
  9
$TRACEWID
 40
0.05
  9
$TEXTSTYLE
  7
Standard
  9
$CLAYER
  8
0
  9
$CELTYPE
  6
ByLayer
  9
$CECOLOR
 62
   256
  9
$CELTSCALE
 40
1.0
  9
$DISPSILH
 70
     0
  9
$DIMSCALE
 40
1.0
  9
$DIMASZ
 40
0.18
  9
$DIMEXO
 40
0.0625
  9
$DIMDLI
 40
0.38
  9
$DIMRND
 40
0.0
  9
$DIMDLE
 40
0.0
  9
$DIMEXE
 40
0.18
  9
$DIMTP
 40
0.0
  9
$DIMTM
 40
0.0
  9
$DIMTXT
 40
0.18
  9
$DIMCEN
 40
0.09
  9
$DIMTSZ
 40
0.0
  9
$DIMTOL
 70
     0
  9
$DIMLIM
 70
     0
  9
$DIMTIH
 70
     1
  9
$DIMTOH
 70
     1
  9
$DIMSE1
 70
     0
  9
$DIMSE2
 70
     0
  9
$DIMTAD
 70
     0
  9
$DIMZIN
 70
     0
  9
$DIMBLK
  1

  9
$DIMASO
 70
     1
  9
$DIMSHO
 70
     1
  9
$DIMPOST
  1

  9
$DIMAPOST
  1

  9
$DIMALT
 70
     0
  9
$DIMALTD
 70
     2
  9
$DIMALTF
 40
25.4
  9
$DIMLFAC
 40
1.0
  9
$DIMTOFL
 70
     0
  9
$DIMTVP
 40
0.0
  9
$DIMTIX
 70
     0
  9
$DIMSOXD
 70
     0
  9
$DIMSAH
 70
     0
  9
$DIMBLK1
  1

  9
$DIMBLK2
  1

  9
$DIMSTYLE
  2
Standard
  9
$DIMCLRD
 70
     0
  9
$DIMCLRE
 70
     0
  9
$DIMCLRT
 70
     0
  9
$DIMTFAC
 40
1.0
  9
$DIMGAP
 40
0.09
  9
$DIMJUST
 70
     0
  9
$DIMSD1
 70
     0
  9
$DIMSD2
 70
     0
  9
$DIMTOLJ
 70
     1
  9
$DIMTZIN
 70
     0
  9
$DIMALTZ
 70
     0
  9
$DIMALTTZ
 70
     0
  9
$DIMUPT
 70
     0
  9
$DIMDEC
 70
     4
  9
$DIMTDEC
 70
     4
  9
$DIMALTU
 70
     2
  9
$DIMALTTD
 70
     2
  9
$DIMTXSTY
  7
Standard
  9
$DIMAUNIT
 70
     0
  9
$DIMADEC
 70
     0
  9
$DIMALTRND
 40
0.0
  9
$DIMAZIN
 70
     0
  9
$DIMDSEP
 70
    46
  9
$DIMATFIT
 70
     3
  9
$DIMFRAC
 70
     0
  9
$DIMLDRBLK
  1

  9
$DIMLUNIT
 70
     2
  9
$DIMLWD
 70
    -2
  9
$DIMLWE
 70
    -2
  9
$DIMTMOVE
 70
     0
  9
$LUNITS
 70
     2
  9
$LUPREC
 70
     4
  9
$SKETCHINC
 40
0.1
  9
$FILLETRAD
 40
0.5
  9
$AUNITS
 70
     0
  9
$AUPREC
 70
     0
  9
$MENU
  1
.
  9
$ELEVATION
 40
0.0
  9
$PELEVATION
 40
0.0
  9
$THICKNESS
 40
0.0
  9
$LIMCHECK
 70
     0
  9
$CHAMFERA
 40
0.5
  9
$CHAMFERB
 40
0.5
  9
$CHAMFERC
 40
1.0
  9
$CHAMFERD
 40
0.0
  9
$SKPOLY
 70
     0
  9
$TDCREATE
 40
2458280.848263518
  9
$TDUCREATE
 40
2458280.556596852
  9
$TDUPDATE
 40
2458280.84826353
  9
$TDUUPDATE
 40
2458280.556596864
  9
$TDINDWG
 40
0.0000000116
  9
$TDUSRTIMER
 40
0.0000000116
  9
$USRTIMER
 70
     1
  9
$ANGBASE
 50
0.0
  9
$ANGDIR
 70
     0
  9
$PDMODE
 70
     0
  9
$PDSIZE
 40
0.0
  9
$PLINEWID
 40
0.0
  9
$SPLFRAME
 70
     0
  9
$SPLINETYPE
 70
     6
  9
$SPLINESEGS
 70
     8
  9
$HANDSEED
  5
54
  9
$SURFTAB1
 70
     6
  9
$SURFTAB2
 70
     6
  9
$SURFTYPE
 70
     6
  9
$SURFU
 70
     6
  9
$SURFV
 70
     6
  9
$UCSBASE
  2

  9
$UCSNAME
  2

  9
$UCSORG
 10
0.0
 20
0.0
 30
0.0
  9
$UCSXDIR
 10
1.0
 20
0.0
 30
0.0
  9
$UCSYDIR
 10
0.0
 20
1.0
 30
0.0
  9
$UCSORTHOREF
  2

  9
$UCSORTHOVIEW
 70
     0
  9
$UCSORGTOP
 10
0.0
 20
0.0
 30
0.0
  9
$UCSORGBOTTOM
 10
0.0
 20
0.0
 30
0.0
  9
$UCSORGLEFT
 10
0.0
 20
0.0
 30
0.0
  9
$UCSORGRIGHT
 10
0.0
 20
0.0
 30
0.0
  9
$UCSORGFRONT
 10
0.0
 20
0.0
 30
0.0
  9
$UCSORGBACK
 10
0.0
 20
0.0
 30
0.0
  9
$PUCSBASE
  2

  9
$PUCSNAME
  2

  9
$PUCSORG
 10
0.0
 20
0.0
 30
0.0
  9
$PUCSXDIR
 10
1.0
 20
0.0
 30
0.0
  9
$PUCSYDIR
 10
0.0
 20
1.0
 30
0.0
  9
$PUCSORTHOREF
  2

  9
$PUCSORTHOVIEW
 70
     0
  9
$PUCSORGTOP
 10
0.0
 20
0.0
 30
0.0
  9
$PUCSORGBOTTOM
 10
0.0
 20
0.0
 30
0.0
  9
$PUCSORGLEFT
 10
0.0
 20
0.0
 30
0.0
  9
$PUCSORGRIGHT
 10
0.0
 20
0.0
 30
0.0
  9
$PUCSORGFRONT
 10
0.0
 20
0.0
 30
0.0
  9
$PUCSORGBACK
 10
0.0
 20
0.0
 30
0.0
  9
$USERI1
 70
     0
  9
$USERI2
 70
     0
  9
$USERI3
 70
     0
  9
$USERI4
 70
     0
  9
$USERI5
 70
     0
  9
$USERR1
 40
0.0
  9
$USERR2
 40
0.0
  9
$USERR3
 40
0.0
  9
$USERR4
 40
0.0
  9
$USERR5
 40
0.0
  9
$WORLDVIEW
 70
     1
  9
$SHADEDGE
 70
     3
  9
$SHADEDIF
 70
    70
  9
$TILEMODE
 70
     1
  9
$MAXACTVP
 70
    64
  9
$PINSBASE
 10
0.0
 20
0.0
 30
0.0
  9
$PLIMCHECK
 70
     0
  9
$PEXTMIN
 10
1.000000000000000E+20
 20
1.000000000000000E+20
 30
1.000000000000000E+20
  9
$PEXTMAX
 10
-1.000000000000000E+20
 20
-1.000000000000000E+20
 30
-1.000000000000000E+20
  9
$PLIMMIN
 10
0.0
 20
0.0
  9
$PLIMMAX
 10
12.0
 20
9.0
  9
$UNITMODE
 70
     0
  9
$VISRETAIN
 70
     1
  9
$PLINEGEN
 70
     0
  9
$PSLTSCALE
 70
     1
  9
$TREEDEPTH
 70
  3020
  9
$CMLSTYLE
  2
Standard
  9
$CMLJUST
 70
     0
  9
$CMLSCALE
 40
1.0
  9
$PROXYGRAPHICS
 70
     1
  9
$MEASUREMENT
 70
     0
  9
$CELWEIGHT
370
    -1
  9
$ENDCAPS
280
     0
  9
$JOINSTYLE
280
     0
  9
$LWDISPLAY
290
     1
  9
$INSUNITS
 70
     1
  9
$HYPERLINKBASE
  1

  9
$STYLESHEET
  1

  9
$XEDIT
290
     1
  9
$CEPSNTYPE
380
     0
  9
$PSTYLEMODE
290
     1
  9
$FINGERPRINTGUID
  2
{70ED1962-CE57-4438-9983-BCC613DFFB6C}
  9
$VERSIONGUID
  2
{FAEB1C32-E019-11D5-929B-00C0DF256EC4}
  9
$EXTNAMES
290
     1
  9
$PSVPSCALE
 40
0.0
  9
$OLESTARTUP
290
     0
  9
$SORTENTS
280
   127
  9
$INDEXCTL
280
     0
  9
$HIDETEXT
280
     1
  9
$XCLIPFRAME
290
     0
  9
$HALOGAP
280
     0
  9
$OBSCOLOR
 70
   257
  9
$OBSLTYPE
280
     0
  9
$INTERSECTIONDISPLAY
280
     0
  9
$INTERSECTIONCOLOR
 70
   257
  9
$DIMASSOC
280
     2
  9
$PROJECTNAME
  1

  0
ENDSEC
  0
SECTION
  2
CLASSES
  0
CLASS
  1
ACDBDICTIONARYWDFLT
  2
AcDbDictionaryWithDefault
  3
ObjectDBX Classes
 90
        0
 91
        3
280
     0
281
     0
  0
CLASS
  1
VISUALSTYLE
  2
AcDbVisualStyle
  3
ObjectDBX Classes
 90
     4095
 91
        3
280
     0
281
     0
  0
ENDSEC
  0
SECTION
  2
TABLES
  0
TABLE
  2
VPORT
  5
8
330
0
100
AcDbSymbolTable
 70
     1
  0
VPORT
  5
29
330
8
100
AcDbSymbolTableRecord
100
AcDbViewportTableRecord
  2
*Active
 70
     0
 10
0.0
 20
0.0
 11
1.0
 21
1.0
 12
0.0
 22
0.0
 13
0.0
 23
0.0
 14
0.5
 24
0.5
 15
0.5
 25
0.5
 16
0.0
 26
0.0
 36
1.0
 17
49.99918754175368
 27
-49.99918754175368
 37
0.0
 40
99.99837508350736
 41
1.0
 42
50.0
 43
0.0
 44
0.0
 50
0.0
 51
0.0
 71
     0
 72
   100
 73
     1
 74
     3
 75
     0
 76
     0
 77
     0
 78
     0
281
     0
 65
     1
110
0.0
120
0.0
130
0.0
111
1.0
121
0.0
131
0.0
112
0.0
122
1.0
132
0.0
 79
     0
146
0.0
  0
ENDTAB
  0
TABLE
  2
LTYPE
  5
5
330
0
100
AcDbSymbolTable
 70
     1
  0
LTYPE
  5
14
330
5
100
AcDbSymbolTableRecord
100
AcDbLinetypeTableRecord
  2
ByBlock
 70
     0
  3

 72
    65
 73
     0
 40
0.0
  0
LTYPE
  5
15
330
5
100
AcDbSymbolTableRecord
100
AcDbLinetypeTableRecord
  2
ByLayer
 70
     0
  3

 72
    65
 73
     0
 40
0.0
  0
LTYPE
  5
16
330
5
100
AcDbSymbolTableRecord
100
AcDbLinetypeTableRecord
  2
Continuous
 70
     0
  3
Solid line
 72
    65
 73
     0
 40
0.0
  0
ENDTAB
  0
TABLE
  2
LAYER
  5
2
330
0
100
AcDbSymbolTable
 70
     2
  0
LAYER
  5
10
330
2
100
AcDbSymbolTableRecord
100
AcDbLayerTableRecord
  2
0
 70
     0
 62
     7
  6
Continuous
370
    -3
390
F
  0
LAYER
  5
3B
330
2
100
AcDbSymbolTableRecord
100
AcDbLayerTableRecord
  2
Layer 1
 70
     0
 62
     7
  6
Continuous
370
    -3
390
F
  0
ENDTAB
  0
TABLE
  2
STYLE
  5
3
330
0
100
AcDbSymbolTable
 70
     1
  0
STYLE
  5
11
330
3
100
AcDbSymbolTableRecord
100
AcDbTextStyleTableRecord
  2
Standard
 70
     0
 40
0.0
 41
1.0
 50
0.0
 71
     0
 42
0.2
  3
txt
  4

  0
ENDTAB
  0
TABLE
  2
VIEW
  5
6
330
0
100
AcDbSymbolTable
 70
     0
  0
ENDTAB
  0
TABLE
  2
UCS
  5
7
330
0
100
AcDbSymbolTable
 70
     0
  0
ENDTAB
  0
TABLE
  2
APPID
  5
9
330
0
100
AcDbSymbolTable
 70
     1
  0
APPID
  5
12
330
9
100
AcDbSymbolTableRecord
100
AcDbRegAppTableRecord
  2
ACAD
 70
     0
  0
ENDTAB
  0
TABLE
  2
DIMSTYLE
  5
A
330
0
100
AcDbSymbolTable
 70
     1
100
AcDbDimStyleTable
  0
DIMSTYLE
105
27
330
A
100
AcDbSymbolTableRecord
100
AcDbDimStyleTableRecord
  2
Standard
 70
     0
340
11
  0
ENDTAB
  0
TABLE
  2
BLOCK_RECORD
  5
1
330
0
100
AcDbSymbolTable
 70
     1
  0
BLOCK_RECORD
  5
1F
330
1
100
AcDbSymbolTableRecord
100
AcDbBlockTableRecord
  2
*Model_Space
340
22
  0
BLOCK_RECORD
  5
1B
330
1
100
AcDbSymbolTableRecord
100
AcDbBlockTableRecord
  2
*Paper_Space
340
1E
  0
BLOCK_RECORD
  5
23
330
1
100
AcDbSymbolTableRecord
100
AcDbBlockTableRecord
  2
*Paper_Space0
340
26
  0
ENDTAB
  0
ENDSEC
  0
SECTION
  2
BLOCKS
  0
BLOCK
  5
20
330
1F
100
AcDbEntity
  8
0
100
AcDbBlockBegin
  2
*Model_Space
 70
     0
 71
     0
 10
0.0
 20
0.0
 30
0.0
  3
*Model_Space
  1

  0
ENDBLK
  5
21
330
1F
100
AcDbEntity
  8
0
100
AcDbBlockEnd
  0
BLOCK
  5
1C
330
1B
100
AcDbEntity
 67
     1
  8
0
100
AcDbBlockBegin
  2
*Paper_Space
 70
     0
 71
     0
 10
0.0
 20
0.0
 30
0.0
  3
*Paper_Space
  1

  0
ENDBLK
  5
1D
330
1B
100
AcDbEntity
 67
     1
  8
0
100
AcDbBlockEnd
  0
BLOCK
  5
24
330
23
100
AcDbEntity
  8
0
100
AcDbBlockBegin
  2
*Paper_Space0
 70
     0
 71
     0
 10
0.0
 20
0.0
 30
0.0
  3
*Paper_Space0
  1

  0
ENDBLK
  5
25
330
23
100
AcDbEntity
  8
0
100
AcDbBlockEnd
  0
ENDSEC
  0
SECTION
  2
ENTITIES
  0
SPLINE
  5
3C
330
1F
100
AcDbEntity
  8
Layer 1
370
     0
100
AcDbSpline
210
0.0
220
0.0
230
1.0
 70
    11
 71
     3
 72
   116
 73
   112
 74
     0
 42
0.0000000001
 43
0.0000000001
 40
0.0
 40
0.0
 40
0.0
 40
0.0
 40
1.0
 40
1.0
 40
1.0
 40
2.0
 40
2.0
 40
2.0
 40
3.0
 40
3.0
 40
3.0
 40
4.0
 40
4.0
 40
4.0
 40
5.0
 40
5.0
 40
5.0
 40
6.0
 40
6.0
 40
6.0
 40
7.0
 40
7.0
 40
7.0
 40
8.0
 40
8.0
 40
8.0
 40
9.0
 40
9.0
 40
9.0
 40
10.0
 40
10.0
 40
10.0
 40
11.0
 40
11.0
 40
11.0
 40
12.0
 40
12.0
 40
12.0
 40
13.0
 40
13.0
 40
13.0
 40
14.0
 40
14.0
 40
14.0
 40
15.0
 40
15.0
 40
15.0
 40
16.0
 40
16.0
 40
16.0
 40
17.0
 40
17.0
 40
17.0
 40
18.0
 40
18.0
 40
18.0
 40
19.0
 40
19.0
 40
19.0
 40
20.0
 40
20.0
 40
20.0
 40
21.0
 40
21.0
 40
21.0
 40
22.0
 40
22.0
 40
22.0
 40
23.0
 40
23.0
 40
23.0
 40
24.0
 40
24.0
 40
24.0
 40
25.0
 40
25.0
 40
25.0
 40
26.0
 40
26.0
 40
26.0
 40
27.0
 40
27.0
 40
27.0
 40
28.0
 40
28.0
 40
28.0
 40
29.0
 40
29.0
 40
29.0
 40
30.0
 40
30.0
 40
30.0
 40
31.0
 40
31.0
 40
31.0
 40
32.0
 40
32.0
 40
32.0
 40
33.0
 40
33.0
 40
33.0
 40
34.0
 40
34.0
 40
34.0
 40
35.0
 40
35.0
 40
35.0
 40
36.0
 40
36.0
 40
36.0
 40
37.0
 40
37.0
 40
37.0
 40
37.0
 10
70.33541393640921
 20
-50.33835719227653
 30
0.0
 10
70.33541393640921
 20
-50.33835719227653
 30
0.0
 10
70.32611217859903
 20
-36.11975910555339
 30
0.0
 10
70.32611217859903
 20
-36.11975910555339
 30
0.0
 10
70.32611217859903
 20
-35.82933755614683
 30
0.0
 10
70.09046764740795
 20
-35.59265949631017
 30
0.0
 10
69.79866805980728
 20
-35.59265949631017
 30
0.0
 10
69.79866805980728
 20
-35.59265949631017
 30
0.0
 10
69.79866805980728
 20
-35.59265949631017
 30
0.0
 10
69.79866805980728
 20
-35.59265949631017
 30
0.0
 10
69.67326658414419
 20
-35.59265949631017
 30
0.0
 10
69.56267901906767
 20
-35.64330239994334
 30
0.0
 10
69.47207300780559
 20
-35.71633842423064
 30
0.0
 10
69.47207300780559
 20
-35.71633842423064
 30
0.0
 10
35.23505858494124
 20
-46.04507919855818
 30
0.0
 10
35.23505858494124
 20
-46.04507919855818
 30
0.0
 10
35.22679035577664
 20
-46.04507919855818
 30
0.0
 10
35.21714408841794
 20
-46.03956704578178
 30
0.0
 10
35.20749782105923
 20
-46.03956704578178
 30
0.0
 10
34.91673176210415
 20
-46.03956704578178
 30
0.0
 10
34.67936468317044
 20
-46.27590059606992
 30
0.0
 10
34.67936468317044
 20
-46.56735567412206
 30
0.0
 10
34.67936468317044
 20
-46.56735567412206
 30
0.0
 10
34.67936468317044
 20
-59.82752819684868
 30
0.0
 10
34.67936468317044
 20
-59.82752819684868
 30
0.0
 10
33.9686414845634
 20
-59.51574705543356
 30
0.0
 10
33.01228297785804
 20
-59.52573783234079
 30
0.0
 10
32.10036620291241
 20
-59.9284694945665
 30
0.0
 10
30.63275552619598
 20
-60.58234861766692
 30
0.0
 10
29.83900552639442
 20
-62.003795014881
 30
0.0
 10
30.32476398981465
 20
-63.10725909880652
 30
0.0
 10
30.81327852962307
 20
-64.20900063498942
 30
0.0
 10
32.40181205787177
 20
-64.57349173732885
 30
0.0
 10
33.8721788109764
 20
-63.92236869061664
 30
0.0
 10
35.21232095473859
 20
-63.32636717166841
 30
0.0
 10
35.9805772479493
 20
-62.09474553569159
 30
0.0
 10
35.73390841120541
 20
-61.04640297953007
 30
0.0
 10
35.73390841120541
 20
-61.04640297953007
 30
0.0
 10
35.73390841120541
 20
-51.9334364019472
 30
0.0
 10
35.73390841120541
 20
-51.9334364019472
 30
0.0
 10
35.73390841120541
 20
-51.9334364019472
 30
0.0
 10
46.76372611678129
 20
-48.57446830382861
 30
0.0
 10
46.76372611678129
 20
-48.57446830382861
 30
0.0
 10
46.76372611678129
 20
-48.57446830382861
 30
0.0
 10
46.76372611678129
 20
-56.72969833651202
 30
0.0
 10
46.76372611678129
 20
-56.72969833651202
 30
0.0
 10
46.04507919855818
 20
-56.38449976888999
 30
0.0
 10
45.05564777519442
 20
-56.37795408746801
 30
0.0
 10
44.11444768862417
 20
-56.79549966028029
 30
0.0
 10
42.64270289732544
 20
-57.44593368789546
 30
0.0
 10
41.85033093571798
 20
-58.86841361375512
 30
0.0
 10
42.33643390868673
 20
-59.97118867858359
 30
0.0
 10
42.82391491984958
 20
-61.07568629115469
 30
0.0
 10
44.41210393854976
 20
-61.4384548457515
 30
0.0
 10
45.88281520120291
 20
-60.78767630858781
 30
0.0
 10
46.94666068704806
 20
-60.31569822710858
 30
0.0
 10
47.64877114694198
 20
-59.44236652159775
 30
0.0
 10
47.77486164170212
 20
-58.57695853570299
 30
0.0
 10
47.77486164170212
 20
-58.57695853570299
 30
0.0
 10
47.81792533526774
 20
-58.57695853570299
 30
0.0
 10
47.81792533526774
 20
-58.57695853570299
 30
0.0
 10
47.81792533526774
 20
-58.57695853570299
 30
0.0
 10
47.81792533526774
 20
-48.25407442370037
 30
0.0
 10
47.81792533526774
 20
-48.25407442370037
 30
0.0
 10
47.81792533526774
 20
-48.25407442370037
 30
0.0
 10
57.68157821908655
 20
-45.24926214146546
 30
0.0
 10
57.68157821908655
 20
-45.24926214146546
 30
0.0
 10
57.68157821908655
 20
-45.24926214146546
 30
0.0
 10
57.68157821908655
 20
-52.99555934004972
 30
0.0
 10
57.68157821908655
 20
-52.99555934004972
 30
0.0
 10
56.96913247273689
 20
-52.68102212224641
 30
0.0
 10
56.01070690874038
 20
-52.69239093734774
 30
0.0
 10
55.09844562424622
 20
-53.09718965686459
 30
0.0
 10
53.62773436159307
 20
-53.75003525131944
 30
0.0
 10
52.83467338088855
 20
-55.17044811988794
 30
0.0
 10
53.32077635385731
 20
-56.27253416561937
 30
0.0
 10
53.80894638411721
 20
-57.37668726864194
 30
0.0
 10
55.39713540281738
 20
-57.7387668041417
 30
0.0
 10
56.86681313682497
 20
-57.08902179562358
 30
0.0
 10
57.84935436921822
 20
-56.65390623583652
 30
0.0
 10
58.51942544109932
 20
-55.87565916571859
 30
0.0
 10
58.7164849028556
 20
-55.07708603223767
 30
0.0
 10
58.7164849028556
 20
-55.07708603223767
 30
0.0
 10
58.73612194712153
 20
-55.07708603223767
 30
0.0
 10
58.73612194712153
 20
-55.07708603223767
 30
0.0
 10
58.73612194712153
 20
-55.07708603223767
 30
0.0
 10
58.73612194712153
 20
-54.98854707826676
 30
0.0
 10
58.73612194712153
 20
-54.98854707826676
 30
0.0
 10
58.78779837940028
 20
-54.73188746461564
 30
0.0
 10
58.79124347488553
 20
-54.47695039870715
 30
0.0
 10
58.73612194712153
 20
-54.22924803331769
 30
0.0
 10
58.73612194712153
 20
-54.22924803331769
 30
0.0
 10
58.73612194712153
 20
-44.92783473269166
 30
0.0
 10
58.73612194712153
 20
-44.92783473269166
 30
0.0
 10
58.73612194712153
 20
-44.92783473269166
 30
0.0
 10
69.27501354604931
 20
-41.71803926908438
 30
0.0
 10
69.27501354604931
 20
-41.71803926908438
 30
0.0
 10
69.27501354604931
 20
-41.71803926908438
 30
0.0
 10
69.2805256988257
 20
-49.10535751810561
 30
0.0
 10
69.2805256988257
 20
-49.10535751810561
 30
0.0
 10
68.56807995247604
 20
-48.79288735759345
 30
0.0
 10
67.6106879171251
 20
-48.8032226440492
 30
0.0
 10
66.69877114217948
 20
-49.20836587311458
 30
0.0
 10
65.22805987952633
 20
-49.86155597711794
 30
0.0
 10
64.4349988988218
 20
-51.2812798265894
 30
0.0
 10
64.92110187179055
 20
-52.3843994009664
 30
0.0
 10
65.40961641159899
 20
-53.48820799444045
 30
0.0
 10
66.99711641120211
 20
-53.84994302039168
 30
0.0
 10
68.46886120250085
 20
-53.19950899277652
 30
0.0
 10
69.80314668393811
 20
-52.60867511705617
 30
0.0
 10
70.57036944850324
 20
-51.38497720069542
 30
0.0
 10
70.33541393640921
 20
-50.33835719227653
 30
0.0
  0
POLYLINE
  5
3D
330
1F
100
AcDbEntity
  8
Layer 1
370
     0
100
AcDb2dPolyline
 66
     1
 10
0.0
 20
0.0
 30
0.0
  0
VERTEX
  5
3E
330
3D
100
AcDbEntity
  8
Layer 1
370
     0
100
AcDbVertex
100
AcDb2dVertex
 10
35.73390841120541
 20
-50.28082409767285
 30
0.0
  0
VERTEX
  5
3F
330
3D
100
AcDbEntity
  8
Layer 1
370
     0
100
AcDbVertex
100
AcDb2dVertex
 10
35.73390841120541
 20
-47.54645181103005
 30
0.0
  0
VERTEX
  5
40
330
3D
100
AcDbEntity
  8
Layer 1
370
     0
100
AcDbVertex
100
AcDb2dVertex
 10
46.76372611678129
 20
-44.21952310092428
 30
0.0
  0
VERTEX
  5
41
330
3D
100
AcDbEntity
  8
Layer 1
370
     0
100
AcDbVertex
100
AcDb2dVertex
 10
46.76372611678129
 20
-46.92116698045721
 30
0.0
  0
VERTEX
  5
42
330
3D
100
AcDbEntity
  8
Layer 1
370
     0
100
AcDbVertex
100
AcDb2dVertex
 10
35.73390841120541
 20
-50.28082409767285
 30
0.0
  0
SEQEND
  5
43
330
3D
100
AcDbEntity
  8
Layer 1
370
     0
  0
POLYLINE
  5
44
330
1F
100
AcDbEntity
  8
Layer 1
370
     0
100
AcDb2dPolyline
 66
     1
 10
0.0
 20
0.0
 30
0.0
  0
VERTEX
  5
45
330
44
100
AcDbEntity
  8
Layer 1
370
     0
100
AcDbVertex
100
AcDb2dVertex
 10
47.81792533526774
 20
-46.60008408123193
 30
0.0
  0
VERTEX
  5
46
330
44
100
AcDbEntity
  8
Layer 1
370
     0
100
AcDbVertex
100
AcDb2dVertex
 10
47.81792533526774
 20
-43.9025743162813
 30
0.0
  0
VERTEX
  5
47
330
44
100
AcDbEntity
  8
Layer 1
370
     0
100
AcDbVertex
100
AcDb2dVertex
 10
57.68157821908655
 20
-40.92532279792839
 30
0.0
  0
VERTEX
  5
48
330
44
100
AcDbEntity
  8
Layer 1
370
     0
100
AcDbVertex
100
AcDb2dVertex
 10
57.68157821908655
 20
-43.59492728944849
 30
0.0
  0
VERTEX
  5
49
330
44
100
AcDbEntity
  8
Layer 1
370
     0
100
AcDbVertex
100
AcDb2dVertex
 10
47.81792533526774
 20
-46.60008408123193
 30
0.0
  0
SEQEND
  5
4A
330
44
100
AcDbEntity
  8
Layer 1
370
     0
  0
POLYLINE
  5
4B
330
1F
100
AcDbEntity
  8
Layer 1
370
     0
100
AcDb2dPolyline
 66
     1
 10
0.0
 20
0.0
 30
0.0
  0
VERTEX
  5
4C
330
4B
100
AcDbEntity
  8
Layer 1
370
     0
100
AcDbVertex
100
AcDb2dVertex
 10
58.73612194712153
 20
-43.27418889977173
 30
0.0
  0
VERTEX
  5
4D
330
4B
100
AcDbEntity
  8
Layer 1
370
     0
100
AcDbVertex
100
AcDb2dVertex
 10
58.73612194712153
 20
-40.60665146554278
 30
0.0
  0
VERTEX
  5
4E
330
4B
100
AcDbEntity
  8
Layer 1
370
     0
100
AcDbVertex
100
AcDb2dVertex
 10
69.27329099830668
 20
-37.42889538994833
 30
0.0
  0
VERTEX
  5
4F
330
4B
100
AcDbEntity
  8
Layer 1
370
     0
100
AcDbVertex
100
AcDb2dVertex
 10
69.27466903650078
 20
-40.06370441706741
 30
0.0
  0
VERTEX
  5
50
330
4B
100
AcDbEntity
  8
Layer 1
370
     0
100
AcDbVertex
100
AcDb2dVertex
 10
58.73612194712153
 20
-43.27418889977173
 30
0.0
  0
SEQEND
  5
51
330
4B
100
AcDbEntity
  8
Layer 1
370
     0
  0
HATCH
  5
52
330
1F
100
AcDbEntity
  8
Layer 1
 62
   250
420
  2301728
100
AcDbHatch
 10
0.0
 20
0.0
 30
0.0
210
0.0
220
0.0
230
1.0
  2
SOLID
 70
     1
 71
     0
 91
        4
 92
        1
 93
        1
 72
     4
 94
        3
 73
     0
 74
     1
 95
      116
 96
      112
 40
0.0
 40
0.0
 40
0.0
 40
0.0
 40
1.0
 40
1.0
 40
1.0
 40
2.0
 40
2.0
 40
2.0
 40
3.0
 40
3.0
 40
3.0
 40
4.0
 40
4.0
 40
4.0
 40
5.0
 40
5.0
 40
5.0
 40
6.0
 40
6.0
 40
6.0
 40
7.0
 40
7.0
 40
7.0
 40
8.0
 40
8.0
 40
8.0
 40
9.0
 40
9.0
 40
9.0
 40
10.0
 40
10.0
 40
10.0
 40
11.0
 40
11.0
 40
11.0
 40
12.0
 40
12.0
 40
12.0
 40
13.0
 40
13.0
 40
13.0
 40
14.0
 40
14.0
 40
14.0
 40
15.0
 40
15.0
 40
15.0
 40
16.0
 40
16.0
 40
16.0
 40
17.0
 40
17.0
 40
17.0
 40
18.0
 40
18.0
 40
18.0
 40
19.0
 40
19.0
 40
19.0
 40
20.0
 40
20.0
 40
20.0
 40
21.0
 40
21.0
 40
21.0
 40
22.0
 40
22.0
 40
22.0
 40
23.0
 40
23.0
 40
23.0
 40
24.0
 40
24.0
 40
24.0
 40
25.0
 40
25.0
 40
25.0
 40
26.0
 40
26.0
 40
26.0
 40
27.0
 40
27.0
 40
27.0
 40
28.0
 40
28.0
 40
28.0
 40
29.0
 40
29.0
 40
29.0
 40
30.0
 40
30.0
 40
30.0
 40
31.0
 40
31.0
 40
31.0
 40
32.0
 40
32.0
 40
32.0
 40
33.0
 40
33.0
 40
33.0
 40
34.0
 40
34.0
 40
34.0
 40
35.0
 40
35.0
 40
35.0
 40
36.0
 40
36.0
 40
36.0
 40
37.0
 40
37.0
 40
37.0
 40
37.0
 10
70.33541393640921
 20
-50.33835719227653
 10
70.33541393640921
 20
-50.33835719227653
 10
70.32611217859903
 20
-36.11975910555339
 10
70.32611217859903
 20
-36.11975910555339
 10
70.32611217859903
 20
-35.82933755614683
 10
70.09046764740795
 20
-35.59265949631017
 10
69.79866805980728
 20
-35.59265949631017
 10
69.79866805980728
 20
-35.59265949631017
 10
69.79866805980728
 20
-35.59265949631017
 10
69.79866805980728
 20
-35.59265949631017
 10
69.67326658414419
 20
-35.59265949631017
 10
69.56267901906767
 20
-35.64330239994334
 10
69.47207300780559
 20
-35.71633842423064
 10
69.47207300780559
 20
-35.71633842423064
 10
35.23505858494124
 20
-46.04507919855818
 10
35.23505858494124
 20
-46.04507919855818
 10
35.22679035577664
 20
-46.04507919855818
 10
35.21714408841794
 20
-46.03956704578178
 10
35.20749782105923
 20
-46.03956704578178
 10
34.91673176210415
 20
-46.03956704578178
 10
34.67936468317044
 20
-46.27590059606992
 10
34.67936468317044
 20
-46.56735567412206
 10
34.67936468317044
 20
-46.56735567412206
 10
34.67936468317044
 20
-59.82752819684868
 10
34.67936468317044
 20
-59.82752819684868
 10
33.9686414845634
 20
-59.51574705543356
 10
33.01228297785804
 20
-59.52573783234079
 10
32.10036620291241
 20
-59.9284694945665
 10
30.63275552619598
 20
-60.58234861766692
 10
29.83900552639442
 20
-62.003795014881
 10
30.32476398981465
 20
-63.10725909880652
 10
30.81327852962307
 20
-64.20900063498942
 10
32.40181205787177
 20
-64.57349173732885
 10
33.8721788109764
 20
-63.92236869061664
 10
35.21232095473859
 20
-63.32636717166841
 10
35.9805772479493
 20
-62.09474553569159
 10
35.73390841120541
 20
-61.04640297953007
 10
35.73390841120541
 20
-61.04640297953007
 10
35.73390841120541
 20
-51.9334364019472
 10
35.73390841120541
 20
-51.9334364019472
 10
35.73390841120541
 20
-51.9334364019472
 10
46.76372611678129
 20
-48.57446830382861
 10
46.76372611678129
 20
-48.57446830382861
 10
46.76372611678129
 20
-48.57446830382861
 10
46.76372611678129
 20
-56.72969833651202
 10
46.76372611678129
 20
-56.72969833651202
 10
46.04507919855818
 20
-56.38449976888999
 10
45.05564777519442
 20
-56.37795408746801
 10
44.11444768862417
 20
-56.79549966028029
 10
42.64270289732544
 20
-57.44593368789546
 10
41.85033093571798
 20
-58.86841361375512
 10
42.33643390868673
 20
-59.97118867858359
 10
42.82391491984958
 20
-61.07568629115469
 10
44.41210393854976
 20
-61.4384548457515
 10
45.88281520120291
 20
-60.78767630858781
 10
46.94666068704806
 20
-60.31569822710858
 10
47.64877114694198
 20
-59.44236652159775
 10
47.77486164170212
 20
-58.57695853570299
 10
47.77486164170212
 20
-58.57695853570299
 10
47.81792533526774
 20
-58.57695853570299
 10
47.81792533526774
 20
-58.57695853570299
 10
47.81792533526774
 20
-58.57695853570299
 10
47.81792533526774
 20
-48.25407442370037
 10
47.81792533526774
 20
-48.25407442370037
 10
47.81792533526774
 20
-48.25407442370037
 10
57.68157821908655
 20
-45.24926214146546
 10
57.68157821908655
 20
-45.24926214146546
 10
57.68157821908655
 20
-45.24926214146546
 10
57.68157821908655
 20
-52.99555934004972
 10
57.68157821908655
 20
-52.99555934004972
 10
56.96913247273689
 20
-52.68102212224641
 10
56.01070690874038
 20
-52.69239093734774
 10
55.09844562424622
 20
-53.09718965686459
 10
53.62773436159307
 20
-53.75003525131944
 10
52.83467338088855
 20
-55.17044811988794
 10
53.32077635385731
 20
-56.27253416561937
 10
53.80894638411721
 20
-57.37668726864194
 10
55.39713540281738
 20
-57.7387668041417
 10
56.86681313682497
 20
-57.08902179562358
 10
57.84935436921822
 20
-56.65390623583652
 10
58.51942544109932
 20
-55.87565916571859
 10
58.7164849028556
 20
-55.07708603223767
 10
58.7164849028556
 20
-55.07708603223767
 10
58.73612194712153
 20
-55.07708603223767
 10
58.73612194712153
 20
-55.07708603223767
 10
58.73612194712153
 20
-55.07708603223767
 10
58.73612194712153
 20
-54.98854707826676
 10
58.73612194712153
 20
-54.98854707826676
 10
58.78779837940028
 20
-54.73188746461564
 10
58.79124347488553
 20
-54.47695039870715
 10
58.73612194712153
 20
-54.22924803331769
 10
58.73612194712153
 20
-54.22924803331769
 10
58.73612194712153
 20
-44.92783473269166
 10
58.73612194712153
 20
-44.92783473269166
 10
58.73612194712153
 20
-44.92783473269166
 10
69.27501354604931
 20
-41.71803926908438
 10
69.27501354604931
 20
-41.71803926908438
 10
69.27501354604931
 20
-41.71803926908438
 10
69.2805256988257
 20
-49.10535751810561
 10
69.2805256988257
 20
-49.10535751810561
 10
68.56807995247604
 20
-48.79288735759345
 10
67.6106879171251
 20
-48.8032226440492
 10
66.69877114217948
 20
-49.20836587311458
 10
65.22805987952633
 20
-49.86155597711794
 10
64.4349988988218
 20
-51.2812798265894
 10
64.92110187179055
 20
-52.3843994009664
 10
65.40961641159899
 20
-53.48820799444045
 10
66.99711641120211
 20
-53.84994302039168
 10
68.46886120250085
 20
-53.19950899277652
 10
69.80314668393811
 20
-52.60867511705617
 10
70.57036944850324
 20
-51.38497720069542
 10
70.33541393640921
 20
-50.33835719227653
 97
        0
 92
        1
 93
        4
 72
     1
 10
35.73390841120541
 20
-50.28082409767285
 11
35.73390841120541
 21
-47.54645181103005
 72
     1
 10
35.73390841120541
 20
-47.54645181103005
 11
46.76372611678129
 21
-44.21952310092428
 72
     1
 10
46.76372611678129
 20
-44.21952310092428
 11
46.76372611678129
 21
-46.92116698045721
 72
     1
 10
46.76372611678129
 20
-46.92116698045721
 11
35.73390841120541
 21
-50.28082409767285
 97
        0
 92
        1
 93
        4
 72
     1
 10
47.81792533526774
 20
-46.60008408123193
 11
47.81792533526774
 21
-43.9025743162813
 72
     1
 10
47.81792533526774
 20
-43.9025743162813
 11
57.68157821908655
 21
-40.92532279792839
 72
     1
 10
57.68157821908655
 20
-40.92532279792839
 11
57.68157821908655
 21
-43.59492728944849
 72
     1
 10
57.68157821908655
 20
-43.59492728944849
 11
47.81792533526774
 21
-46.60008408123193
 97
        0
 92
        1
 93
        4
 72
     1
 10
58.73612194712153
 20
-43.27418889977173
 11
58.73612194712153
 21
-40.60665146554278
 72
     1
 10
58.73612194712153
 20
-40.60665146554278
 11
69.27329099830668
 21
-37.42889538994833
 72
     1
 10
69.27329099830668
 20
-37.42889538994833
 11
69.27466903650078
 21
-40.06370441706741
 72
     1
 10
69.27466903650078
 20
-40.06370441706741
 11
58.73612194712153
 21
-43.27418889977173
 97
        0
 75
     2
 76
     1
 98
        0
  0
ENDSEC
  0
SECTION
  2
OBJECTS
  0
DICTIONARY
  5
C
330
0
100
AcDbDictionary
281
     1
  3
ACAD_GROUP
350
D
  3
ACAD_LAYOUT
350
1A
  3
ACAD_MLINESTYLE
350
17
  3
ACAD_PLOTSETTINGS
350
19
  3
ACAD_PLOTSTYLENAME
350
E
  3
ACAD_TABLESTYLE
350
53
  3
ACAD_VISUALSTYLE
350
2A
  0
DICTIONARY
  5
D
102
{ACAD_REACTORS
330
C
102
}
330
C
100
AcDbDictionary
281
     1
  0
DICTIONARY
  5
1A
102
{ACAD_REACTORS
330
C
102
}
330
C
100
AcDbDictionary
281
     1
  3
Layout1
350
1E
  3
Layout2
350
26
  3
Model
350
22
  0
DICTIONARY
  5
17
102
{ACAD_REACTORS
330
C
102
}
330
C
100
AcDbDictionary
281
     1
  3
Standard
350
18
  0
DICTIONARY
  5
19
102
{ACAD_REACTORS
330
C
102
}
330
C
100
AcDbDictionary
281
     1
  0
ACDBDICTIONARYWDFLT
  5
E
102
{ACAD_REACTORS
330
C
102
}
330
C
100
AcDbDictionary
281
     1
  3
Normal
350
F
100
AcDbDictionaryWithDefault
340
F
  0
DICTIONARY
  5
53
102
{ACAD_REACTORS
330
C
102
}
330
C
100
AcDbDictionary
281
     1
  0
DICTIONARY
  5
2A
102
{ACAD_REACTORS
330
C
102
}
330
C
100
AcDbDictionary
281
     1
  3
2dWireframe
350
2F
  3
3D Hidden
350
31
  3
3dWireframe
350
30
  3
Basic
350
32
  3
Brighten
350
36
  3
ColorChange
350
3A
  3
Conceptual
350
34
  3
Dim
350
35
  3
Facepattern
350
39
  3
Flat
350
2B
  3
FlatWithEdges
350
2C
  3
Gouraud
350
2D
  3
GouraudWithEdges
350
2E
  3
Linepattern
350
38
  3
Realistic
350
33
  3
Thicken
350
37
  0
LAYOUT
  5
1E
102
{ACAD_REACTORS
330
1A
102
}
330
1A
100
AcDbPlotSettings
  1

  2
none_device
  4

  6

 40
0.0
 41
0.0
 42
0.0
 43
0.0
 44
0.0
 45
0.0
 46
0.0
 47
0.0
 48
0.0
 49
0.0
140
0.0
141
0.0
142
1.0
143
1.0
 70
   688
 72
     0
 73
     0
 74
     5
  7

 75
    16
 76
     0
 77
     2
 78
   300
147
1.0
148
0.0
149
0.0
100
AcDbLayout
  1
Layout1
 70
     1
 71
     1
 10
0.0
 20
0.0
 11
12.0
 21
9.0
 12
0.0
 22
0.0
 32
0.0
 14
1.000000000000000E+20
 24
1.000000000000000E+20
 34
1.000000000000000E+20
 15
-1.000000000000000E+20
 25
-1.000000000000000E+20
 35
-1.000000000000000E+20
146
0.0
 13
0.0
 23
0.0
 33
0.0
 16
1.0
 26
0.0
 36
0.0
 17
0.0
 27
1.0
 37
0.0
 76
     0
330
1B
  0
LAYOUT
  5
26
102
{ACAD_REACTORS
330
1A
102
}
330
1A
100
AcDbPlotSettings
  1

  2
none_device
  4

  6

 40
0.0
 41
0.0
 42
0.0
 43
0.0
 44
0.0
 45
0.0
 46
0.0
 47
0.0
 48
0.0
 49
0.0
140
0.0
141
0.0
142
1.0
143
1.0
 70
   688
 72
     0
 73
     0
 74
     5
  7

 75
    16
 76
     0
 77
     2
 78
   300
147
1.0
148
0.0
149
0.0
100
AcDbLayout
  1
Layout2
 70
     1
 71
     2
 10
0.0
 20
0.0
 11
0.0
 21
0.0
 12
0.0
 22
0.0
 32
0.0
 14
0.0
 24
0.0
 34
0.0
 15
0.0
 25
0.0
 35
0.0
146
0.0
 13
0.0
 23
0.0
 33
0.0
 16
1.0
 26
0.0
 36
0.0
 17
0.0
 27
1.0
 37
0.0
 76
     0
330
23
  0
LAYOUT
  5
22
102
{ACAD_REACTORS
330
1A
102
}
330
1A
100
AcDbPlotSettings
  1

  2
none_device
  4

  6

 40
0.0
 41
0.0
 42
0.0
 43
0.0
 44
0.0
 45
0.0
 46
0.0
 47
0.0
 48
0.0
 49
0.0
140
0.0
141
0.0
142
1.0
143
1.0
 70
  1712
 72
     0
 73
     0
 74
     0
  7

 75
     0
 76
     0
 77
     2
 78
   300
147
1.0
148
0.0
149
0.0
100
AcDbLayout
  1
Model
 70
     1
 71
     0
 10
0.0
 20
0.0
 11
12.0
 21
9.0
 12
0.0
 22
0.0
 32
0.0
 14
1.000000000000000E+20
 24
1.000000000000000E+20
 34
1.000000000000000E+20
 15
-1.000000000000000E+20
 25
-1.000000000000000E+20
 35
-1.000000000000000E+20
146
0.0
 13
0.0
 23
0.0
 33
0.0
 16
1.0
 26
0.0
 36
0.0
 17
0.0
 27
1.0
 37
0.0
 76
     0
330
1F
331
29
  0
MLINESTYLE
  5
18
102
{ACAD_REACTORS
330
17
102
}
330
17
100
AcDbMlineStyle
  2
Standard
 70
     0
  3

 62
   256
 51
90.0
 52
90.0
 71
     2
 49
0.5
 62
   256
  6
BYLAYER
 49
-0.5
 62
   256
  6
BYLAYER
  0
ACDBPLACEHOLDER
  5
F
102
{ACAD_REACTORS
330
E
102
}
330
E
  0
VISUALSTYLE
  5
2F
102
{ACAD_REACTORS
330
2A
102
}
330
2A
100
AcDbVisualStyle
  2
2dWireframe
 70
     4
 71
     0
 72
     2
 73
     0
 90
        0
 40
-0.6
 41
-30.0
 62
     5
 63
     7
421
 16777215
 74
     1
 91
        4
 64
     7
 65
   257
 75
     1
175
     1
 42
1.0
 92
        0
 66
   257
 43
1.0
 76
     1
 77
     6
 78
     2
 67
     7
 79
     5
170
     0
171
     0
290
     0
174
     0
 93
        1
 44
0.0
173
     0
291
     0
 45
0.0
1001
ACAD
1000
AcDbSavedByObjectVersion
1070
     0
  0
VISUALSTYLE
  5
31
102
{ACAD_REACTORS
330
2A
102
}
330
2A
100
AcDbVisualStyle
  2
3D Hidden
 70
     6
 71
     1
 72
     2
 73
     2
 90
        0
 40
-0.6
 41
-30.0
 62
     5
 63
     7
421
 16777215
 74
     2
 91
        2
 64
     7
 65
   257
 75
     2
175
     1
 42
40.0
 92
        0
 66
   257
 43
1.0
 76
     1
 77
     6
 78
     2
 67
     7
 79
     3
170
     0
171
     0
290
     0
174
     0
 93
        1
 44
0.0
173
     0
291
     0
 45
0.0
1001
ACAD
1000
AcDbSavedByObjectVersion
1070
     0
  0
VISUALSTYLE
  5
30
102
{ACAD_REACTORS
330
2A
102
}
330
2A
100
AcDbVisualStyle
  2
3dWireframe
 70
     5
 71
     0
 72
     2
 73
     0
 90
        0
 40
-0.6
 41
-30.0
 62
     5
 63
     7
421
 16777215
 74
     1
 91
        4
 64
     7
 65
   257
 75
     1
175
     1
 42
1.0
 92
        0
 66
   257
 43
1.0
 76
     1
 77
     6
 78
     2
 67
     7
 79
     5
170
     0
171
     0
290
     0
174
     0
 93
        1
 44
0.0
173
     0
291
     0
 45
0.0
1001
ACAD
1000
AcDbSavedByObjectVersion
1070
     0
  0
VISUALSTYLE
  5
32
102
{ACAD_REACTORS
330
2A
102
}
330
2A
100
AcDbVisualStyle
  2
Basic
 70
     7
 71
     1
 72
     0
 73
     1
 90
        0
 40
-0.6
 41
-30.0
 62
     5
 63
     7
421
 16777215
 74
     0
 91
        4
 64
     7
 65
   257
 75
     1
175
     1
 42
1.0
 92
        8
 66
     7
 43
1.0
 76
     1
 77
     6
 78
     2
 67
     7
 79
     5
170
     0
171
     0
290
     0
174
     0
 93
        1
 44
0.0
173
     0
291
     1
 45
0.0
1001
ACAD
1000
AcDbSavedByObjectVersion
1070
     0
  0
VISUALSTYLE
  5
36
102
{ACAD_REACTORS
330
2A
102
}
330
2A
100
AcDbVisualStyle
  2
Brighten
 70
    12
 71
     2
 72
     2
 73
     0
 90
        0
 40
-0.6
 41
-30.0
 62
     5
 63
     7
421
 16777215
 74
     1
 91
        4
 64
     7
 65
   257
 75
     1
175
     1
 42
1.0
 92
        8
 66
     7
 43
1.0
 76
     1
 77
     6
 78
     2
 67
     7
 79
     5
170
     0
171
     0
290
     0
174
     0
 93
        1
 44
50.0
173
     0
291
     1
 45
0.0
1001
ACAD
1000
AcDbSavedByObjectVersion
1070
     0
  0
VISUALSTYLE
  5
3A
102
{ACAD_REACTORS
330
2A
102
}
330
2A
100
AcDbVisualStyle
  2
ColorChange
 70
    16
 71
     2
 72
     2
 73
     3
 90
        0
 40
-0.6
 41
-30.0
 62
     5
 63
     8
421
  8421504
 74
     1
 91
        4
 64
     7
 65
   257
 75
     1
175
     1
 42
1.0
 92
        8
 66
     8
424
  8421504
 43
1.0
 76
     1
 77
     6
 78
     2
 67
     7
 79
     5
170
     0
171
     0
290
     0
174
     0
 93
        1
 44
0.0
173
     0
291
     1
 45
0.0
1001
ACAD
1000
AcDbSavedByObjectVersion
1070
     0
  0
VISUALSTYLE
  5
34
102
{ACAD_REACTORS
330
2A
102
}
330
2A
100
AcDbVisualStyle
  2
Conceptual
 70
     9
 71
     3
 72
     2
 73
     0
 90
        0
 40
-0.6
 41
-30.0
 62
     5
 63
     7
421
 16777215
 74
     2
 91
        2
 64
     7
 65
   257
 75
     1
175
     1
 42
40.0
 92
        8
 66
     7
 43
1.0
 76
     1
 77
     6
 78
     2
 67
     7
 79
     3
170
     0
171
     0
290
     0
174
     0
 93
        1
 44
0.0
173
     0
291
     0
 45
0.0
1001
ACAD
1000
AcDbSavedByObjectVersion
1070
     0
  0
VISUALSTYLE
  5
35
102
{ACAD_REACTORS
330
2A
102
}
330
2A
100
AcDbVisualStyle
  2
Dim
 70
    11
 71
     2
 72
     2
 73
     0
 90
        0
 40
-0.6
 41
-30.0
 62
     5
 63
     7
421
 16777215
 74
     1
 91
        4
 64
     7
 65
   257
 75
     1
175
     1
 42
1.0
 92
        8
 66
     7
 43
1.0
 76
     1
 77
     6
 78
     2
 67
     7
 79
     5
170
     0
171
     0
290
     0
174
     0
 93
        1
 44
-50.0
173
     0
291
     1
 45
0.0
1001
ACAD
1000
AcDbSavedByObjectVersion
1070
     0
  0
VISUALSTYLE
  5
39
102
{ACAD_REACTORS
330
2A
102
}
330
2A
100
AcDbVisualStyle
  2
Facepattern
 70
    15
 71
     2
 72
     2
 73
     0
 90
        0
 40
-0.6
 41
-30.0
 62
     5
 63
     7
421
 16777215
 74
     1
 91
        4
 64
     7
 65
   257
 75
     1
175
     1
 42
1.0
 92
        8
 66
     7
 43
1.0
 76
     1
 77
     6
 78
     2
 67
     7
 79
     5
170
     0
171
     0
290
     0
174
     0
 93
        1
 44
0.0
173
     0
291
     1
 45
0.0
1001
ACAD
1000
AcDbSavedByObjectVersion
1070
     0
  0
VISUALSTYLE
  5
2B
102
{ACAD_REACTORS
330
2A
102
}
330
2A
100
AcDbVisualStyle
  2
Flat
 70
     0
 71
     2
 72
     1
 73
     1
 90
        2
 40
-0.6
 41
30.0
 62
     5
 63
     7
421
 16777215
 74
     0
 91
        4
 64
     7
 65
   257
 75
     1
175
     1
 42
1.0
 92
        8
 66
     7
 43
1.0
 76
     1
 77
     6
 78
     2
 67
     7
 79
     5
170
     0
171
     0
290
     0
174
     0
 93
       13
 44
0.0
173
     0
291
     1
 45
0.0
1001
ACAD
1000
AcDbSavedByObjectVersion
1070
     0
  0
VISUALSTYLE
  5
2C
102
{ACAD_REACTORS
330
2A
102
}
330
2A
100
AcDbVisualStyle
  2
FlatWithEdges
 70
     1
 71
     2
 72
     1
 73
     1
 90
        2
 40
-0.6
 41
30.0
 62
     5
 63
     7
421
 16777215
 74
     1
 91
        4
 64
     7
 65
   257
 75
     1
175
     1
 42
1.0
 92
        0
 66
   257
 43
1.0
 76
     1
 77
     6
 78
     2
 67
     7
 79
     5
170
     0
171
     0
290
     0
174
     0
 93
       13
 44
0.0
173
     0
291
     1
 45
0.0
1001
ACAD
1000
AcDbSavedByObjectVersion
1070
     0
  0
VISUALSTYLE
  5
2D
102
{ACAD_REACTORS
330
2A
102
}
330
2A
100
AcDbVisualStyle
  2
Gouraud
 70
     2
 71
     2
 72
     2
 73
     1
 90
        2
 40
-0.6
 41
30.0
 62
     5
 63
     7
421
 16777215
 74
     0
 91
        4
 64
     7
 65
   257
 75
     1
175
     1
 42
1.0
 92
        0
 66
     7
 43
1.0
 76
     1
 77
     6
 78
     2
 67
     7
 79
     5
170
     0
171
     0
290
     0
174
     0
 93
       13
 44
0.0
173
     0
291
     1
 45
0.0
1001
ACAD
1000
AcDbSavedByObjectVersion
1070
     0
  0
VISUALSTYLE
  5
2E
102
{ACAD_REACTORS
330
2A
102
}
330
2A
100
AcDbVisualStyle
  2
GouraudWithEdges
 70
     3
 71
     2
 72
     2
 73
     1
 90
        2
 40
-0.6
 41
30.0
 62
     5
 63
     7
421
 16777215
 74
     1
 91
        4
 64
     7
 65
   257
 75
     1
175
     1
 42
1.0
 92
        0
 66
   257
 43
1.0
 76
     1
 77
     6
 78
     2
 67
     7
 79
     5
170
     0
171
     0
290
     0
174
     0
 93
       13
 44
0.0
173
     0
291
     1
 45
0.0
1001
ACAD
1000
AcDbSavedByObjectVersion
1070
     0
  0
VISUALSTYLE
  5
38
102
{ACAD_REACTORS
330
2A
102
}
330
2A
100
AcDbVisualStyle
  2
Linepattern
 70
    14
 71
     2
 72
     2
 73
     0
 90
        0
 40
-0.6
 41
-30.0
 62
     5
 63
     7
421
 16777215
 74
     1
 91
        4
 64
     7
 65
   257
 75
     7
175
     7
 42
1.0
 92
        8
 66
     7
 43
1.0
 76
     1
 77
     6
 78
     2
 67
     7
 79
     5
170
     0
171
     0
290
     0
174
     0
 93
        1
 44
0.0
173
     0
291
     1
 45
0.0
1001
ACAD
1000
AcDbSavedByObjectVersion
1070
     0
  0
VISUALSTYLE
  5
33
102
{ACAD_REACTORS
330
2A
102
}
330
2A
100
AcDbVisualStyle
  2
Realistic
 70
     8
 71
     2
 72
     2
 73
     0
 90
        0
 40
-0.6
 41
-30.0
 62
     5
 63
     7
421
 16777215
 74
     1
 91
        0
 64
     7
 65
   257
 75
     1
175
     1
 42
1.0
 92
        8
 66
     8
424
  7895160
 43
1.0
 76
     1
 77
     6
 78
     2
 67
     7
 79
     5
170
     0
171
     0
290
     0
174
     0
 93
       13
 44
0.0
173
     0
291
     0
 45
0.0
1001
ACAD
1000
AcDbSavedByObjectVersion
1070
     0
  0
VISUALSTYLE
  5
37
102
{ACAD_REACTORS
330
2A
102
}
330
2A
100
AcDbVisualStyle
  2
Thicken
 70
    13
 71
     2
 72
     2
 73
     0
 90
        0
 40
-0.6
 41
-30.0
 62
     5
 63
     7
421
 16777215
 74
     1
 91
        4
 64
     7
 65
   257
 75
     1
175
     1
 42
1.0
 92
       12
 66
     7
 43
1.0
 76
     1
 77
     6
 78
     2
 67
     7
 79
     5
170
     0
171
     0
290
     0
174
     0
 93
        1
 44
0.0
173
     0
291
     1
 45
0.0
1001
ACAD
1000
AcDbSavedByObjectVersion
1070
     0
  0
ENDSEC
  0
EOF
