<?xml version="1.0" encoding="utf-8"?>
<!-- Generator: Adobe Illustrator 16.0.0, SVG Export Plug-In . SVG Version: 6.00 Build 0)  -->
<!DOCTYPE svg PUBLIC "-//W3C//DTD SVG 1.1//EN" "http://www.w3.org/Graphics/SVG/1.1/DTD/svg11.dtd">
<svg version="1.1" id="Layer_1" xmlns="http://www.w3.org/2000/svg" xmlns:xlink="http://www.w3.org/1999/xlink" x="0px" y="0px"
	 width="283.46px" height="283.46px" viewBox="0 0 283.46 283.46" enable-background="new 0 0 283.46 283.46" xml:space="preserve">
<path d="M121.5,158.639h2.231v-33.678H121.5V158.639z M114.85,158.639h2.231v-33.678h-2.231V158.639z M166.427,124.961v33.678h2.233
	v-33.678H166.427z M141.755,128.979c-9.932,0-17.98,5.74-17.98,12.82c0,7.082,8.049,12.822,17.98,12.822
	c9.929,0,17.979-5.74,17.979-12.822C159.733,134.719,151.684,128.979,141.755,128.979z M144.479,152.353
	c-4.154,1.073-8.746-2.782-10.251-8.611c-1.504-5.828,0.646-11.425,4.802-12.496c4.157-1.073,8.747,2.782,10.25,8.61
	C150.784,145.686,148.635,151.28,144.479,152.353z M159.778,158.639h2.232v-33.678h-2.232V158.639z"/>
</svg>
