<?xml version="1.0" encoding="utf-8"?>
<!-- Generator: Adobe Illustrator 16.0.0, SVG Export Plug-In . SVG Version: 6.00 Build 0)  -->
<!DOCTYPE svg PUBLIC "-//W3C//DTD SVG 1.1//EN" "http://www.w3.org/Graphics/SVG/1.1/DTD/svg11.dtd">
<svg version="1.1" id="Layer_1" xmlns="http://www.w3.org/2000/svg" xmlns:xlink="http://www.w3.org/1999/xlink" x="0px" y="0px"
	 width="283.46px" height="283.46px" viewBox="0 0 283.46 283.46" enable-background="new 0 0 283.46 283.46" xml:space="preserve">
<path d="M111.315,192.925h11.676V88.824h-11.676V192.925z M129.977,88.824v104.101h2.232v-51.096V88.824H129.977z M162.953,148.542
	c-8.129-5.025-16.145,0.257-16.145,0.257l-4.127-6.97l4.127-6.971c0,0,8.016,5.283,16.145,0.257
	c9.107-5.63,8.785-15.079,8.785-21.159c0-6.084-2.125-17.693-10.643-22.639c-9.787-5.685-23.142-0.265-23.821,9.122
	c-0.524,7.237,2.366,9.63,6.081,9.63c3.379,0,5.746-2.205,5.746-6.082c0-5.093-4.521-8.08-1.184-10.136
	c4.057-2.502,9.934,0.74,11.488,11.318c1.482,10.096,1.688,18.597-1.689,23.988c-2.893,4.616-13.348,4.224-14.361-8.277h-1.52
	c0,0-1.515,14.867-9.627,20.948c8.112,6.08,9.627,20.948,9.627,20.948h1.52c1.014-12.502,11.469-12.896,14.361-8.277
	c3.377,5.392,3.172,13.893,1.689,23.988c-1.555,10.578-7.432,13.82-11.488,11.319c-3.338-2.057,1.184-5.044,1.184-10.136
	c0-3.877-2.367-6.083-5.746-6.083c-3.715,0-6.605,2.393-6.081,9.63c0.679,9.387,14.034,14.808,23.821,9.124
	c8.518-4.949,10.643-16.558,10.643-22.64C171.738,163.622,172.061,154.172,162.953,148.542z"/>
</svg>
