<?xml version="1.0" encoding="utf-8"?>
<!-- Generator: Adobe Illustrator 16.0.0, SVG Export Plug-In . SVG Version: 6.00 Build 0)  -->
<!DOCTYPE svg PUBLIC "-//W3C//DTD SVG 1.1//EN" "http://www.w3.org/Graphics/SVG/1.1/DTD/svg11.dtd">
<svg version="1.1" id="Layer_1" xmlns="http://www.w3.org/2000/svg" xmlns:xlink="http://www.w3.org/1999/xlink" x="0px" y="0px"
	 width="283.46px" height="283.46px" viewBox="0 0 283.46 283.46" enable-background="new 0 0 283.46 283.46" xml:space="preserve">
<path d="M162.887,170.223c2.229-4.939,2.002-10.291,0.438-15.303c2.745-7.547,1.664-15.519-1.109-22.127
	c3.098-12.191-2.602-23.877-8.707-29.706c-6.362-6.072-10.107-14.397-10.107-20.484v-5.532c0,3.733,3.941,7.715,9.848,13.772
	c6.067,6.224,10.686,19.174,8.863,27.298c4.902-13.818-0.306-23.367-7.275-30.697c-6.971-7.33-11.436-14.799-11.436-19.778v-3.227
	h-2.231v134.341c-3.395-3.266-9.965-3.348-15.754,0.091c-6.578,3.909-9.651,10.88-6.863,15.571
	c2.787,4.692,10.379,5.326,16.957,1.418c4.914-2.918,7.869-7.547,7.89-11.656h0.002v-50.497c0.014,3.665,0.503,3.263,10.139,11.149
	c10.541,8.627,13.598,20.131,7.324,35.755C168.457,188.883,167.008,178.121,162.887,170.223z M143.4,94.378
	c0.008,2.493,0.326,5.432,7.756,11.599c6.731,5.588,10.071,15.725,10.574,25.691c-1.459-3.179-3.299-6-5.271-8.245
	c-6.208-7.064-13.06-12.417-13.06-20.338V94.378z M143.4,114.647c0,5.139,3.426,8.349,10.762,14.376
	c7.322,6.016,10.707,15.14,9.156,25.878c-1.452-4.64-4.028-8.987-6.858-12.423c-5.995-7.279-13.06-16.271-13.06-21.195V114.647z
	 M162.72,169.9c-1.909-3.561-4.354-6.523-6.737-8.705c-7.687-7.035-12.582-15.075-12.582-23.092v-5.859
	c0,3.211,1.285,4.881,10.762,13.768C163.259,154.541,163.124,163.162,162.72,169.9z"/>
</svg>
