<?xml version="1.0" encoding="utf-8"?>
<!-- Generator: Adobe Illustrator 16.0.0, SVG Export Plug-In . SVG Version: 6.00 Build 0)  -->
<!DOCTYPE svg PUBLIC "-//W3C//DTD SVG 1.1//EN" "http://www.w3.org/Graphics/SVG/1.1/DTD/svg11.dtd">
<svg version="1.1" id="Layer_1" xmlns="http://www.w3.org/2000/svg" xmlns:xlink="http://www.w3.org/1999/xlink" x="0px" y="0px"
	 width="283.46px" height="283.46px" viewBox="0 0 283.46 283.46" enable-background="new 0 0 283.46 283.46" xml:space="preserve">
<path d="M199.376,142.691l-0.026-40.305c0-0.823-0.668-1.494-1.495-1.494l0,0c-0.355,0-0.669,0.144-0.926,0.351l-97.05,29.278
	c-0.023,0-0.051-0.016-0.078-0.016c-0.824,0-1.497,0.67-1.497,1.496v37.588c-2.015-0.884-4.726-0.855-7.311,0.286
	c-4.16,1.854-6.41,5.883-5.033,9.011c1.385,3.123,5.888,4.156,10.056,2.311c3.799-1.689,5.977-5.181,5.277-8.152v-25.832
	l31.266-9.521v23.117c-2.037-0.979-4.842-0.997-7.51,0.187c-4.172,1.844-6.418,5.876-5.04,9.002
	c1.382,3.131,5.884,4.159,10.053,2.314c3.016-1.338,5.006-3.813,5.363-6.267h0.122v-29.262l27.96-8.518v21.958
	c-2.02-0.892-4.736-0.859-7.322,0.288c-4.169,1.851-6.417,5.877-5.039,9.001c1.384,3.13,5.886,4.156,10.052,2.314
	c2.785-1.233,4.685-3.439,5.243-5.703h0.056v-0.251c0.146-0.728,0.156-1.45,0-2.152v-26.366l29.874-9.099l0.016,20.94
	c-2.02-0.886-4.733-0.856-7.318,0.292c-4.169,1.852-6.417,5.876-5.039,9.003c1.385,3.129,5.885,4.154,10.057,2.311
	C197.867,149.127,200.042,145.658,199.376,142.691z M101.293,142.528v-7.751l31.266-9.431v7.658L101.293,142.528z M135.547,132.095
	v-7.646l27.96-8.439v7.567L135.547,132.095z M166.496,122.667v-7.562l29.869-9.008l0.004,7.469L166.496,122.667z"/>
</svg>
