<?xml version="1.0" encoding="utf-8"?>
<!-- Generator: Adobe Illustrator 16.0.0, SVG Export Plug-In . SVG Version: 6.00 Build 0)  -->
<!DOCTYPE svg PUBLIC "-//W3C//DTD SVG 1.1//EN" "http://www.w3.org/Graphics/SVG/1.1/DTD/svg11.dtd">
<svg version="1.1" id="Layer_1" xmlns="http://www.w3.org/2000/svg" xmlns:xlink="http://www.w3.org/1999/xlink" x="0px" y="0px"
	 width="283.46px" height="283.46px" viewBox="0 0 283.46 283.46" enable-background="new 0 0 283.46 283.46" xml:space="preserve">
<path d="M160.774,105.782c5.803,12.946,4.516,23.119-4.998,33.369c-6.975,7.513-12.402,7.722-12.402,7.722V102.19h-0.005
	c0.013-1.404-0.313-2.749-1.024-3.945c-2.787-4.691-10.378-5.325-16.956-1.417c-6.578,3.907-9.651,10.878-6.866,15.57
	c2.787,4.691,10.381,5.327,16.96,1.419c2.389-1.421,4.307-3.246,5.659-5.218v81.863h2.232c0-14.935,8.67-15.951,16.712-27.858
	c3.905-5.78,7.665-15.107,2.865-24.901C167.606,129.157,168.966,117.227,160.774,105.782z M155.776,160.988
	c-6.059,6.525-10.944,9.282-12.124,9.894c1.536-12.444,9.753-20.36,16.434-28.83c0.823-1.043,1.602-2.175,2.313-3.379
	C164.581,147.116,161.891,154.401,155.776,160.988z"/>
</svg>
