<?xml version="1.0" encoding="utf-8"?>
<!-- Generator: Adobe Illustrator 16.0.0, SVG Export Plug-In . SVG Version: 6.00 Build 0)  -->
<!DOCTYPE svg PUBLIC "-//W3C//DTD SVG 1.1//EN" "http://www.w3.org/Graphics/SVG/1.1/DTD/svg11.dtd">
<svg version="1.1" id="Layer_1" xmlns="http://www.w3.org/2000/svg" xmlns:xlink="http://www.w3.org/1999/xlink" x="0px" y="0px"
	 width="283.46px" height="283.46px" viewBox="0 0 283.46 283.46" enable-background="new 0 0 283.46 283.46" xml:space="preserve">
<path d="M152.804,95.245c-2.788-4.691-10.379-5.325-16.958-1.417c-4.913,2.918-7.869,7.546-7.89,11.656h-0.002v88.273h2.233v-82.85
	c3.395,3.265,9.964,3.347,15.753-0.091C152.518,106.908,155.592,99.937,152.804,95.245z M143.569,106.318
	c-4.98,2.958-9.584,4.915-11.696,1.362c-2.109-3.553,2.076-6.088,7.058-9.047c4.98-2.959,8.87-5.221,10.981-1.668
	C152.022,100.517,148.552,103.358,143.569,106.318z"/>
</svg>
