  0
SECTION
  2
HEADER
  9
$ACADVER
  1
AC1018
  9
$ACADMAINTVER
 70
     0
  9
$DWGCODEPAGE
  3
ANSI_1252
  9
$INSBASE
 10
0.0
 20
0.0
 30
0.0
  9
$EXTMIN
 10
1.000000000000000E+20
 20
1.000000000000000E+20
 30
1.000000000000000E+20
  9
$EXTMAX
 10
-1.000000000000000E+20
 20
-1.000000000000000E+20
 30
-1.000000000000000E+20
  9
$LIMMIN
 10
0.0
 20
0.0
  9
$LIMMAX
 10
12.0
 20
9.0
  9
$ORTHOMODE
 70
     0
  9
$REGENMODE
 70
     1
  9
$FILLMODE
 70
     1
  9
$QTEXTMODE
 70
     0
  9
$MIRRTEXT
 70
     1
  9
$LTSCALE
 40
1.0
  9
$ATTMODE
 70
     1
  9
$TEXTSIZE
 40
0.2
  9
$TRACEWID
 40
0.05
  9
$TEXTSTYLE
  7
Standard
  9
$CLAYER
  8
0
  9
$CELTYPE
  6
ByLayer
  9
$CECOLOR
 62
   256
  9
$CELTSCALE
 40
1.0
  9
$DISPSILH
 70
     0
  9
$DIMSCALE
 40
1.0
  9
$DIMASZ
 40
0.18
  9
$DIMEXO
 40
0.0625
  9
$DIMDLI
 40
0.38
  9
$DIMRND
 40
0.0
  9
$DIMDLE
 40
0.0
  9
$DIMEXE
 40
0.18
  9
$DIMTP
 40
0.0
  9
$DIMTM
 40
0.0
  9
$DIMTXT
 40
0.18
  9
$DIMCEN
 40
0.09
  9
$DIMTSZ
 40
0.0
  9
$DIMTOL
 70
     0
  9
$DIMLIM
 70
     0
  9
$DIMTIH
 70
     1
  9
$DIMTOH
 70
     1
  9
$DIMSE1
 70
     0
  9
$DIMSE2
 70
     0
  9
$DIMTAD
 70
     0
  9
$DIMZIN
 70
     0
  9
$DIMBLK
  1

  9
$DIMASO
 70
     1
  9
$DIMSHO
 70
     1
  9
$DIMPOST
  1

  9
$DIMAPOST
  1

  9
$DIMALT
 70
     0
  9
$DIMALTD
 70
     2
  9
$DIMALTF
 40
25.4
  9
$DIMLFAC
 40
1.0
  9
$DIMTOFL
 70
     0
  9
$DIMTVP
 40
0.0
  9
$DIMTIX
 70
     0
  9
$DIMSOXD
 70
     0
  9
$DIMSAH
 70
     0
  9
$DIMBLK1
  1

  9
$DIMBLK2
  1

  9
$DIMSTYLE
  2
Standard
  9
$DIMCLRD
 70
     0
  9
$DIMCLRE
 70
     0
  9
$DIMCLRT
 70
     0
  9
$DIMTFAC
 40
1.0
  9
$DIMGAP
 40
0.09
  9
$DIMJUST
 70
     0
  9
$DIMSD1
 70
     0
  9
$DIMSD2
 70
     0
  9
$DIMTOLJ
 70
     1
  9
$DIMTZIN
 70
     0
  9
$DIMALTZ
 70
     0
  9
$DIMALTTZ
 70
     0
  9
$DIMUPT
 70
     0
  9
$DIMDEC
 70
     4
  9
$DIMTDEC
 70
     4
  9
$DIMALTU
 70
     2
  9
$DIMALTTD
 70
     2
  9
$DIMTXSTY
  7
Standard
  9
$DIMAUNIT
 70
     0
  9
$DIMADEC
 70
     0
  9
$DIMALTRND
 40
0.0
  9
$DIMAZIN
 70
     0
  9
$DIMDSEP
 70
    46
  9
$DIMATFIT
 70
     3
  9
$DIMFRAC
 70
     0
  9
$DIMLDRBLK
  1

  9
$DIMLUNIT
 70
     2
  9
$DIMLWD
 70
    -2
  9
$DIMLWE
 70
    -2
  9
$DIMTMOVE
 70
     0
  9
$LUNITS
 70
     2
  9
$LUPREC
 70
     4
  9
$SKETCHINC
 40
0.1
  9
$FILLETRAD
 40
0.5
  9
$AUNITS
 70
     0
  9
$AUPREC
 70
     0
  9
$MENU
  1
.
  9
$ELEVATION
 40
0.0
  9
$PELEVATION
 40
0.0
  9
$THICKNESS
 40
0.0
  9
$LIMCHECK
 70
     0
  9
$CHAMFERA
 40
0.5
  9
$CHAMFERB
 40
0.5
  9
$CHAMFERC
 40
1.0
  9
$CHAMFERD
 40
0.0
  9
$SKPOLY
 70
     0
  9
$TDCREATE
 40
2458280.850377245
  9
$TDUCREATE
 40
2458280.558710579
  9
$TDUPDATE
 40
2458280.850377257
  9
$TDUUPDATE
 40
2458280.55871059
  9
$TDINDWG
 40
0.0000000116
  9
$TDUSRTIMER
 40
0.0000000116
  9
$USRTIMER
 70
     1
  9
$ANGBASE
 50
0.0
  9
$ANGDIR
 70
     0
  9
$PDMODE
 70
     0
  9
$PDSIZE
 40
0.0
  9
$PLINEWID
 40
0.0
  9
$SPLFRAME
 70
     0
  9
$SPLINETYPE
 70
     6
  9
$SPLINESEGS
 70
     8
  9
$HANDSEED
  5
4B
  9
$SURFTAB1
 70
     6
  9
$SURFTAB2
 70
     6
  9
$SURFTYPE
 70
     6
  9
$SURFU
 70
     6
  9
$SURFV
 70
     6
  9
$UCSBASE
  2

  9
$UCSNAME
  2

  9
$UCSORG
 10
0.0
 20
0.0
 30
0.0
  9
$UCSXDIR
 10
1.0
 20
0.0
 30
0.0
  9
$UCSYDIR
 10
0.0
 20
1.0
 30
0.0
  9
$UCSORTHOREF
  2

  9
$UCSORTHOVIEW
 70
     0
  9
$UCSORGTOP
 10
0.0
 20
0.0
 30
0.0
  9
$UCSORGBOTTOM
 10
0.0
 20
0.0
 30
0.0
  9
$UCSORGLEFT
 10
0.0
 20
0.0
 30
0.0
  9
$UCSORGRIGHT
 10
0.0
 20
0.0
 30
0.0
  9
$UCSORGFRONT
 10
0.0
 20
0.0
 30
0.0
  9
$UCSORGBACK
 10
0.0
 20
0.0
 30
0.0
  9
$PUCSBASE
  2

  9
$PUCSNAME
  2

  9
$PUCSORG
 10
0.0
 20
0.0
 30
0.0
  9
$PUCSXDIR
 10
1.0
 20
0.0
 30
0.0
  9
$PUCSYDIR
 10
0.0
 20
1.0
 30
0.0
  9
$PUCSORTHOREF
  2

  9
$PUCSORTHOVIEW
 70
     0
  9
$PUCSORGTOP
 10
0.0
 20
0.0
 30
0.0
  9
$PUCSORGBOTTOM
 10
0.0
 20
0.0
 30
0.0
  9
$PUCSORGLEFT
 10
0.0
 20
0.0
 30
0.0
  9
$PUCSORGRIGHT
 10
0.0
 20
0.0
 30
0.0
  9
$PUCSORGFRONT
 10
0.0
 20
0.0
 30
0.0
  9
$PUCSORGBACK
 10
0.0
 20
0.0
 30
0.0
  9
$USERI1
 70
     0
  9
$USERI2
 70
     0
  9
$USERI3
 70
     0
  9
$USERI4
 70
     0
  9
$USERI5
 70
     0
  9
$USERR1
 40
0.0
  9
$USERR2
 40
0.0
  9
$USERR3
 40
0.0
  9
$USERR4
 40
0.0
  9
$USERR5
 40
0.0
  9
$WORLDVIEW
 70
     1
  9
$SHADEDGE
 70
     3
  9
$SHADEDIF
 70
    70
  9
$TILEMODE
 70
     1
  9
$MAXACTVP
 70
    64
  9
$PINSBASE
 10
0.0
 20
0.0
 30
0.0
  9
$PLIMCHECK
 70
     0
  9
$PEXTMIN
 10
1.000000000000000E+20
 20
1.000000000000000E+20
 30
1.000000000000000E+20
  9
$PEXTMAX
 10
-1.000000000000000E+20
 20
-1.000000000000000E+20
 30
-1.000000000000000E+20
  9
$PLIMMIN
 10
0.0
 20
0.0
  9
$PLIMMAX
 10
12.0
 20
9.0
  9
$UNITMODE
 70
     0
  9
$VISRETAIN
 70
     1
  9
$PLINEGEN
 70
     0
  9
$PSLTSCALE
 70
     1
  9
$TREEDEPTH
 70
  3020
  9
$CMLSTYLE
  2
Standard
  9
$CMLJUST
 70
     0
  9
$CMLSCALE
 40
1.0
  9
$PROXYGRAPHICS
 70
     1
  9
$MEASUREMENT
 70
     0
  9
$CELWEIGHT
370
    -1
  9
$ENDCAPS
280
     0
  9
$JOINSTYLE
280
     0
  9
$LWDISPLAY
290
     1
  9
$INSUNITS
 70
     1
  9
$HYPERLINKBASE
  1

  9
$STYLESHEET
  1

  9
$XEDIT
290
     1
  9
$CEPSNTYPE
380
     0
  9
$PSTYLEMODE
290
     1
  9
$FINGERPRINTGUID
  2
{14674727-94B0-4A6B-B5F3-9392017BD703}
  9
$VERSIONGUID
  2
{FAEB1C32-E019-11D5-929B-00C0DF256EC4}
  9
$EXTNAMES
290
     1
  9
$PSVPSCALE
 40
0.0
  9
$OLESTARTUP
290
     0
  9
$SORTENTS
280
   127
  9
$INDEXCTL
280
     0
  9
$HIDETEXT
280
     1
  9
$XCLIPFRAME
290
     0
  9
$HALOGAP
280
     0
  9
$OBSCOLOR
 70
   257
  9
$OBSLTYPE
280
     0
  9
$INTERSECTIONDISPLAY
280
     0
  9
$INTERSECTIONCOLOR
 70
   257
  9
$DIMASSOC
280
     2
  9
$PROJECTNAME
  1

  0
ENDSEC
  0
SECTION
  2
CLASSES
  0
CLASS
  1
ACDBDICTIONARYWDFLT
  2
AcDbDictionaryWithDefault
  3
ObjectDBX Classes
 90
        0
 91
        3
280
     0
281
     0
  0
CLASS
  1
VISUALSTYLE
  2
AcDbVisualStyle
  3
ObjectDBX Classes
 90
     4095
 91
        3
280
     0
281
     0
  0
ENDSEC
  0
SECTION
  2
TABLES
  0
TABLE
  2
VPORT
  5
8
330
0
100
AcDbSymbolTable
 70
     1
  0
VPORT
  5
29
330
8
100
AcDbSymbolTableRecord
100
AcDbViewportTableRecord
  2
*Active
 70
     0
 10
0.0
 20
0.0
 11
1.0
 21
1.0
 12
0.0
 22
0.0
 13
0.0
 23
0.0
 14
0.5
 24
0.5
 15
0.5
 25
0.5
 16
0.0
 26
0.0
 36
1.0
 17
49.99918754175368
 27
-49.99918754175368
 37
0.0
 40
99.99837508350736
 41
1.0
 42
50.0
 43
0.0
 44
0.0
 50
0.0
 51
0.0
 71
     0
 72
   100
 73
     1
 74
     3
 75
     0
 76
     0
 77
     0
 78
     0
281
     0
 65
     1
110
0.0
120
0.0
130
0.0
111
1.0
121
0.0
131
0.0
112
0.0
122
1.0
132
0.0
 79
     0
146
0.0
  0
ENDTAB
  0
TABLE
  2
LTYPE
  5
5
330
0
100
AcDbSymbolTable
 70
     1
  0
LTYPE
  5
14
330
5
100
AcDbSymbolTableRecord
100
AcDbLinetypeTableRecord
  2
ByBlock
 70
     0
  3

 72
    65
 73
     0
 40
0.0
  0
LTYPE
  5
15
330
5
100
AcDbSymbolTableRecord
100
AcDbLinetypeTableRecord
  2
ByLayer
 70
     0
  3

 72
    65
 73
     0
 40
0.0
  0
LTYPE
  5
16
330
5
100
AcDbSymbolTableRecord
100
AcDbLinetypeTableRecord
  2
Continuous
 70
     0
  3
Solid line
 72
    65
 73
     0
 40
0.0
  0
ENDTAB
  0
TABLE
  2
LAYER
  5
2
330
0
100
AcDbSymbolTable
 70
     2
  0
LAYER
  5
10
330
2
100
AcDbSymbolTableRecord
100
AcDbLayerTableRecord
  2
0
 70
     0
 62
     7
  6
Continuous
370
    -3
390
F
  0
LAYER
  5
3B
330
2
100
AcDbSymbolTableRecord
100
AcDbLayerTableRecord
  2
Layer 1
 70
     0
 62
     7
  6
Continuous
370
    -3
390
F
  0
ENDTAB
  0
TABLE
  2
STYLE
  5
3
330
0
100
AcDbSymbolTable
 70
     1
  0
STYLE
  5
11
330
3
100
AcDbSymbolTableRecord
100
AcDbTextStyleTableRecord
  2
Standard
 70
     0
 40
0.0
 41
1.0
 50
0.0
 71
     0
 42
0.2
  3
txt
  4

  0
ENDTAB
  0
TABLE
  2
VIEW
  5
6
330
0
100
AcDbSymbolTable
 70
     0
  0
ENDTAB
  0
TABLE
  2
UCS
  5
7
330
0
100
AcDbSymbolTable
 70
     0
  0
ENDTAB
  0
TABLE
  2
APPID
  5
9
330
0
100
AcDbSymbolTable
 70
     1
  0
APPID
  5
12
330
9
100
AcDbSymbolTableRecord
100
AcDbRegAppTableRecord
  2
ACAD
 70
     0
  0
ENDTAB
  0
TABLE
  2
DIMSTYLE
  5
A
330
0
100
AcDbSymbolTable
 70
     1
100
AcDbDimStyleTable
  0
DIMSTYLE
105
27
330
A
100
AcDbSymbolTableRecord
100
AcDbDimStyleTableRecord
  2
Standard
 70
     0
340
11
  0
ENDTAB
  0
TABLE
  2
BLOCK_RECORD
  5
1
330
0
100
AcDbSymbolTable
 70
     2
  0
BLOCK_RECORD
  5
1F
330
1
100
AcDbSymbolTableRecord
100
AcDbBlockTableRecord
  2
*Model_Space
340
22
  0
BLOCK_RECORD
  5
1B
330
1
100
AcDbSymbolTableRecord
100
AcDbBlockTableRecord
  2
*Paper_Space
340
1E
  0
BLOCK_RECORD
  5
23
330
1
100
AcDbSymbolTableRecord
100
AcDbBlockTableRecord
  2
*Paper_Space0
340
26
  0
BLOCK_RECORD
  5
3C
330
1
100
AcDbSymbolTableRecord
100
AcDbBlockTableRecord
  2
block 2
340
0
102
{BLKREFS
331
3D
102
}
  0
ENDTAB
  0
ENDSEC
  0
SECTION
  2
BLOCKS
  0
BLOCK
  5
20
330
1F
100
AcDbEntity
  8
0
100
AcDbBlockBegin
  2
*Model_Space
 70
     0
 71
     0
 10
0.0
 20
0.0
 30
0.0
  3
*Model_Space
  1

  0
ENDBLK
  5
21
330
1F
100
AcDbEntity
  8
0
100
AcDbBlockEnd
  0
BLOCK
  5
1C
330
1B
100
AcDbEntity
 67
     1
  8
0
100
AcDbBlockBegin
  2
*Paper_Space
 70
     0
 71
     0
 10
0.0
 20
0.0
 30
0.0
  3
*Paper_Space
  1

  0
ENDBLK
  5
1D
330
1B
100
AcDbEntity
 67
     1
  8
0
100
AcDbBlockEnd
  0
BLOCK
  5
24
330
23
100
AcDbEntity
  8
0
100
AcDbBlockBegin
  2
*Paper_Space0
 70
     0
 71
     0
 10
0.0
 20
0.0
 30
0.0
  3
*Paper_Space0
  1

  0
ENDBLK
  5
25
330
23
100
AcDbEntity
  8
0
100
AcDbBlockEnd
  0
BLOCK
  5
3E
330
3C
100
AcDbEntity
  8
0
100
AcDbBlockBegin
  2
block 2
 70
     0
 71
     0
 10
0.0
 20
0.0
 30
0.0
  3
block 2
  1

  0
SPLINE
  5
40
330
3C
100
AcDbEntity
  8
Layer 1
370
     0
100
AcDbSpline
210
0.0
220
0.0
230
1.0
 70
    11
 71
     3
 72
    38
 73
    34
 74
     0
 42
0.0000000001
 43
0.0000000001
 40
0.0
 40
0.0
 40
0.0
 40
0.0
 40
1.0
 40
1.0
 40
1.0
 40
2.0
 40
2.0
 40
2.0
 40
3.0
 40
3.0
 40
3.0
 40
4.0
 40
4.0
 40
4.0
 40
5.0
 40
5.0
 40
5.0
 40
6.0
 40
6.0
 40
6.0
 40
7.0
 40
7.0
 40
7.0
 40
8.0
 40
8.0
 40
8.0
 40
9.0
 40
9.0
 40
9.0
 40
10.0
 40
10.0
 40
10.0
 40
11.0
 40
11.0
 40
11.0
 40
11.0
 10
49.99246960555744
 20
-54.43629827198121
 30
0.0
 10
65.20222166338695
 20
-54.43629827198121
 30
0.0
 10
80.41094019257088
 20
-54.43629827198121
 30
0.0
 10
95.62000323130334
 20
-54.43629827198121
 30
0.0
 10
95.80293780157011
 20
-54.43629827198121
 30
0.0
 10
95.98552786228835
 20
-54.44491101069433
 30
0.0
 10
96.16777341345806
 20
-54.43629827198121
 30
0.0
 10
96.58876408175558
 20
-54.41562769906971
 30
0.0
 10
96.79925941590436
 20
-54.57582463913383
 30
0.0
 10
96.80925019281158
 20
-55.03161077183238
 30
0.0
 10
96.82027449836438
 20
-55.52529295486868
 30
0.0
 10
96.5873860435615
 20
-55.68445636628722
 30
0.0
 10
96.14227970686721
 20
-55.66137422653605
 30
0.0
 10
95.980704728609
 20
-55.6524169782744
 30
0.0
 10
95.81775171215668
 20
-55.66137422653605
 30
0.0
 10
95.65514320525288
 20
-55.66137422653605
 30
0.0
 10
65.21738008352204
 20
-55.66137422653605
 30
0.0
 10
34.77858343314563
 20
-55.66137422653605
 30
0.0
 10
4.33978678276922
 20
-55.66137422653605
 30
0.0
 10
4.157885741148029
 20
-55.66137422653605
 30
0.0
 10
3.973917642235687
 20
-55.6524169782744
 30
0.0
 10
3.792016600614496
 20
-55.66034069789048
 30
0.0
 10
3.354489473987767
 20
-55.67825519441377
 30
0.0
 10
3.178789604240025
 20
-55.4801622040119
 30
0.0
 10
3.18189019017675
 20
-55.03677841506025
 30
0.0
 10
3.186368814307575
 20
-54.58305933965285
 30
0.0
 10
3.393074543422565
 20
-54.41562769906971
 30
0.0
 10
3.81716579765682
 20
-54.43629827198121
 30
0.0
 10
4.000100367923586
 20
-54.44525552024285
 30
0.0
 10
4.183379447738877
 20
-54.43629827198121
 30
0.0
 10
4.365969508457119
 20
-54.43629827198121
 30
0.0
 10
19.57468803764105
 20
-54.43629827198121
 30
0.0
 10
34.78409558592203
 20
-54.43629827198121
 30
0.0
 10
49.99246960555744
 20
-54.43629827198121
 30
0.0
  0
HATCH
  5
41
330
3C
100
AcDbEntity
  8
Layer 1
 62
   250
420
  2301728
100
AcDbHatch
 10
0.0
 20
0.0
 30
0.0
210
0.0
220
0.0
230
1.0
  2
SOLID
 70
     1
 71
     0
 91
        1
 92
        1
 93
        1
 72
     4
 94
        3
 73
     0
 74
     1
 95
       38
 96
       34
 40
0.0
 40
0.0
 40
0.0
 40
0.0
 40
1.0
 40
1.0
 40
1.0
 40
2.0
 40
2.0
 40
2.0
 40
3.0
 40
3.0
 40
3.0
 40
4.0
 40
4.0
 40
4.0
 40
5.0
 40
5.0
 40
5.0
 40
6.0
 40
6.0
 40
6.0
 40
7.0
 40
7.0
 40
7.0
 40
8.0
 40
8.0
 40
8.0
 40
9.0
 40
9.0
 40
9.0
 40
10.0
 40
10.0
 40
10.0
 40
11.0
 40
11.0
 40
11.0
 40
11.0
 10
49.99246960555744
 20
-54.43629827198121
 10
65.20222166338695
 20
-54.43629827198121
 10
80.41094019257088
 20
-54.43629827198121
 10
95.62000323130334
 20
-54.43629827198121
 10
95.80293780157011
 20
-54.43629827198121
 10
95.98552786228835
 20
-54.44491101069433
 10
96.16777341345806
 20
-54.43629827198121
 10
96.58876408175558
 20
-54.41562769906971
 10
96.79925941590436
 20
-54.57582463913383
 10
96.80925019281158
 20
-55.03161077183238
 10
96.82027449836438
 20
-55.52529295486868
 10
96.5873860435615
 20
-55.68445636628722
 10
96.14227970686721
 20
-55.66137422653605
 10
95.980704728609
 20
-55.6524169782744
 10
95.81775171215668
 20
-55.66137422653605
 10
95.65514320525288
 20
-55.66137422653605
 10
65.21738008352204
 20
-55.66137422653605
 10
34.77858343314563
 20
-55.66137422653605
 10
4.33978678276922
 20
-55.66137422653605
 10
4.157885741148029
 20
-55.66137422653605
 10
3.973917642235687
 20
-55.6524169782744
 10
3.792016600614496
 20
-55.66034069789048
 10
3.354489473987767
 20
-55.67825519441377
 10
3.178789604240025
 20
-55.4801622040119
 10
3.18189019017675
 20
-55.03677841506025
 10
3.186368814307575
 20
-54.58305933965285
 10
3.393074543422565
 20
-54.41562769906971
 10
3.81716579765682
 20
-54.43629827198121
 10
4.000100367923586
 20
-54.44525552024285
 10
4.183379447738877
 20
-54.43629827198121
 10
4.365969508457119
 20
-54.43629827198121
 10
19.57468803764105
 20
-54.43629827198121
 10
34.78409558592203
 20
-54.43629827198121
 10
49.99246960555744
 20
-54.43629827198121
 97
        0
 75
     0
 76
     1
 98
        0
  0
SPLINE
  5
42
330
3C
100
AcDbEntity
  8
Layer 1
370
     0
100
AcDbSpline
210
0.0
220
0.0
230
1.0
 70
    11
 71
     3
 72
    47
 73
    43
 74
     0
 42
0.0000000001
 43
0.0000000001
 40
0.0
 40
0.0
 40
0.0
 40
0.0
 40
1.0
 40
1.0
 40
1.0
 40
2.0
 40
2.0
 40
2.0
 40
3.0
 40
3.0
 40
3.0
 40
4.0
 40
4.0
 40
4.0
 40
5.0
 40
5.0
 40
5.0
 40
6.0
 40
6.0
 40
6.0
 40
7.0
 40
7.0
 40
7.0
 40
8.0
 40
8.0
 40
8.0
 40
9.0
 40
9.0
 40
9.0
 40
10.0
 40
10.0
 40
10.0
 40
11.0
 40
11.0
 40
11.0
 40
12.0
 40
12.0
 40
12.0
 40
13.0
 40
13.0
 40
13.0
 40
14.0
 40
14.0
 40
14.0
 40
14.0
 10
49.94630532605509
 20
-45.32367620394686
 30
0.0
 10
34.65731607206484
 20
-45.32367620394686
 30
0.0
 10
19.36660427033196
 20
-45.32367620394686
 30
0.0
 10
4.076925997244658
 20
-45.32367620394686
 30
0.0
 10
3.246313475750922
 20
-45.32367620394686
 30
0.0
 10
3.145372178033102
 20
-45.22376843487461
 30
0.0
 10
3.18464626656495
 20
-44.57126734996829
 30
0.0
 10
3.204283310830874
 20
-44.25983071810171
 30
0.0
 10
3.343120658886442
 20
-44.13408473289009
 30
0.0
 10
3.633542208293004
 20
-44.1258165037255
 30
0.0
 10
3.896747503366091
 20
-44.11720376501237
 30
0.0
 10
4.160297307987704
 20
-44.09825573984349
 30
0.0
 10
4.424191622157841
 20
-44.09825573984349
 30
0.0
 10
13.175767683338
 20
-44.09756672074644
 30
0.0
 10
21.92699923496964
 20
-44.09446613480972
 30
0.0
 10
30.67926431524685
 20
-44.09928926848907
 30
0.0
 10
34.59082572919952
 20
-44.10204534487727
 30
0.0
 10
38.50342067179776
 20
-44.13201767559895
 30
0.0
 10
42.41532659529895
 20
-44.13477375198714
 30
0.0
 10
45.04944660332097
 20
-44.13546277108419
 30
0.0
 10
47.68322210179448
 20
-44.09446613480972
 30
0.0
 10
50.31665309071945
 20
-44.09687770164939
 30
0.0
 10
54.63266871464045
 20
-44.10032279713464
 30
0.0
 10
58.94937335765849
 20
-44.13787433792387
 30
0.0
 10
63.26538898157949
 20
-44.13546277108419
 30
0.0
 10
73.94346243811135
 20
-44.13132865650189
 30
0.0
 10
84.62084687554618
 20
-44.11100259313892
 30
0.0
 10
95.298231312981
 20
-44.09825573984349
 30
0.0
 10
95.62275930769154
 20
-44.09756672074644
 30
0.0
 10
95.94832083104765
 20
-44.11927082230352
 30
0.0
 10
96.27181529711261
 20
-44.11410317907564
 30
0.0
 10
96.70417478051147
 20
-44.10790200720219
 30
0.0
 10
96.81751842197617
 20
-44.33424478058311
 30
0.0
 10
96.8095947023601
 20
-44.73008625183832
 30
0.0
 10
96.8013264731955
 20
-45.12833928993319
 30
0.0
 10
96.67213539249863
 20
-45.34916991053771
 30
0.0
 10
96.24218747593946
 20
-45.32367620394686
 30
0.0
 10
96.03961586140677
 20
-45.31161836974849
 30
0.0
 10
95.83635522777702
 20
-45.32367620394686
 30
0.0
 10
95.6334391036958
 20
-45.32367620394686
 30
0.0
 10
80.40405000160038
 20
-45.32367620394686
 30
0.0
 10
65.17569442815052
 20
-45.32367620394686
 30
0.0
 10
49.94630532605509
 20
-45.32367620394686
 30
0.0
  0
HATCH
  5
43
330
3C
100
AcDbEntity
  8
Layer 1
 62
   250
420
  2301728
100
AcDbHatch
 10
0.0
 20
0.0
 30
0.0
210
0.0
220
0.0
230
1.0
  2
SOLID
 70
     1
 71
     0
 91
        1
 92
        1
 93
        1
 72
     4
 94
        3
 73
     0
 74
     1
 95
       47
 96
       43
 40
0.0
 40
0.0
 40
0.0
 40
0.0
 40
1.0
 40
1.0
 40
1.0
 40
2.0
 40
2.0
 40
2.0
 40
3.0
 40
3.0
 40
3.0
 40
4.0
 40
4.0
 40
4.0
 40
5.0
 40
5.0
 40
5.0
 40
6.0
 40
6.0
 40
6.0
 40
7.0
 40
7.0
 40
7.0
 40
8.0
 40
8.0
 40
8.0
 40
9.0
 40
9.0
 40
9.0
 40
10.0
 40
10.0
 40
10.0
 40
11.0
 40
11.0
 40
11.0
 40
12.0
 40
12.0
 40
12.0
 40
13.0
 40
13.0
 40
13.0
 40
14.0
 40
14.0
 40
14.0
 40
14.0
 10
49.94630532605509
 20
-45.32367620394686
 10
34.65731607206484
 20
-45.32367620394686
 10
19.36660427033196
 20
-45.32367620394686
 10
4.076925997244658
 20
-45.32367620394686
 10
3.246313475750922
 20
-45.32367620394686
 10
3.145372178033102
 20
-45.22376843487461
 10
3.18464626656495
 20
-44.57126734996829
 10
3.204283310830874
 20
-44.25983071810171
 10
3.343120658886442
 20
-44.13408473289009
 10
3.633542208293004
 20
-44.1258165037255
 10
3.896747503366091
 20
-44.11720376501237
 10
4.160297307987704
 20
-44.09825573984349
 10
4.424191622157841
 20
-44.09825573984349
 10
13.175767683338
 20
-44.09756672074644
 10
21.92699923496964
 20
-44.09446613480972
 10
30.67926431524685
 20
-44.09928926848907
 10
34.59082572919952
 20
-44.10204534487727
 10
38.50342067179776
 20
-44.13201767559895
 10
42.41532659529895
 20
-44.13477375198714
 10
45.04944660332097
 20
-44.13546277108419
 10
47.68322210179448
 20
-44.09446613480972
 10
50.31665309071945
 20
-44.09687770164939
 10
54.63266871464045
 20
-44.10032279713464
 10
58.94937335765849
 20
-44.13787433792387
 10
63.26538898157949
 20
-44.13546277108419
 10
73.94346243811135
 20
-44.13132865650189
 10
84.62084687554618
 20
-44.11100259313892
 10
95.298231312981
 20
-44.09825573984349
 10
95.62275930769154
 20
-44.09756672074644
 10
95.94832083104765
 20
-44.11927082230352
 10
96.27181529711261
 20
-44.11410317907564
 10
96.70417478051147
 20
-44.10790200720219
 10
96.81751842197617
 20
-44.33424478058311
 10
96.8095947023601
 20
-44.73008625183832
 10
96.8013264731955
 20
-45.12833928993319
 10
96.67213539249863
 20
-45.34916991053771
 10
96.24218747593946
 20
-45.32367620394686
 10
96.03961586140677
 20
-45.31161836974849
 10
95.83635522777702
 20
-45.32367620394686
 10
95.6334391036958
 20
-45.32367620394686
 10
80.40405000160038
 20
-45.32367620394686
 10
65.17569442815052
 20
-45.32367620394686
 10
49.94630532605509
 20
-45.32367620394686
 97
        0
 75
     0
 76
     1
 98
        0
  0
SPLINE
  5
44
330
3C
100
AcDbEntity
  8
Layer 1
370
     0
100
AcDbSpline
210
0.0
220
0.0
230
1.0
 70
    11
 71
     3
 72
    44
 73
    40
 74
     0
 42
0.0000000001
 43
0.0000000001
 40
0.0
 40
0.0
 40
0.0
 40
0.0
 40
1.0
 40
1.0
 40
1.0
 40
2.0
 40
2.0
 40
2.0
 40
3.0
 40
3.0
 40
3.0
 40
4.0
 40
4.0
 40
4.0
 40
5.0
 40
5.0
 40
5.0
 40
6.0
 40
6.0
 40
6.0
 40
7.0
 40
7.0
 40
7.0
 40
8.0
 40
8.0
 40
8.0
 40
9.0
 40
9.0
 40
9.0
 40
10.0
 40
10.0
 40
10.0
 40
11.0
 40
11.0
 40
11.0
 40
12.0
 40
12.0
 40
12.0
 40
13.0
 40
13.0
 40
13.0
 40
13.0
 10
49.99763724878532
 20
-40.11296928250648
 30
0.0
 10
34.68556585504389
 20
-40.11296928250648
 30
0.0
 10
19.37418348039951
 20
-40.11365830160353
 30
0.0
 10
4.061767577109558
 20
-40.10607909153598
 30
0.0
 10
3.720358614521299
 20
-40.10607909153598
 30
0.0
 10
3.236667208392222
 20
-40.29418130503063
 30
0.0
 10
3.191880967083975
 20
-39.65718314980793
 30
0.0
 10
3.158808050425576
 20
-39.19795192162412
 30
0.0
 10
3.268017577307996
 20
-38.89547253801919
 30
0.0
 10
3.814754230817145
 20
-38.94370387481268
 30
0.0
 10
4.036273870518709
 20
-38.96265189998156
 30
0.0
 10
4.260549586608474
 20
-38.94439289390974
 30
0.0
 10
4.483447264504139
 20
-38.94439289390974
 30
0.0
 10
21.88875867508337
 20
-38.94714897029794
 30
0.0
 10
39.29165851882292
 20
-38.95093857533171
 30
0.0
 10
56.69559189120805
 20
-38.95093857533171
 30
0.0
 10
69.69290362841011
 20
-38.95128308488024
 30
0.0
 10
82.69021536561218
 20
-38.94714897029794
 30
0.0
 10
95.68614906462014
 20
-38.94439289390974
 30
0.0
 10
95.88906518870135
 20
-38.94439289390974
 30
0.0
 10
96.09301484142814
 20
-38.95610621855958
 30
0.0
 10
96.29627547505788
 20
-38.94783798939498
 30
0.0
 10
96.71623261470984
 20
-38.93061251196874
 30
0.0
 10
96.8027045113896
 20
-39.1810709537464
 30
0.0
 10
96.8027045113896
 20
-39.53247069324188
 30
0.0
 10
96.8027045113896
 20
-39.88249239454327
 30
0.0
 10
96.72174476748623
 20
-40.13949651774291
 30
0.0
 10
96.29730900370346
 20
-40.11193575386091
 30
0.0
 10
96.17569713307414
 20
-40.10332301514778
 30
0.0
 10
96.05305173379924
 20
-40.11296928250648
 30
0.0
 10
95.93143986316993
 20
-40.11296928250648
 30
0.0
 10
83.54391002685708
 20
-40.11365830160353
 30
0.0
 10
71.15569117144719
 20
-40.11400281115206
 30
0.0
 10
58.76850584468288
 20
-40.11538084934616
 30
0.0
 10
55.84534232544839
 20
-40.11538084934616
 30
0.0
 10
52.92045625847128
 20
-40.11538084934616
 30
0.0
 10
49.99763724878532
 20
-40.11538084934616
 30
0.0
 10
49.99763724878532
 20
-40.11400281115206
 30
0.0
 10
49.99763724878532
 20
-40.11365830160353
 30
0.0
 10
49.99763724878532
 20
-40.11296928250648
 30
0.0
  0
HATCH
  5
45
330
3C
100
AcDbEntity
  8
Layer 1
 62
   250
420
  2301728
100
AcDbHatch
 10
0.0
 20
0.0
 30
0.0
210
0.0
220
0.0
230
1.0
  2
SOLID
 70
     1
 71
     0
 91
        1
 92
        1
 93
        1
 72
     4
 94
        3
 73
     0
 74
     1
 95
       44
 96
       40
 40
0.0
 40
0.0
 40
0.0
 40
0.0
 40
1.0
 40
1.0
 40
1.0
 40
2.0
 40
2.0
 40
2.0
 40
3.0
 40
3.0
 40
3.0
 40
4.0
 40
4.0
 40
4.0
 40
5.0
 40
5.0
 40
5.0
 40
6.0
 40
6.0
 40
6.0
 40
7.0
 40
7.0
 40
7.0
 40
8.0
 40
8.0
 40
8.0
 40
9.0
 40
9.0
 40
9.0
 40
10.0
 40
10.0
 40
10.0
 40
11.0
 40
11.0
 40
11.0
 40
12.0
 40
12.0
 40
12.0
 40
13.0
 40
13.0
 40
13.0
 40
13.0
 10
49.99763724878532
 20
-40.11296928250648
 10
34.68556585504389
 20
-40.11296928250648
 10
19.37418348039951
 20
-40.11365830160353
 10
4.061767577109558
 20
-40.10607909153598
 10
3.720358614521299
 20
-40.10607909153598
 10
3.236667208392222
 20
-40.29418130503063
 10
3.191880967083975
 20
-39.65718314980793
 10
3.158808050425576
 20
-39.19795192162412
 10
3.268017577307996
 20
-38.89547253801919
 10
3.814754230817145
 20
-38.94370387481268
 10
4.036273870518709
 20
-38.96265189998156
 10
4.260549586608474
 20
-38.94439289390974
 10
4.483447264504139
 20
-38.94439289390974
 10
21.88875867508337
 20
-38.94714897029794
 10
39.29165851882292
 20
-38.95093857533171
 10
56.69559189120805
 20
-38.95093857533171
 10
69.69290362841011
 20
-38.95128308488024
 10
82.69021536561218
 20
-38.94714897029794
 10
95.68614906462014
 20
-38.94439289390974
 10
95.88906518870135
 20
-38.94439289390974
 10
96.09301484142814
 20
-38.95610621855958
 10
96.29627547505788
 20
-38.94783798939498
 10
96.71623261470984
 20
-38.93061251196874
 10
96.8027045113896
 20
-39.1810709537464
 10
96.8027045113896
 20
-39.53247069324188
 10
96.8027045113896
 20
-39.88249239454327
 10
96.72174476748623
 20
-40.13949651774291
 10
96.29730900370346
 20
-40.11193575386091
 10
96.17569713307414
 20
-40.10332301514778
 10
96.05305173379924
 20
-40.11296928250648
 10
95.93143986316993
 20
-40.11296928250648
 10
83.54391002685708
 20
-40.11365830160353
 10
71.15569117144719
 20
-40.11400281115206
 10
58.76850584468288
 20
-40.11538084934616
 10
55.84534232544839
 20
-40.11538084934616
 10
52.92045625847128
 20
-40.11538084934616
 10
49.99763724878532
 20
-40.11538084934616
 10
49.99763724878532
 20
-40.11400281115206
 10
49.99763724878532
 20
-40.11365830160353
 10
49.99763724878532
 20
-40.11296928250648
 97
        0
 75
     0
 76
     1
 98
        0
  0
SPLINE
  5
46
330
3C
100
AcDbEntity
  8
Layer 1
370
     0
100
AcDbSpline
210
0.0
220
0.0
230
1.0
 70
    11
 71
     3
 72
    32
 73
    28
 74
     0
 42
0.0000000001
 43
0.0000000001
 40
0.0
 40
0.0
 40
0.0
 40
0.0
 40
1.0
 40
1.0
 40
1.0
 40
2.0
 40
2.0
 40
2.0
 40
3.0
 40
3.0
 40
3.0
 40
4.0
 40
4.0
 40
4.0
 40
5.0
 40
5.0
 40
5.0
 40
6.0
 40
6.0
 40
6.0
 40
7.0
 40
7.0
 40
7.0
 40
8.0
 40
8.0
 40
8.0
 40
9.0
 40
9.0
 40
9.0
 40
9.0
 10
50.02106389808501
 20
-59.64252656929076
 30
0.0
 10
65.3737874185524
 20
-59.64252656929076
 30
0.0
 10
80.72719995811681
 20
-59.64252656929076
 30
0.0
 10
96.08095700722977
 20
-59.64252656929076
 30
0.0
 10
96.76515297060038
 20
-59.64321558838781
 30
0.0
 10
96.84783526224638
 20
-59.7355441473925
 30
0.0
 10
96.80304902093813
 20
-60.34188095279648
 30
0.0
 10
96.77962237163844
 20
-60.67398815757456
 30
0.0
 10
96.62631562254481
 20
-60.81764863930948
 30
0.0
 10
96.30316566602838
 20
-60.8083468814993
 30
0.0
 10
96.16191675113313
 20
-60.80524629556258
 30
0.0
 10
96.01928979804379
 20
-60.81075844833898
 30
0.0
 10
95.87769637360003
 20
-60.81075844833898
 30
0.0
 10
65.29248316510049
 20
-60.81075844833898
 30
0.0
 10
34.70864799479507
 20
-60.81075844833898
 30
0.0
 10
4.123779295844056
 20
-60.81075844833898
 30
0.0
 10
3.242868380265672
 20
-60.81075844833898
 30
0.0
 10
3.124012586024552
 20
-60.70775009333001
 30
0.0
 10
3.187746852501674
 20
-60.04698077925909
 30
0.0
 10
3.213240559092523
 20
-59.7823974459919
 30
0.0
 10
3.303502060806069
 20
-59.62357854412188
 30
0.0
 10
3.595646157955255
 20
-59.64149304064519
 30
0.0
 10
3.717258028584574
 20
-59.64769421251864
 30
0.0
 10
3.839214408762419
 20
-59.64252656929076
 30
0.0
 10
3.961170788940263
 20
-59.64252656929076
 30
0.0
 10
19.31458332850469
 20
-59.64252656929076
 30
0.0
 10
34.66799586806911
 20
-59.64252656929076
 30
0.0
 10
50.02106389808501
 20
-59.64252656929076
 30
0.0
  0
HATCH
  5
47
330
3C
100
AcDbEntity
  8
Layer 1
 62
   250
420
  2301728
100
AcDbHatch
 10
0.0
 20
0.0
 30
0.0
210
0.0
220
0.0
230
1.0
  2
SOLID
 70
     1
 71
     0
 91
        1
 92
        1
 93
        1
 72
     4
 94
        3
 73
     0
 74
     1
 95
       32
 96
       28
 40
0.0
 40
0.0
 40
0.0
 40
0.0
 40
1.0
 40
1.0
 40
1.0
 40
2.0
 40
2.0
 40
2.0
 40
3.0
 40
3.0
 40
3.0
 40
4.0
 40
4.0
 40
4.0
 40
5.0
 40
5.0
 40
5.0
 40
6.0
 40
6.0
 40
6.0
 40
7.0
 40
7.0
 40
7.0
 40
8.0
 40
8.0
 40
8.0
 40
9.0
 40
9.0
 40
9.0
 40
9.0
 10
50.02106389808501
 20
-59.64252656929076
 10
65.3737874185524
 20
-59.64252656929076
 10
80.72719995811681
 20
-59.64252656929076
 10
96.08095700722977
 20
-59.64252656929076
 10
96.76515297060038
 20
-59.64321558838781
 10
96.84783526224638
 20
-59.7355441473925
 10
96.80304902093813
 20
-60.34188095279648
 10
96.77962237163844
 20
-60.67398815757456
 10
96.62631562254481
 20
-60.81764863930948
 10
96.30316566602838
 20
-60.8083468814993
 10
96.16191675113313
 20
-60.80524629556258
 10
96.01928979804379
 20
-60.81075844833898
 10
95.87769637360003
 20
-60.81075844833898
 10
65.29248316510049
 20
-60.81075844833898
 10
34.70864799479507
 20
-60.81075844833898
 10
4.123779295844056
 20
-60.81075844833898
 10
3.242868380265672
 20
-60.81075844833898
 10
3.124012586024552
 20
-60.70775009333001
 10
3.187746852501674
 20
-60.04698077925909
 10
3.213240559092523
 20
-59.7823974459919
 10
3.303502060806069
 20
-59.62357854412188
 10
3.595646157955255
 20
-59.64149304064519
 10
3.717258028584574
 20
-59.64769421251864
 10
3.839214408762419
 20
-59.64252656929076
 10
3.961170788940263
 20
-59.64252656929076
 10
19.31458332850469
 20
-59.64252656929076
 10
34.66799586806911
 20
-59.64252656929076
 10
50.02106389808501
 20
-59.64252656929076
 97
        0
 75
     0
 76
     1
 98
        0
  0
SPLINE
  5
48
330
3C
100
AcDbEntity
  8
Layer 1
370
     0
100
AcDbSpline
210
0.0
220
0.0
230
1.0
 70
    11
 71
     3
 72
    32
 73
    28
 74
     0
 42
0.0000000001
 43
0.0000000001
 40
0.0
 40
0.0
 40
0.0
 40
0.0
 40
1.0
 40
1.0
 40
1.0
 40
2.0
 40
2.0
 40
2.0
 40
3.0
 40
3.0
 40
3.0
 40
4.0
 40
4.0
 40
4.0
 40
5.0
 40
5.0
 40
5.0
 40
6.0
 40
6.0
 40
6.0
 40
7.0
 40
7.0
 40
7.0
 40
8.0
 40
8.0
 40
8.0
 40
9.0
 40
9.0
 40
9.0
 40
9.0
 10
49.99246960555744
 20
-49.29380424114877
 30
0.0
 10
65.30488550884739
 20
-49.29380424114877
 30
0.0
 10
80.61730141213735
 20
-49.29380424114877
 30
0.0
 10
95.93075084407288
 20
-49.29449326024582
 30
0.0
 10
96.73449162078165
 20
-49.29449326024582
 30
0.0
 10
96.8840087648415
 20
-49.43574217514107
 30
0.0
 10
96.79581432041911
 20
-50.05861543887423
 30
0.0
 10
96.75791827008136
 20
-50.32629935807815
 30
0.0
 10
96.63630639945204
 20
-50.46238062974552
 30
0.0
 10
96.36242130837468
 20
-50.45824651516322
 30
0.0
 10
96.20084633011646
 20
-50.45583494832354
 30
0.0
 10
96.03823782321267
 20
-50.46306964884257
 30
0.0
 10
95.87528480676035
 20
-50.46306964884257
 30
0.0
 10
65.29041610780935
 20
-50.46306964884257
 30
0.0
 10
34.70658093750392
 20
-50.46306964884257
 30
0.0
 10
4.121367729004381
 20
-50.46306964884257
 30
0.0
 10
3.254237195366997
 20
-50.46306964884257
 30
0.0
 10
3.104375541758628
 20
-50.33181151085455
 30
0.0
 10
3.194292533923649
 20
-49.69894747021416
 30
0.0
 10
3.232188584261397
 20
-49.43126355101024
 30
0.0
 10
3.355523002633342
 20
-49.29587129843992
 30
0.0
 10
3.628719074613654
 20
-49.29862737482812
 30
0.0
 10
3.831635198694869
 20
-49.30034992257075
 30
0.0
 10
4.034206813227559
 20
-49.29380424114877
 30
0.0
 10
4.23677842776025
 20
-49.29380424114877
 30
0.0
 10
19.48924966960686
 20
-49.29380424114877
 30
0.0
 10
34.74034287325936
 20
-49.29380424114877
 30
0.0
 10
49.99246960555744
 20
-49.29380424114877
 30
0.0
  0
HATCH
  5
49
330
3C
100
AcDbEntity
  8
Layer 1
 62
   250
420
  2301728
100
AcDbHatch
 10
0.0
 20
0.0
 30
0.0
210
0.0
220
0.0
230
1.0
  2
SOLID
 70
     1
 71
     0
 91
        1
 92
        1
 93
        1
 72
     4
 94
        3
 73
     0
 74
     1
 95
       32
 96
       28
 40
0.0
 40
0.0
 40
0.0
 40
0.0
 40
1.0
 40
1.0
 40
1.0
 40
2.0
 40
2.0
 40
2.0
 40
3.0
 40
3.0
 40
3.0
 40
4.0
 40
4.0
 40
4.0
 40
5.0
 40
5.0
 40
5.0
 40
6.0
 40
6.0
 40
6.0
 40
7.0
 40
7.0
 40
7.0
 40
8.0
 40
8.0
 40
8.0
 40
9.0
 40
9.0
 40
9.0
 40
9.0
 10
49.99246960555744
 20
-49.29380424114877
 10
65.30488550884739
 20
-49.29380424114877
 10
80.61730141213735
 20
-49.29380424114877
 10
95.93075084407288
 20
-49.29449326024582
 10
96.73449162078165
 20
-49.29449326024582
 10
96.8840087648415
 20
-49.43574217514107
 10
96.79581432041911
 20
-50.05861543887423
 10
96.75791827008136
 20
-50.32629935807815
 10
96.63630639945204
 20
-50.46238062974552
 10
96.36242130837468
 20
-50.45824651516322
 10
96.20084633011646
 20
-50.45583494832354
 10
96.03823782321267
 20
-50.46306964884257
 10
95.87528480676035
 20
-50.46306964884257
 10
65.29041610780935
 20
-50.46306964884257
 10
34.70658093750392
 20
-50.46306964884257
 10
4.121367729004381
 20
-50.46306964884257
 10
3.254237195366997
 20
-50.46306964884257
 10
3.104375541758628
 20
-50.33181151085455
 10
3.194292533923649
 20
-49.69894747021416
 10
3.232188584261397
 20
-49.43126355101024
 10
3.355523002633342
 20
-49.29587129843992
 10
3.628719074613654
 20
-49.29862737482812
 10
3.831635198694869
 20
-49.30034992257075
 10
4.034206813227559
 20
-49.29380424114877
 10
4.23677842776025
 20
-49.29380424114877
 10
19.48924966960686
 20
-49.29380424114877
 10
34.74034287325936
 20
-49.29380424114877
 10
49.99246960555744
 20
-49.29380424114877
 97
        0
 75
     0
 76
     1
 98
        0
  0
ENDBLK
  5
3F
330
3C
100
AcDbEntity
  8
0
100
AcDbBlockEnd
  0
ENDSEC
  0
SECTION
  2
ENTITIES
  0
INSERT
  5
3D
330
1F
100
AcDbEntity
  8
Layer 1
100
AcDbBlockReference
  2
block 2
 10
0.0
 20
0.0
 30
0.0
  0
ENDSEC
  0
SECTION
  2
OBJECTS
  0
DICTIONARY
  5
C
330
0
100
AcDbDictionary
281
     1
  3
ACAD_GROUP
350
D
  3
ACAD_LAYOUT
350
1A
  3
ACAD_MLINESTYLE
350
17
  3
ACAD_PLOTSETTINGS
350
19
  3
ACAD_PLOTSTYLENAME
350
E
  3
ACAD_TABLESTYLE
350
4A
  3
ACAD_VISUALSTYLE
350
2A
  0
DICTIONARY
  5
D
102
{ACAD_REACTORS
330
C
102
}
330
C
100
AcDbDictionary
281
     1
  0
DICTIONARY
  5
1A
102
{ACAD_REACTORS
330
C
102
}
330
C
100
AcDbDictionary
281
     1
  3
Layout1
350
1E
  3
Layout2
350
26
  3
Model
350
22
  0
DICTIONARY
  5
17
102
{ACAD_REACTORS
330
C
102
}
330
C
100
AcDbDictionary
281
     1
  3
Standard
350
18
  0
DICTIONARY
  5
19
102
{ACAD_REACTORS
330
C
102
}
330
C
100
AcDbDictionary
281
     1
  0
ACDBDICTIONARYWDFLT
  5
E
102
{ACAD_REACTORS
330
C
102
}
330
C
100
AcDbDictionary
281
     1
  3
Normal
350
F
100
AcDbDictionaryWithDefault
340
F
  0
DICTIONARY
  5
4A
102
{ACAD_REACTORS
330
C
102
}
330
C
100
AcDbDictionary
281
     1
  0
DICTIONARY
  5
2A
102
{ACAD_REACTORS
330
C
102
}
330
C
100
AcDbDictionary
281
     1
  3
2dWireframe
350
2F
  3
3D Hidden
350
31
  3
3dWireframe
350
30
  3
Basic
350
32
  3
Brighten
350
36
  3
ColorChange
350
3A
  3
Conceptual
350
34
  3
Dim
350
35
  3
Facepattern
350
39
  3
Flat
350
2B
  3
FlatWithEdges
350
2C
  3
Gouraud
350
2D
  3
GouraudWithEdges
350
2E
  3
Linepattern
350
38
  3
Realistic
350
33
  3
Thicken
350
37
  0
LAYOUT
  5
1E
102
{ACAD_REACTORS
330
1A
102
}
330
1A
100
AcDbPlotSettings
  1

  2
none_device
  4

  6

 40
0.0
 41
0.0
 42
0.0
 43
0.0
 44
0.0
 45
0.0
 46
0.0
 47
0.0
 48
0.0
 49
0.0
140
0.0
141
0.0
142
1.0
143
1.0
 70
   688
 72
     0
 73
     0
 74
     5
  7

 75
    16
 76
     0
 77
     2
 78
   300
147
1.0
148
0.0
149
0.0
100
AcDbLayout
  1
Layout1
 70
     1
 71
     1
 10
0.0
 20
0.0
 11
12.0
 21
9.0
 12
0.0
 22
0.0
 32
0.0
 14
1.000000000000000E+20
 24
1.000000000000000E+20
 34
1.000000000000000E+20
 15
-1.000000000000000E+20
 25
-1.000000000000000E+20
 35
-1.000000000000000E+20
146
0.0
 13
0.0
 23
0.0
 33
0.0
 16
1.0
 26
0.0
 36
0.0
 17
0.0
 27
1.0
 37
0.0
 76
     0
330
1B
  0
LAYOUT
  5
26
102
{ACAD_REACTORS
330
1A
102
}
330
1A
100
AcDbPlotSettings
  1

  2
none_device
  4

  6

 40
0.0
 41
0.0
 42
0.0
 43
0.0
 44
0.0
 45
0.0
 46
0.0
 47
0.0
 48
0.0
 49
0.0
140
0.0
141
0.0
142
1.0
143
1.0
 70
   688
 72
     0
 73
     0
 74
     5
  7

 75
    16
 76
     0
 77
     2
 78
   300
147
1.0
148
0.0
149
0.0
100
AcDbLayout
  1
Layout2
 70
     1
 71
     2
 10
0.0
 20
0.0
 11
0.0
 21
0.0
 12
0.0
 22
0.0
 32
0.0
 14
0.0
 24
0.0
 34
0.0
 15
0.0
 25
0.0
 35
0.0
146
0.0
 13
0.0
 23
0.0
 33
0.0
 16
1.0
 26
0.0
 36
0.0
 17
0.0
 27
1.0
 37
0.0
 76
     0
330
23
  0
LAYOUT
  5
22
102
{ACAD_REACTORS
330
1A
102
}
330
1A
100
AcDbPlotSettings
  1

  2
none_device
  4

  6

 40
0.0
 41
0.0
 42
0.0
 43
0.0
 44
0.0
 45
0.0
 46
0.0
 47
0.0
 48
0.0
 49
0.0
140
0.0
141
0.0
142
1.0
143
1.0
 70
  1712
 72
     0
 73
     0
 74
     0
  7

 75
     0
 76
     0
 77
     2
 78
   300
147
1.0
148
0.0
149
0.0
100
AcDbLayout
  1
Model
 70
     1
 71
     0
 10
0.0
 20
0.0
 11
12.0
 21
9.0
 12
0.0
 22
0.0
 32
0.0
 14
1.000000000000000E+20
 24
1.000000000000000E+20
 34
1.000000000000000E+20
 15
-1.000000000000000E+20
 25
-1.000000000000000E+20
 35
-1.000000000000000E+20
146
0.0
 13
0.0
 23
0.0
 33
0.0
 16
1.0
 26
0.0
 36
0.0
 17
0.0
 27
1.0
 37
0.0
 76
     0
330
1F
331
29
  0
MLINESTYLE
  5
18
102
{ACAD_REACTORS
330
17
102
}
330
17
100
AcDbMlineStyle
  2
Standard
 70
     0
  3

 62
   256
 51
90.0
 52
90.0
 71
     2
 49
0.5
 62
   256
  6
BYLAYER
 49
-0.5
 62
   256
  6
BYLAYER
  0
ACDBPLACEHOLDER
  5
F
102
{ACAD_REACTORS
330
E
102
}
330
E
  0
VISUALSTYLE
  5
2F
102
{ACAD_REACTORS
330
2A
102
}
330
2A
100
AcDbVisualStyle
  2
2dWireframe
 70
     4
 71
     0
 72
     2
 73
     0
 90
        0
 40
-0.6
 41
-30.0
 62
     5
 63
     7
421
 16777215
 74
     1
 91
        4
 64
     7
 65
   257
 75
     1
175
     1
 42
1.0
 92
        0
 66
   257
 43
1.0
 76
     1
 77
     6
 78
     2
 67
     7
 79
     5
170
     0
171
     0
290
     0
174
     0
 93
        1
 44
0.0
173
     0
291
     0
 45
0.0
1001
ACAD
1000
AcDbSavedByObjectVersion
1070
     0
  0
VISUALSTYLE
  5
31
102
{ACAD_REACTORS
330
2A
102
}
330
2A
100
AcDbVisualStyle
  2
3D Hidden
 70
     6
 71
     1
 72
     2
 73
     2
 90
        0
 40
-0.6
 41
-30.0
 62
     5
 63
     7
421
 16777215
 74
     2
 91
        2
 64
     7
 65
   257
 75
     2
175
     1
 42
40.0
 92
        0
 66
   257
 43
1.0
 76
     1
 77
     6
 78
     2
 67
     7
 79
     3
170
     0
171
     0
290
     0
174
     0
 93
        1
 44
0.0
173
     0
291
     0
 45
0.0
1001
ACAD
1000
AcDbSavedByObjectVersion
1070
     0
  0
VISUALSTYLE
  5
30
102
{ACAD_REACTORS
330
2A
102
}
330
2A
100
AcDbVisualStyle
  2
3dWireframe
 70
     5
 71
     0
 72
     2
 73
     0
 90
        0
 40
-0.6
 41
-30.0
 62
     5
 63
     7
421
 16777215
 74
     1
 91
        4
 64
     7
 65
   257
 75
     1
175
     1
 42
1.0
 92
        0
 66
   257
 43
1.0
 76
     1
 77
     6
 78
     2
 67
     7
 79
     5
170
     0
171
     0
290
     0
174
     0
 93
        1
 44
0.0
173
     0
291
     0
 45
0.0
1001
ACAD
1000
AcDbSavedByObjectVersion
1070
     0
  0
VISUALSTYLE
  5
32
102
{ACAD_REACTORS
330
2A
102
}
330
2A
100
AcDbVisualStyle
  2
Basic
 70
     7
 71
     1
 72
     0
 73
     1
 90
        0
 40
-0.6
 41
-30.0
 62
     5
 63
     7
421
 16777215
 74
     0
 91
        4
 64
     7
 65
   257
 75
     1
175
     1
 42
1.0
 92
        8
 66
     7
 43
1.0
 76
     1
 77
     6
 78
     2
 67
     7
 79
     5
170
     0
171
     0
290
     0
174
     0
 93
        1
 44
0.0
173
     0
291
     1
 45
0.0
1001
ACAD
1000
AcDbSavedByObjectVersion
1070
     0
  0
VISUALSTYLE
  5
36
102
{ACAD_REACTORS
330
2A
102
}
330
2A
100
AcDbVisualStyle
  2
Brighten
 70
    12
 71
     2
 72
     2
 73
     0
 90
        0
 40
-0.6
 41
-30.0
 62
     5
 63
     7
421
 16777215
 74
     1
 91
        4
 64
     7
 65
   257
 75
     1
175
     1
 42
1.0
 92
        8
 66
     7
 43
1.0
 76
     1
 77
     6
 78
     2
 67
     7
 79
     5
170
     0
171
     0
290
     0
174
     0
 93
        1
 44
50.0
173
     0
291
     1
 45
0.0
1001
ACAD
1000
AcDbSavedByObjectVersion
1070
     0
  0
VISUALSTYLE
  5
3A
102
{ACAD_REACTORS
330
2A
102
}
330
2A
100
AcDbVisualStyle
  2
ColorChange
 70
    16
 71
     2
 72
     2
 73
     3
 90
        0
 40
-0.6
 41
-30.0
 62
     5
 63
     8
421
  8421504
 74
     1
 91
        4
 64
     7
 65
   257
 75
     1
175
     1
 42
1.0
 92
        8
 66
     8
424
  8421504
 43
1.0
 76
     1
 77
     6
 78
     2
 67
     7
 79
     5
170
     0
171
     0
290
     0
174
     0
 93
        1
 44
0.0
173
     0
291
     1
 45
0.0
1001
ACAD
1000
AcDbSavedByObjectVersion
1070
     0
  0
VISUALSTYLE
  5
34
102
{ACAD_REACTORS
330
2A
102
}
330
2A
100
AcDbVisualStyle
  2
Conceptual
 70
     9
 71
     3
 72
     2
 73
     0
 90
        0
 40
-0.6
 41
-30.0
 62
     5
 63
     7
421
 16777215
 74
     2
 91
        2
 64
     7
 65
   257
 75
     1
175
     1
 42
40.0
 92
        8
 66
     7
 43
1.0
 76
     1
 77
     6
 78
     2
 67
     7
 79
     3
170
     0
171
     0
290
     0
174
     0
 93
        1
 44
0.0
173
     0
291
     0
 45
0.0
1001
ACAD
1000
AcDbSavedByObjectVersion
1070
     0
  0
VISUALSTYLE
  5
35
102
{ACAD_REACTORS
330
2A
102
}
330
2A
100
AcDbVisualStyle
  2
Dim
 70
    11
 71
     2
 72
     2
 73
     0
 90
        0
 40
-0.6
 41
-30.0
 62
     5
 63
     7
421
 16777215
 74
     1
 91
        4
 64
     7
 65
   257
 75
     1
175
     1
 42
1.0
 92
        8
 66
     7
 43
1.0
 76
     1
 77
     6
 78
     2
 67
     7
 79
     5
170
     0
171
     0
290
     0
174
     0
 93
        1
 44
-50.0
173
     0
291
     1
 45
0.0
1001
ACAD
1000
AcDbSavedByObjectVersion
1070
     0
  0
VISUALSTYLE
  5
39
102
{ACAD_REACTORS
330
2A
102
}
330
2A
100
AcDbVisualStyle
  2
Facepattern
 70
    15
 71
     2
 72
     2
 73
     0
 90
        0
 40
-0.6
 41
-30.0
 62
     5
 63
     7
421
 16777215
 74
     1
 91
        4
 64
     7
 65
   257
 75
     1
175
     1
 42
1.0
 92
        8
 66
     7
 43
1.0
 76
     1
 77
     6
 78
     2
 67
     7
 79
     5
170
     0
171
     0
290
     0
174
     0
 93
        1
 44
0.0
173
     0
291
     1
 45
0.0
1001
ACAD
1000
AcDbSavedByObjectVersion
1070
     0
  0
VISUALSTYLE
  5
2B
102
{ACAD_REACTORS
330
2A
102
}
330
2A
100
AcDbVisualStyle
  2
Flat
 70
     0
 71
     2
 72
     1
 73
     1
 90
        2
 40
-0.6
 41
30.0
 62
     5
 63
     7
421
 16777215
 74
     0
 91
        4
 64
     7
 65
   257
 75
     1
175
     1
 42
1.0
 92
        8
 66
     7
 43
1.0
 76
     1
 77
     6
 78
     2
 67
     7
 79
     5
170
     0
171
     0
290
     0
174
     0
 93
       13
 44
0.0
173
     0
291
     1
 45
0.0
1001
ACAD
1000
AcDbSavedByObjectVersion
1070
     0
  0
VISUALSTYLE
  5
2C
102
{ACAD_REACTORS
330
2A
102
}
330
2A
100
AcDbVisualStyle
  2
FlatWithEdges
 70
     1
 71
     2
 72
     1
 73
     1
 90
        2
 40
-0.6
 41
30.0
 62
     5
 63
     7
421
 16777215
 74
     1
 91
        4
 64
     7
 65
   257
 75
     1
175
     1
 42
1.0
 92
        0
 66
   257
 43
1.0
 76
     1
 77
     6
 78
     2
 67
     7
 79
     5
170
     0
171
     0
290
     0
174
     0
 93
       13
 44
0.0
173
     0
291
     1
 45
0.0
1001
ACAD
1000
AcDbSavedByObjectVersion
1070
     0
  0
VISUALSTYLE
  5
2D
102
{ACAD_REACTORS
330
2A
102
}
330
2A
100
AcDbVisualStyle
  2
Gouraud
 70
     2
 71
     2
 72
     2
 73
     1
 90
        2
 40
-0.6
 41
30.0
 62
     5
 63
     7
421
 16777215
 74
     0
 91
        4
 64
     7
 65
   257
 75
     1
175
     1
 42
1.0
 92
        0
 66
     7
 43
1.0
 76
     1
 77
     6
 78
     2
 67
     7
 79
     5
170
     0
171
     0
290
     0
174
     0
 93
       13
 44
0.0
173
     0
291
     1
 45
0.0
1001
ACAD
1000
AcDbSavedByObjectVersion
1070
     0
  0
VISUALSTYLE
  5
2E
102
{ACAD_REACTORS
330
2A
102
}
330
2A
100
AcDbVisualStyle
  2
GouraudWithEdges
 70
     3
 71
     2
 72
     2
 73
     1
 90
        2
 40
-0.6
 41
30.0
 62
     5
 63
     7
421
 16777215
 74
     1
 91
        4
 64
     7
 65
   257
 75
     1
175
     1
 42
1.0
 92
        0
 66
   257
 43
1.0
 76
     1
 77
     6
 78
     2
 67
     7
 79
     5
170
     0
171
     0
290
     0
174
     0
 93
       13
 44
0.0
173
     0
291
     1
 45
0.0
1001
ACAD
1000
AcDbSavedByObjectVersion
1070
     0
  0
VISUALSTYLE
  5
38
102
{ACAD_REACTORS
330
2A
102
}
330
2A
100
AcDbVisualStyle
  2
Linepattern
 70
    14
 71
     2
 72
     2
 73
     0
 90
        0
 40
-0.6
 41
-30.0
 62
     5
 63
     7
421
 16777215
 74
     1
 91
        4
 64
     7
 65
   257
 75
     7
175
     7
 42
1.0
 92
        8
 66
     7
 43
1.0
 76
     1
 77
     6
 78
     2
 67
     7
 79
     5
170
     0
171
     0
290
     0
174
     0
 93
        1
 44
0.0
173
     0
291
     1
 45
0.0
1001
ACAD
1000
AcDbSavedByObjectVersion
1070
     0
  0
VISUALSTYLE
  5
33
102
{ACAD_REACTORS
330
2A
102
}
330
2A
100
AcDbVisualStyle
  2
Realistic
 70
     8
 71
     2
 72
     2
 73
     0
 90
        0
 40
-0.6
 41
-30.0
 62
     5
 63
     7
421
 16777215
 74
     1
 91
        0
 64
     7
 65
   257
 75
     1
175
     1
 42
1.0
 92
        8
 66
     8
424
  7895160
 43
1.0
 76
     1
 77
     6
 78
     2
 67
     7
 79
     5
170
     0
171
     0
290
     0
174
     0
 93
       13
 44
0.0
173
     0
291
     0
 45
0.0
1001
ACAD
1000
AcDbSavedByObjectVersion
1070
     0
  0
VISUALSTYLE
  5
37
102
{ACAD_REACTORS
330
2A
102
}
330
2A
100
AcDbVisualStyle
  2
Thicken
 70
    13
 71
     2
 72
     2
 73
     0
 90
        0
 40
-0.6
 41
-30.0
 62
     5
 63
     7
421
 16777215
 74
     1
 91
        4
 64
     7
 65
   257
 75
     1
175
     1
 42
1.0
 92
       12
 66
     7
 43
1.0
 76
     1
 77
     6
 78
     2
 67
     7
 79
     5
170
     0
171
     0
290
     0
174
     0
 93
        1
 44
0.0
173
     0
291
     1
 45
0.0
1001
ACAD
1000
AcDbSavedByObjectVersion
1070
     0
  0
ENDSEC
  0
EOF
