<?xml version="1.0" encoding="utf-8"?>
<!-- Generator: Adobe Illustrator 16.0.0, SVG Export Plug-In . SVG Version: 6.00 Build 0)  -->
<!DOCTYPE svg PUBLIC "-//W3C//DTD SVG 1.1//EN" "http://www.w3.org/Graphics/SVG/1.1/DTD/svg11.dtd">
<svg version="1.1" id="Layer_1" xmlns="http://www.w3.org/2000/svg" xmlns:xlink="http://www.w3.org/1999/xlink" x="0px" y="0px"
	 width="283.46px" height="283.46px" viewBox="0 0 283.46 283.46" enable-background="new 0 0 283.46 283.46" xml:space="preserve">
<path d="M144.48,138.743c-0.112,0.02-0.215,0.055-0.327,0.074c-1.104-6.633-2.188-13.021-3.202-18.811
	c4.488-5.622,8.733-12.146,11.535-20.597c8.102-24.438-3.889-46.299-6.963-46.299c-10.031,0-14.539,26.534-9.314,55.297
	c-9.582,12.989-20.621,25.934-22.71,38.689c-3.652,22.288,8.278,45.57,34.114,40.517c0.411-0.081,0.815-0.171,1.213-0.271
	c1.448,9.545,2.635,17.301,3.312,21.367c1.663,9.978-3.003,18.172-10.986,18.596c-2.893,0.154-5.618-1.031-7.463-3.975
	c4.281,1.623,8.747-2.031,9.125-10.097c0.248-5.241-1.393-10.508-8.081-11.306c-5.185-0.62-10.972,4.45-10.095,13.541
	c0.725,7.497,5.222,14.823,16.012,15.086c10.791,0.263,17.314-8.747,14.62-23.585c-0.621-3.425-1.848-10.979-3.399-20.624
	C174.615,177.081,168.117,134.499,144.48,138.743z M146.281,67.732c1.609,0,4.813,2.395,4.813,8.354
	c0,9.746-5.702,19.531-12.683,29.296C134.883,80.092,142.674,67.732,146.281,67.732z M146.221,184.692
	c-27.646,5.537-29.241-22.626-24.715-37.942c2.619-8.864,9.995-15.519,17.242-24.069c0.854,5.078,1.78,10.806,2.737,16.853
	c-18.183,6.169-18.333,35.453-1.531,38.198c-7.974-6.25-9.76-22.722,1.393-26.459c0.644-0.214,1.276-0.355,1.902-0.46
	c1.773,11.432,3.557,23.216,5.094,33.35C147.669,184.365,146.963,184.544,146.221,184.692z M151.326,182.956
	c-1.55-9.635-3.365-20.967-5.215-32.271C159.039,151.814,166.265,175.453,151.326,182.956z"/>
</svg>
