<?xml version="1.0" encoding="utf-8"?>
<!-- Generator: Adobe Illustrator 16.0.0, SVG Export Plug-In . SVG Version: 6.00 Build 0)  -->
<!DOCTYPE svg PUBLIC "-//W3C//DTD SVG 1.1//EN" "http://www.w3.org/Graphics/SVG/1.1/DTD/svg11.dtd">
<svg version="1.1" id="Layer_1" xmlns="http://www.w3.org/2000/svg" xmlns:xlink="http://www.w3.org/1999/xlink" x="0px" y="0px"
	 width="283.46px" height="283.46px" viewBox="0 0 283.46 283.46" enable-background="new 0 0 283.46 283.46" xml:space="preserve">
<path d="M153.613,89.932v82.847c-3.395-3.266-9.964-3.348-15.752,0.091c-6.579,3.909-9.652,10.88-6.864,15.571
	c2.787,4.692,10.378,5.326,16.957,1.418c4.914-2.918,7.868-7.547,7.89-11.656h0.002V89.932H153.613z M144.87,185.055
	c-4.981,2.959-8.871,5.221-10.982,1.669c-2.109-3.553,1.36-6.395,6.342-9.354c4.981-2.959,9.585-4.914,11.697-1.362
	C154.037,179.561,149.851,182.096,144.87,185.055z"/>
</svg>
