<?xml version="1.0" encoding="utf-8"?>
<!-- Generator: Adobe Illustrator 16.0.0, SVG Export Plug-In . SVG Version: 6.00 Build 0)  -->
<!DOCTYPE svg PUBLIC "-//W3C//DTD SVG 1.1//EN" "http://www.w3.org/Graphics/SVG/1.1/DTD/svg11.dtd">
<svg version="1.1" id="Layer_1" xmlns="http://www.w3.org/2000/svg" xmlns:xlink="http://www.w3.org/1999/xlink" x="0px" y="0px"
	 width="283.46px" height="283.46px" viewBox="0 0 283.46 283.46" enable-background="new 0 0 283.46 283.46" xml:space="preserve">
<path d="M180.731,111.516c-5.363-0.025-12.174,3.458-16.826,18.168h-15.534c2.793-9.078,5.737-15.406,8.708-15.406
	c1.638,0,3.504,2.35,2.029,3.504c-3.525-0.021-5.884,6.908-1.292,7.563c3.875,0.553,5.904-4.24,5.904-7.563
	c0-3.32-2.015-6.244-6.272-6.266c-5.366-0.025-12.175,3.458-16.829,18.168h-15.531c2.792-9.078,5.737-15.406,8.708-15.406
	c1.638,0,3.503,2.35,2.029,3.504c-3.524-0.021-5.884,6.908-1.292,7.563c3.875,0.553,5.902-4.24,5.902-7.563
	c0-3.32-2.012-6.244-6.27-6.266c-5.365-0.025-12.173,3.458-16.828,18.168h-6.463v2.898h5.596
	c-3.852,13.904-7.047,35.588-12.37,36.662c-3.939,0.795-2.952-2.213-2.952-2.213c3.121,0,4.835-6.232,1.292-7.564
	c-2.625-0.985-5.718,1.624-5.718,5.166c0,3.69,1.715,7.449,6.495,7.449c5.901,0,13.28-7.79,17.338-25.157
	c1.181-5.052,2.41-9.944,3.672-14.343h15.525c-3.851,13.904-7.046,35.588-12.37,36.662c-3.938,0.795-2.952-2.213-2.952-2.213
	c3.121,0,4.835-6.232,1.292-7.564c-2.624-0.985-5.718,1.624-5.718,5.166c0,3.69,1.716,7.449,6.495,7.449
	c5.902,0,13.279-7.79,17.338-25.157c1.181-5.052,2.409-9.944,3.673-14.343h15.526c-3.853,13.904-7.049,35.588-12.372,36.662
	c-3.938,0.795-2.951-2.213-2.951-2.213c3.121,0,4.836-6.232,1.292-7.564c-2.624-0.985-5.718,1.624-5.718,5.166
	c0,3.69,1.715,7.449,6.494,7.449c5.902,0,13.28-7.79,17.34-25.157c1.182-5.052,2.408-9.944,3.674-14.343h8.959v-2.898h-8.1
	c2.793-9.078,5.739-15.406,8.708-15.406c1.639,0,3.506,2.35,2.03,3.504c-3.523-0.021-5.883,6.908-1.292,7.563
	c3.874,0.553,5.903-4.24,5.903-7.563C187.004,114.461,184.989,111.537,180.731,111.516z"/>
</svg>
