<?xml version="1.0" encoding="utf-8"?>
<!-- Generator: Adobe Illustrator 16.0.0, SVG Export Plug-In . SVG Version: 6.00 Build 0)  -->
<!DOCTYPE svg PUBLIC "-//W3C//DTD SVG 1.1//EN" "http://www.w3.org/Graphics/SVG/1.1/DTD/svg11.dtd">
<svg version="1.1" id="Layer_1" xmlns="http://www.w3.org/2000/svg" xmlns:xlink="http://www.w3.org/1999/xlink" x="0px" y="0px"
	 width="283.46px" height="283.46px" viewBox="0 0 283.46 283.46" enable-background="new 0 0 283.46 283.46" xml:space="preserve">
<path fill="#231F20" d="M147.416,94.645c6.275,15.625,3.217,27.128-7.323,35.755c-9.872,8.079-10.145,7.447-10.14,11.415V93.908
	c3.394,3.265,9.964,3.347,15.753-0.091c6.578-3.91,9.651-10.88,6.864-15.572c-2.788-4.691-10.38-5.325-16.958-1.417
	c-4.913,2.918-7.869,7.546-7.89,11.656h-0.001v124.173h2.232V141.86c0,0.257,0.002,0.53,0.002,0.827c0,4.967,0,14.466,0,14.466
	c0-8.017,4.896-16.057,12.583-23.093c2.383-2.181,4.828-5.143,6.736-8.703c0.404,6.737,0.54,15.359-8.558,23.889
	c-9.477,8.885-10.761,10.555-10.761,13.768c0,3.211,0,10.963,0,10.963c0-4.926,7.064-13.92,13.059-21.198
	c2.83-3.437,5.406-7.782,6.858-12.423c1.55,10.738-1.835,19.861-9.157,25.879c-7.335,6.029-10.761,9.238-10.761,14.379
	s0,11.561,0,11.561c0-7.92,6.851-13.273,13.059-20.338c1.973-2.246,3.812-5.068,5.271-8.246
	c-0.504,9.967-3.844,20.105-10.576,25.693c-8.003,6.646-7.755,9.543-7.755,12.172s0,11.203,0,11.203
	c0-6.086,3.746-14.41,10.107-20.484c6.105-5.828,11.803-17.516,8.706-29.709c2.773-6.609,3.854-14.58,1.111-22.128
	c1.563-5.012,1.791-10.363-0.438-15.302C153.562,117.136,155.011,106.374,147.416,94.645z"/>
</svg>
