<?xml version="1.0" encoding="utf-8"?>
<!-- Generator: Adobe Illustrator 16.0.0, SVG Export Plug-In . SVG Version: 6.00 Build 0)  -->
<!DOCTYPE svg PUBLIC "-//W3C//DTD SVG 1.1//EN" "http://www.w3.org/Graphics/SVG/1.1/DTD/svg11.dtd">
<svg version="1.1" id="Layer_1" xmlns="http://www.w3.org/2000/svg" xmlns:xlink="http://www.w3.org/1999/xlink" x="0px" y="0px"
	 width="283.46px" height="283.46px" viewBox="0 0 283.46 283.46" enable-background="new 0 0 283.46 283.46" xml:space="preserve">
<path d="M168.148,93.756c-1.068-0.31-2.211,0.118-2.805,1.051c-7.689,12.066-15.824,18.954-24.177,20.478
	c-0.991,0.18-1.979,0.255-2.971,0.289c3.35-2.641,5.532-6.696,5.532-11.303c0-7.965-6.453-14.429-14.425-14.429
	c-7.986,0-14.433,6.463-14.433,14.429c0,14.306,18.683,17.465,27.19,15.912c8.033-1.462,15.713-6.886,22.895-16.14v28.343
	c-7.576,11.69-15.569,18.393-23.789,19.894c-0.991,0.184-1.979,0.258-2.968,0.288c3.349-2.638,5.529-6.68,5.529-11.279
	c0-7.988-6.453-14.436-14.425-14.436c-7.986,0-14.433,6.448-14.433,14.436c0,11.374,11.849,16.286,22.778,16.286
	c1.48,0,2.956-0.13,4.412-0.395c8.039-1.465,15.713-6.957,22.895-16.221v51.929h4.983V96.148
	C169.939,95.036,169.207,94.069,168.148,93.756z"/>
</svg>
