<?xml version="1.0" encoding="utf-8"?>
<!-- Generator: Adobe Illustrator 16.0.0, SVG Export Plug-In . SVG Version: 6.00 Build 0)  -->
<!DOCTYPE svg PUBLIC "-//W3C//DTD SVG 1.1//EN" "http://www.w3.org/Graphics/SVG/1.1/DTD/svg11.dtd">
<svg version="1.1" id="Layer_1" xmlns="http://www.w3.org/2000/svg" xmlns:xlink="http://www.w3.org/1999/xlink" x="0px" y="0px"
	 width="283.46px" height="283.46px" viewBox="0 0 283.46 283.46" enable-background="new 0 0 283.46 283.46" xml:space="preserve">
<path fill-rule="evenodd" clip-rule="evenodd" d="M148.348,130.712c-3.357,2.182-6.636,4.233-10.74,4.438
	c-1.859,0.095-3.677-0.073-5.408-0.793c-2.487-1.036-3.959-3.407-3.767-6.009c0.194-2.614,2.061-4.811,4.591-5.401
	c2.563-0.6,5.079,0.465,6.516,2.786c0.28,0.453,0.472,0.959,0.701,1.443c1.24,2.611,2.615,3.046,5.141,1.616
	c2.174-1.23,3.807-3.067,5.457-4.885c0.639-0.7,1.301-1.443,2.338-0.81c1.034,0.631,0.713,1.565,0.357,2.449
	c-4.56,11.377-9.113,22.757-13.69,34.129c-0.397,0.985-0.862,2.235-2.278,1.556c-1.352-0.65-0.73-1.828-0.337-2.812
	c3.43-8.526,6.874-17.052,10.312-25.577C147.825,132.14,148.079,131.421,148.348,130.712z"/>
</svg>
