<?xml version="1.0" encoding="utf-8"?>
<!-- Generator: Adobe Illustrator 16.0.0, SVG Export Plug-In . SVG Version: 6.00 Build 0)  -->
<!DOCTYPE svg PUBLIC "-//W3C//DTD SVG 1.1//EN" "http://www.w3.org/Graphics/SVG/1.1/DTD/svg11.dtd">
<svg version="1.1" id="Layer_1" xmlns="http://www.w3.org/2000/svg" xmlns:xlink="http://www.w3.org/1999/xlink" x="0px" y="0px"
	 width="283.46px" height="283.46px" viewBox="0 0 283.46 283.46" enable-background="new 0 0 283.46 283.46" xml:space="preserve">
<path d="M147.697,103.645c6.273,15.625,3.217,27.128-7.324,35.755c-9.872,8.079-10.146,7.447-10.14,11.414v-47.906
	c3.394,3.265,9.964,3.347,15.753-0.091c6.578-3.91,9.651-10.88,6.863-15.572c-2.787-4.691-10.378-5.325-16.957-1.417
	c-4.913,2.918-7.869,7.546-7.89,11.656H128v103.689h2.232V150.86c0.001,0.257,0.002,0.529,0.002,0.827c0,4.967,0,14.465,0,14.465
	c0-8.016,4.896-16.057,12.582-23.092c2.383-2.181,4.828-5.144,6.737-8.704c0.404,6.737,0.539,15.36-8.558,23.888
	c-9.476,8.886-10.761,10.556-10.761,13.768s0,10.963,0,10.963c0-4.925,7.064-13.919,13.059-21.198
	c2.83-3.436,5.406-7.782,6.858-12.422c1.551,10.737-1.834,19.861-9.157,25.879c-7.336,6.028-10.761,9.238-10.761,14.379
	c0,5.14,0,11.561,0,11.561c0-7.92,6.85-13.274,13.059-20.339c6.202-7.06,11.12-19.8,6.864-31.499
	c1.564-5.012,1.791-10.362-0.438-15.302C153.843,126.136,155.29,115.374,147.697,103.645z"/>
</svg>
