<?xml version="1.0" encoding="utf-8"?>
<!-- Generator: Adobe Illustrator 16.0.0, SVG Export Plug-In . SVG Version: 6.00 Build 0)  -->
<!DOCTYPE svg PUBLIC "-//W3C//DTD SVG 1.1//EN" "http://www.w3.org/Graphics/SVG/1.1/DTD/svg11.dtd">
<svg version="1.1" id="Layer_1" xmlns="http://www.w3.org/2000/svg" xmlns:xlink="http://www.w3.org/1999/xlink" x="0px" y="0px"
	 width="283.46px" height="283.46px" viewBox="0 0 283.46 283.46" enable-background="new 0 0 283.46 283.46" xml:space="preserve">
<path d="M162.285,130.17c4.123-7.897,5.571-18.66-2.023-30.389c6.273,15.624,3.217,27.129-7.324,35.756
	c-9.637,7.886-10.124,7.484-10.138,11.15V96.19h-0.004c0.012-1.404-0.313-2.749-1.022-3.945c-2.788-4.691-10.38-5.325-16.958-1.417
	c-6.578,3.907-9.652,10.878-6.865,15.57s10.379,5.327,16.957,1.419c2.39-1.42,4.309-3.245,5.66-5.216v94.708h2.232
	c0-7.922,6.85-13.274,13.059-20.34c6.202-7.058,11.119-19.799,6.863-31.497C164.286,140.461,164.514,135.111,162.285,130.17z
	 M142.8,162.29c0-8.018,4.896-16.056,12.582-23.093c2.384-2.181,4.826-5.143,6.736-8.704c0.404,6.737,0.54,15.36-8.559,23.889
	c-9.476,8.886-10.76,10.556-10.76,13.767V162.29z M153.56,171.369c-7.335,6.029-10.76,9.239-10.76,14.379v-6.638
	c0-4.924,7.063-13.917,13.059-21.196c2.83-3.436,5.406-7.781,6.859-12.423C164.267,156.23,160.883,165.354,153.56,171.369z"/>
</svg>
