<?xml version="1.0" encoding="utf-8"?>
<!-- Generator: Adobe Illustrator 16.0.0, SVG Export Plug-In . SVG Version: 6.00 Build 0)  -->
<!DOCTYPE svg PUBLIC "-//W3C//DTD SVG 1.1//EN" "http://www.w3.org/Graphics/SVG/1.1/DTD/svg11.dtd">
<svg version="1.1" id="Layer_1" xmlns="http://www.w3.org/2000/svg" xmlns:xlink="http://www.w3.org/1999/xlink" x="0px" y="0px"
	 width="283.46px" height="283.46px" viewBox="0 0 283.46 283.46" enable-background="new 0 0 283.46 283.46" xml:space="preserve">
<path d="M155.525,154.75c-0.432-1.141-1.706-1.719-2.864-1.292c-1.144,0.438-1.716,1.718-1.289,2.86
	c3.343,8.854-4.808,14.83-13.433,20.188l-1.694,1.064c-3.863,2.475-6.493,4.506-8.351,6.362v-69.208
	c4.097,2.716,10.382,3.085,16.354,0.44c8.298-3.686,12.791-11.72,10.045-17.945c-2.763-6.235-11.74-8.298-20.052-4.622
	c-7.042,3.134-11.321,9.372-10.784,14.994v84.921c0,1.221,0.993,2.221,2.219,2.221c1.223,0,2.219-1,2.219-2.221v-0.17
	c0.791-2.875,2.199-5.572,10.74-11.027l1.646-1.037C147.321,175.898,160.421,167.754,155.525,154.75z"/>
</svg>
