<?xml version="1.0" encoding="utf-8"?>
<!-- Generator: Adobe Illustrator 16.0.0, SVG Export Plug-In . SVG Version: 6.00 Build 0)  -->
<!DOCTYPE svg PUBLIC "-//W3C//DTD SVG 1.1//EN" "http://www.w3.org/Graphics/SVG/1.1/DTD/svg11.dtd">
<svg version="1.1" id="Layer_1" xmlns="http://www.w3.org/2000/svg" xmlns:xlink="http://www.w3.org/1999/xlink" x="0px" y="0px"
	 width="283.46px" height="283.46px" viewBox="0 0 283.46 283.46" enable-background="new 0 0 283.46 283.46" xml:space="preserve">
<path d="M138.592,143.601c4.778,9.653,10.035,12.848,17.049,11.985c7.745-0.957,10.698-7.239,10.698-14.167
	c0-6.923-5.386-12.452-8.593-12.452c-2.691,0-4.616,1.427-4.616,4.503c0,3.078,9.361,2.577,9.361,10.644
	c0,3.68-2.973,6.157-6.487,6.157c-3.516,0-7.459-3.836-10.537-10.389l0.004,0.004c-4.776-9.652-10.034-12.848-17.047-11.982
	c-7.745,0.953-10.7,7.238-10.7,14.162c0,6.925,5.388,12.455,8.594,12.455c2.693,0,4.616-1.425,4.616-4.504
	c0-3.076-9.361-2.575-9.361-10.644c0-3.677,2.973-6.155,6.488-6.155c3.515,0,7.457,3.832,10.537,10.387L138.592,143.601z"/>
</svg>
