<?xml version="1.0" encoding="utf-8"?>
<!-- Generator: Adobe Illustrator 16.0.0, SVG Export Plug-In . SVG Version: 6.00 Build 0)  -->
<!DOCTYPE svg PUBLIC "-//W3C//DTD SVG 1.1//EN" "http://www.w3.org/Graphics/SVG/1.1/DTD/svg11.dtd">
<svg version="1.1" id="Layer_1" xmlns="http://www.w3.org/2000/svg" xmlns:xlink="http://www.w3.org/1999/xlink" x="0px" y="0px"
	 width="283.46px" height="283.46px" viewBox="0 0 283.46 283.46" enable-background="new 0 0 283.46 283.46" xml:space="preserve">
<g>
	<path fill-rule="evenodd" clip-rule="evenodd" d="M141.711,154.308c43.114,0,86.226,0,129.338,0c0.519,0,1.036,0.024,1.553,0
		c1.193-0.059,1.79,0.396,1.818,1.688c0.031,1.399-0.629,1.851-1.891,1.785c-0.458-0.025-0.92,0-1.381,0
		c-86.28,0-172.563,0-258.847,0c-0.516,0-1.037-0.025-1.553-0.003c-1.24,0.051-1.738-0.511-1.729-1.768
		c0.013-1.286,0.599-1.761,1.801-1.702c0.519,0.025,1.038,0,1.556,0C55.487,154.308,98.601,154.308,141.711,154.308z"/>
	<path fill-rule="evenodd" clip-rule="evenodd" d="M141.58,128.477c-43.339,0-86.683,0-130.023,0c-2.354,0-2.641-0.283-2.529-2.133
		c0.056-0.883,0.449-1.239,1.272-1.263c0.746-0.024,1.493-0.078,2.241-0.078c24.808-0.002,49.614-0.011,74.424,0.003
		c11.088,0.008,22.179,0.093,33.268,0.101c7.467,0.002,14.933-0.114,22.397-0.107c12.234,0.01,24.471,0.116,36.705,0.109
		c30.269-0.012,60.535-0.069,90.802-0.105c0.92-0.002,1.843,0.06,2.76,0.045c1.226-0.018,1.547,0.624,1.524,1.746
		c-0.023,1.129-0.39,1.755-1.608,1.683c-0.574-0.034-1.15,0-1.726,0C227.917,128.477,184.75,128.477,141.58,128.477z"/>
	<path fill-rule="evenodd" clip-rule="evenodd" d="M141.726,113.706c-43.404,0-86.807,0.002-130.212-0.02
		c-0.968,0-2.339,0.533-2.466-1.272c-0.094-1.302,0.216-2.159,1.766-2.022c0.628,0.054,1.264,0.002,1.896,0.002
		c49.338,0.008,98.669,0.019,148.003,0.019c36.843,0.001,73.686-0.011,110.524-0.019c0.575,0,1.153,0.033,1.729,0.01
		c1.19-0.049,1.436,0.661,1.436,1.657c0,0.992-0.229,1.721-1.433,1.643c-0.345-0.024-0.692,0.003-1.037,0.003
		c-35.114,0.002-70.23,0.003-105.344,0.007c-8.286,0-16.577,0-24.862,0C141.726,113.709,141.726,113.708,141.726,113.706z"/>
	<path fill-rule="evenodd" clip-rule="evenodd" d="M141.792,169.065c43.52,0,87.041,0,130.563,0
		c1.939,0.002,2.174,0.264,2.047,1.982c-0.066,0.941-0.501,1.349-1.417,1.322c-0.4-0.009-0.805,0.007-1.206,0.007
		c-86.698,0-173.393,0-260.09,0c-2.497,0-2.834-0.292-2.653-2.165c0.072-0.75,0.328-1.2,1.156-1.149
		c0.345,0.018,0.69,0.003,1.036,0.003C54.75,169.065,98.271,169.065,141.792,169.065z"/>
	<path fill-rule="evenodd" clip-rule="evenodd" d="M141.711,139.73c43.405,0,86.811,0,130.219,0.002c2.278,0,2.702,0.4,2.452,2.166
		c-0.107,0.759-0.452,1.145-1.229,1.133c-0.458-0.007-0.919,0.014-1.381,0.014c-86.697,0-173.392,0-260.09,0
		c-2.458,0-2.883-0.372-2.628-2.166c0.107-0.759,0.457-1.143,1.231-1.135c0.575,0.005,1.149-0.014,1.724-0.014
		C55.245,139.73,98.477,139.73,141.711,139.73z"/>
</g>
</svg>
