<?xml version="1.0" encoding="utf-8"?>
<!-- Generator: Adobe Illustrator 16.0.0, SVG Export Plug-In . SVG Version: 6.00 Build 0)  -->
<!DOCTYPE svg PUBLIC "-//W3C//DTD SVG 1.1//EN" "http://www.w3.org/Graphics/SVG/1.1/DTD/svg11.dtd">
<svg version="1.1" id="Layer_1" xmlns="http://www.w3.org/2000/svg" xmlns:xlink="http://www.w3.org/1999/xlink" x="0px" y="0px"
	 width="283.46px" height="283.46px" viewBox="0 0 283.46 283.46" enable-background="new 0 0 283.46 283.46" xml:space="preserve">
<path d="M143.081,163.741c-0.313,0-0.616-0.015-0.911-0.038v-45.458c0.647-0.216,1.318-0.361,2.034-0.361
	c2.6,0,7.622,0.866,9.676,5.859c-5.543-0.763-7.863,2.591-8.473,6.601c-0.465,3.05,1.32,8.602,6.24,9.038
	c4.922,0.436,7.972-4.864,7.972-8.557c0-7.266-3.854-16.218-15.254-16.218c-0.741,0-1.473,0.045-2.195,0.13v-16.92h-2.232v17.322
	c-9.321,2.229-16.446,11.448-16.446,24.268c0,14.743,6.006,25.092,16.446,26.426v20.256h2.232v-20.106
	c0.037,0,0.07,0.005,0.107,0.005c10.51,0,16.699-6.1,17.342-18.623h-1.766C157.854,155.541,152.286,163.741,143.081,163.741z
	 M139.938,163.213c-7.013-2.579-6.781-14.228-6.781-23.172c0-7.912,2.28-16.978,6.781-20.562V163.213z"/>
</svg>
