<?xml version="1.0" encoding="utf-8"?>
<!-- Generator: Adobe Illustrator 16.0.0, SVG Export Plug-In . SVG Version: 6.00 Build 0)  -->
<!DOCTYPE svg PUBLIC "-//W3C//DTD SVG 1.1//EN" "http://www.w3.org/Graphics/SVG/1.1/DTD/svg11.dtd">
<svg version="1.1" id="Layer_1" xmlns="http://www.w3.org/2000/svg" xmlns:xlink="http://www.w3.org/1999/xlink" x="0px" y="0px"
	 width="283.46px" height="283.46px" viewBox="0 0 283.46 283.46" enable-background="new 0 0 283.46 283.46" xml:space="preserve">
<g>
	<path fill-rule="evenodd" clip-rule="evenodd" d="M133.877,112.928c2.963,1.384,5.063,3.304,6.284,6.125
		c2.504,5.784-0.553,12.729-6.588,14.853c-5.905,2.079-12.352-1.283-14.178-7.254c-1.174-3.84-0.333-7.18,1.973-10.303
		c2.094-2.832,4.175-5.649,7.083-7.761c6.727-4.883,14.044-5.132,21.613-2.706c12.212,3.913,17.524,16.891,15.651,28.469
		c-2.418,14.969-11.343,25.305-23.819,32.956c-8.276,5.07-17.437,7.826-26.948,9.528c-4.472,0.799-8.914,1.759-13.411,2.508
		c0.804-0.706,1.812-0.826,2.778-1.089c6.658-1.816,13.476-3.059,19.893-5.725c9.311-3.869,16.701-10.065,22.261-18.425
		c5.019-7.553,8.021-15.781,7.824-24.984c-0.189-8.854-5.059-15.112-13.326-17.005C138.682,111.592,136.353,111.559,133.877,112.928
		z"/>
	<path fill-rule="evenodd" clip-rule="evenodd" d="M167.879,137.036c0.033-3.553,3.032-6.471,6.562-6.383
		c3.509,0.09,6.456,3.127,6.411,6.608c-0.043,3.381-3.227,6.557-6.553,6.539C170.762,143.78,167.848,140.71,167.879,137.036z"/>
	<path fill-rule="evenodd" clip-rule="evenodd" d="M167.611,116.255c-0.022-3.659,2.76-6.498,6.368-6.501
		c3.57,0,6.378,2.873,6.374,6.53c-0.002,3.683-2.797,6.511-6.395,6.477C170.297,122.726,167.635,120,167.611,116.255z"/>
</g>
</svg>
