<?xml version="1.0" encoding="utf-8"?>
<!-- Generator: Adobe Illustrator 16.0.0, SVG Export Plug-In . SVG Version: 6.00 Build 0)  -->
<!DOCTYPE svg PUBLIC "-//W3C//DTD SVG 1.1//EN" "http://www.w3.org/Graphics/SVG/1.1/DTD/svg11.dtd">
<svg version="1.1" id="Layer_1" xmlns="http://www.w3.org/2000/svg" xmlns:xlink="http://www.w3.org/1999/xlink" x="0px" y="0px"
	 width="283.46px" height="283.46px" viewBox="0 0 283.46 283.46" enable-background="new 0 0 283.46 283.46" xml:space="preserve">
<path fill-rule="evenodd" clip-rule="evenodd" d="M153.733,156.133c-2.591,0.771-4.757,1.039-6.679,2.02
	c-4.177,2.129-6.105,6.466-5.378,11.986c0.169,1.289,0.453,2.564,0.653,3.852c0.065,0.42,0.351,0.942-0.144,1.25
	c-0.37,0.229-0.758-0.068-1.073-0.281c-2.772-1.863-5.411-3.889-7.311-6.695c-2.425-3.588-1.864-7.958,1.354-10.986
	c1.775-1.669,3.878-2.834,6.127-3.95c-1.717-1.302-3.409-2.499-5.007-3.809c-5.602-4.586-7.032-10.554-4.086-17.129
	c1.654-3.685,3.47-7.299,5.099-10.993c1.663-3.775,1.983-7.663,0.563-11.616c-0.145-0.401-0.525-0.899-0.064-1.257
	c0.459-0.355,0.829,0.15,1.198,0.367c3.853,2.261,7.392,4.895,10.047,8.559c3.142,4.338,3.301,8.956,1.054,13.669
	c-1.341,2.82-2.943,5.515-4.408,8.278c-3.156,5.96-1.855,10.571,3.934,14.085C150.875,154.244,152.092,155.074,153.733,156.133z"/>
</svg>
