<?xml version="1.0" encoding="utf-8"?>
<!-- Generator: Adobe Illustrator 16.0.0, SVG Export Plug-In . SVG Version: 6.00 Build 0)  -->
<!DOCTYPE svg PUBLIC "-//W3C//DTD SVG 1.1//EN" "http://www.w3.org/Graphics/SVG/1.1/DTD/svg11.dtd">
<svg version="1.1" id="Layer_1" xmlns="http://www.w3.org/2000/svg" xmlns:xlink="http://www.w3.org/1999/xlink" x="0px" y="0px"
	 width="283.46px" height="283.46px" viewBox="0 0 283.46 283.46" enable-background="new 0 0 283.46 283.46" xml:space="preserve">
<path d="M155.404,171.794c4.914-4.223,7.48-7.551,7.467-13.85c-0.008-4.589-1.674-8.498-8.008-13.339
	c13.41-11.179,7.188-25.418-6.458-33.644v-10.409h-2.044v9.252c-0.647-0.344-1.305-0.681-1.979-0.997
	c-1.506-0.708-2.897-1.449-4.184-2.216v-6.039h-2.044v4.739c-5.063-3.454-7.905-7.295-7.905-10.82c0-4.781,3.372-8.827,8.375-8.827
	c10.977,0,10.295,12.735,14.481,12.735s6.127-2.616,6.127-6.28c0-4.361-7.523-11.69-16.944-11.69c-9.422,0-17.97,4.02-19.27,14.559
	c-0.907,7.365,1.498,13.305,8.676,18.621c-5.267,4.459-8.016,7.8-7.993,14.329c0.014,4.083,1.333,7.625,6.091,11.758
	c-13.163,11.49-6.061,26.039,8.362,34.011v11.6h2.044v-10.541c0.192,0.095,0.38,0.193,0.577,0.286
	c2.072,0.972,3.934,2.011,5.587,3.089v7.166h2.044v-5.725c4.179,3.181,6.501,6.622,6.501,9.806c0,4.784-3.371,8.828-8.373,8.828
	c-10.977,0-10.295-12.738-14.482-12.738c-4.188,0-6.126,2.616-6.126,6.28c0,4.36,7.521,11.689,16.944,11.689
	c9.421,0,17.969-4.017,19.269-14.557C162.957,182.212,161.074,176.717,155.404,171.794z M138.154,161.103
	c-8.361-6.006-12.929-13.58-6.048-19.574c1.683,1.253,3.684,2.574,6.048,3.981V161.103z M138.154,134.167
	c-9.582-6.854-10.477-13.437-4.094-18.957c1.247,0.793,2.611,1.571,4.094,2.342V134.167z M146.361,165.954
	c-0.179-0.093-0.344-0.185-0.527-0.275c-1.965-0.973-3.863-2.044-5.636-3.188v-15.792c0.761,0.435,1.55,0.874,2.379,1.325
	c1.366,0.742,2.624,1.483,3.784,2.224V165.954z M146.361,139.111c-0.748-0.425-1.521-0.858-2.335-1.302
	c-1.382-0.756-2.656-1.509-3.829-2.26v-16.945c2.177,1.123,4.259,2.359,6.164,3.681V139.111z M148.405,123.788
	c7.682,6.004,11.372,13.322,4.007,19.056c-1.201-0.813-2.533-1.66-4.007-2.538V123.788z M153.193,170.053
	c-1.416-1.028-2.997-2.036-4.788-3.026v-15.404C157.727,158.247,158.899,164.63,153.193,170.053z"/>
</svg>
