<?xml version="1.0" encoding="utf-8"?>
<!-- Generator: Adobe Illustrator 16.0.0, SVG Export Plug-In . SVG Version: 6.00 Build 0)  -->
<!DOCTYPE svg PUBLIC "-//W3C//DTD SVG 1.1//EN" "http://www.w3.org/Graphics/SVG/1.1/DTD/svg11.dtd">
<svg version="1.1" id="Layer_1" xmlns="http://www.w3.org/2000/svg" xmlns:xlink="http://www.w3.org/1999/xlink" x="0px" y="0px"
	 width="283.46px" height="283.46px" viewBox="0 0 283.46 283.46" enable-background="new 0 0 283.46 283.46" xml:space="preserve">
<path d="M119.194,89.694v104.098h2.232v-12.887h12.299v12.887h2.231v-12.887h12.299v12.887h2.231v-12.887h12.299v12.887h2.232
	V89.694H119.194z M133.726,178.672h-12.299v-12.298h12.299V178.672z M133.726,164.143h-12.299v-12.298h12.299V164.143z
	 M133.726,149.611h-12.299v-12.298h12.299V149.611z M133.726,135.082h-12.299v-18.058h12.299V135.082z M133.726,114.792h-12.299
	V101.37h12.299V114.792z M148.257,178.672h-12.299v-12.298h12.299V178.672z M148.257,164.143h-12.299v-12.298h12.299V164.143z
	 M148.257,149.611h-12.299v-12.298h12.299V149.611z M148.257,135.082h-12.299v-18.058h12.299V135.082z M148.257,114.792h-12.299
	V101.37h12.299V114.792z M162.787,178.672h-12.299v-12.298h12.299V178.672z M162.787,164.143h-12.299v-12.298h12.299V164.143z
	 M162.787,149.611h-12.299v-12.298h12.299V149.611z M162.787,135.082h-12.299v-18.058h12.299V135.082z M162.787,114.792h-12.299
	V101.37h12.299V114.792z"/>
</svg>
