<?xml version="1.0" encoding="utf-8"?>
<!-- Generator: Adobe Illustrator 16.0.0, SVG Export Plug-In . SVG Version: 6.00 Build 0)  -->
<!DOCTYPE svg PUBLIC "-//W3C//DTD SVG 1.1//EN" "http://www.w3.org/Graphics/SVG/1.1/DTD/svg11.dtd">
<svg version="1.1" id="Layer_1" xmlns="http://www.w3.org/2000/svg" xmlns:xlink="http://www.w3.org/1999/xlink" x="0px" y="0px"
	 width="283.46px" height="283.46px" viewBox="0 0 283.46 283.46" enable-background="new 0 0 283.46 283.46" xml:space="preserve">
<path d="M148.48,152.145c4.801-9.795,1.04-19.122-2.863-24.9c-8.044-11.908-16.712-12.925-16.712-27.856v43.588
	c0,0,5.428,0.209,12.401,7.721c9.514,10.25,10.8,20.424,4.998,33.369C154.497,172.622,153.138,160.69,148.48,152.145z
	 M145.617,147.798c-6.683-8.472-14.899-16.389-16.436-28.832c1.181,0.612,6.067,3.368,12.125,9.895
	c6.114,6.586,8.807,13.871,6.624,22.315C147.217,149.971,146.439,148.839,145.617,147.798z"/>
</svg>
