<?xml version="1.0" encoding="utf-8"?>
<!-- Generator: Adobe Illustrator 16.0.0, SVG Export Plug-In . SVG Version: 6.00 Build 0)  -->
<!DOCTYPE svg PUBLIC "-//W3C//DTD SVG 1.1//EN" "http://www.w3.org/Graphics/SVG/1.1/DTD/svg11.dtd">
<svg version="1.1" id="Layer_1" xmlns="http://www.w3.org/2000/svg" xmlns:xlink="http://www.w3.org/1999/xlink" x="0px" y="0px"
	 width="283.46px" height="283.46px" viewBox="0 0 283.46 283.46" enable-background="new 0 0 283.46 283.46" xml:space="preserve">
<path d="M135.382,169.87c-2.388,1.421-4.309,3.247-5.66,5.218v-38.144c0,0,4.144-3.645,11.117,3.868
	c8.499,9.155,10.458,12.137,10.281,25.379c1.526-8.381,1.346-13.816-0.08-18.24c6.004-10.455-0.458-20.599-4.605-26.739
	c-8.043-11.909-16.713-12.924-16.713-27.857h-2.232v88.271h0.003c0.009,1.357,0.337,2.656,1.025,3.816
	c2.788,4.692,10.38,5.326,16.958,1.418s9.651-10.879,6.866-15.57C149.553,166.598,141.961,165.963,135.382,169.87z M142.123,122.828
	c6.618,7.129,11.549,15.073,8.682,24.422c-1.212-3.366-3.164-6.181-5.655-9.339c-6.664-8.447-13.815-13.227-15.177-24.992
	C131.112,113.508,136.027,116.26,142.123,122.828z"/>
</svg>
