<?xml version="1.0" encoding="utf-8"?>
<!-- Generator: Adobe Illustrator 16.0.0, SVG Export Plug-In . SVG Version: 6.00 Build 0)  -->
<!DOCTYPE svg PUBLIC "-//W3C//DTD SVG 1.1//EN" "http://www.w3.org/Graphics/SVG/1.1/DTD/svg11.dtd">
<svg version="1.1" id="Layer_1" xmlns="http://www.w3.org/2000/svg" xmlns:xlink="http://www.w3.org/1999/xlink" x="0px" y="0px"
	 width="283.46px" height="283.46px" viewBox="0 0 283.46 283.46" enable-background="new 0 0 283.46 283.46" xml:space="preserve">
<path d="M153.313,177.289c-2.786-4.691-10.379-5.326-16.957-1.419c-2.392,1.421-4.31,3.247-5.661,5.218v-46.529
	c0.012,3.666,0.502,3.264,10.138,11.151c10.541,8.626,9.907,13.618,8.925,26.48c2.494-9.104,2.616-15.132,0.983-19.876
	c1.638-4.562,1.302-9.409-0.124-13.971c4.257-11.699-0.662-24.439-6.863-31.496c-6.21-7.066-13.059-12.417-13.059-20.339h-2.231
	v101.116h0.002c0.008,1.357,0.337,2.656,1.025,3.816c2.787,4.692,10.381,5.326,16.958,1.418S156.101,181.98,153.313,177.289z
	 M130.695,98.07c0,5.139,3.425,8.349,10.76,14.376c7.323,6.017,10.708,15.14,9.157,25.878c-1.452-4.641-4.028-8.986-6.858-12.423
	c-5.995-7.278-13.059-16.271-13.059-21.194V98.07z M130.695,115.667c0,3.211,1.284,4.882,10.76,13.767
	c7.984,7.485,8.854,15.042,8.675,21.335c-1.466-3.254-3.815-5.939-6.853-8.72c-7.686-7.037-12.582-15.076-12.582-23.093V115.667z"/>
</svg>
