<?xml version="1.0" encoding="utf-8"?>
<!-- Generator: Adobe Illustrator 16.0.0, SVG Export Plug-In . SVG Version: 6.00 Build 0)  -->
<!DOCTYPE svg PUBLIC "-//W3C//DTD SVG 1.1//EN" "http://www.w3.org/Graphics/SVG/1.1/DTD/svg11.dtd">
<svg version="1.1" id="Layer_1" xmlns="http://www.w3.org/2000/svg" xmlns:xlink="http://www.w3.org/1999/xlink" x="0px" y="0px"
	 width="283.46px" height="283.46px" viewBox="0 0 283.46 283.46" enable-background="new 0 0 283.46 283.46" xml:space="preserve">
<path fill-rule="evenodd" clip-rule="evenodd" d="M176.729,135.643c0,8.516-0.076,17.029,0.029,25.539
	c0.062,5.02-2.142,8.537-6.526,10.709c-4.453,2.204-9.044,2.527-13.415-0.102c-5.635-3.383-6.023-9.741-0.913-14.002
	c4.597-3.83,9.791-4.411,15.33-2.354c2.35,0.872,2.506,0.808,2.514-1.598c0.03-9.587,0.053-19.171,0.057-28.758
	c0-2.93-0.086-3.023-2.975-2.672c-11.633,1.408-23.261,2.888-34.9,4.251c-2.179,0.256-2.918,1.092-2.896,3.353
	c0.108,12.041-0.226,24.089,0.144,36.119c0.231,7.451-6.267,11.962-11.417,12.399c-3.453,0.294-6.726-0.072-9.588-2.301
	c-4.053-3.152-4.543-8.246-1.105-12.104c3.929-4.413,10.63-5.948,16.229-3.72c2.825,1.123,2.832,1.123,2.832-1.99
	c0.004-14.418,0-28.837,0.002-43.255c0.002-4.099,0.521-4.772,4.627-5.26c9.813-1.165,19.634-2.251,29.453-3.376
	c2.74-0.315,5.471-0.706,8.215-0.972c3.453-0.331,4.272,0.364,4.294,3.868c0.052,7.975,0.016,15.95,0.016,23.925
	C176.733,134.11,176.733,134.876,176.729,135.643z M134.506,123.206c0.514-0.043,0.819-0.06,1.123-0.097
	c11.769-1.45,23.541-2.883,35.305-4.396c1.042-0.135,2.985,0.207,2.652-1.667c-0.33-1.857-2.112-1.048-3.277-0.908
	c-8.281,0.989-16.551,2.053-24.824,3.097c-3.566,0.453-7.133,0.918-10.701,1.369c-1.069,0.133-1.728,0.645-1.633,1.792
	C133.236,123.445,134.039,123.228,134.506,123.206z"/>
</svg>
