<?xml version="1.0" encoding="utf-8"?>
<!-- Generator: Adobe Illustrator 16.0.0, SVG Export Plug-In . SVG Version: 6.00 Build 0)  -->
<!DOCTYPE svg PUBLIC "-//W3C//DTD SVG 1.1//EN" "http://www.w3.org/Graphics/SVG/1.1/DTD/svg11.dtd">
<svg version="1.1" id="Layer_1" xmlns="http://www.w3.org/2000/svg" xmlns:xlink="http://www.w3.org/1999/xlink" x="0px" y="0px"
	 width="283.46px" height="283.46px" viewBox="0 0 283.46 283.46" enable-background="new 0 0 283.46 283.46" xml:space="preserve">
<path d="M142.939,113.746c0,0,5.609,3.764,5.609,9.779c0,6.015-8.45,6.201-8.45,12.185c0,5.985,8.45,7.667,8.45,13.463
	c0,5.797-8.45,8.065-8.45,13.652c0,3.552,2.841,4.861,2.841,4.861l-1.343,2.054c0,0-5.608-3.763-5.608-9.778
	c0-6.015,8.453-6.202,8.453-12.185c0-5.984-8.453-7.668-8.453-13.464c0-5.797,8.453-8.065,8.453-13.651
	c0-3.552-2.845-4.862-2.845-4.862L142.939,113.746z"/>
</svg>
