<?xml version="1.0" encoding="utf-8"?>
<!-- Generator: Adobe Illustrator 16.0.0, SVG Export Plug-In . SVG Version: 6.00 Build 0)  -->
<!DOCTYPE svg PUBLIC "-//W3C//DTD SVG 1.1//EN" "http://www.w3.org/Graphics/SVG/1.1/DTD/svg11.dtd">
<svg version="1.1" id="Layer_1" xmlns="http://www.w3.org/2000/svg" xmlns:xlink="http://www.w3.org/1999/xlink" x="0px" y="0px"
	 width="283.46px" height="283.46px" viewBox="0 0 283.46 283.46" enable-background="new 0 0 283.46 283.46" xml:space="preserve">
<path d="M162.968,150.223c2.229-4.939,2.001-10.291,0.437-15.302c4.257-11.699-0.661-24.439-6.863-31.496
	c-6.209-7.064-13.059-12.417-13.059-20.338h-2.233v95.693c-3.394-3.266-9.965-3.348-15.753,0.091
	c-6.579,3.909-9.651,10.88-6.865,15.571c2.788,4.692,10.38,5.326,16.958,1.418c4.914-2.918,7.868-7.547,7.891-11.656h0.002v-50.497
	c0.013,3.666,0.502,3.263,10.138,11.149c10.54,8.627,13.599,20.131,7.323,35.755C168.537,168.883,167.09,158.121,162.968,150.223z
	 M143.482,94.647c0,5.139,3.425,8.349,10.761,14.376c7.322,6.016,10.706,15.14,9.156,25.878c-1.452-4.64-4.028-8.987-6.858-12.423
	c-5.994-7.279-13.059-16.271-13.059-21.195V94.647z M162.801,149.9c-1.91-3.561-4.354-6.523-6.736-8.705
	c-7.687-7.036-12.582-15.076-12.582-23.093v-5.859c0,3.211,1.285,4.881,10.761,13.767C163.34,134.541,163.205,143.162,162.801,149.9
	z"/>
</svg>
