<?xml version="1.0" encoding="utf-8"?>
<!-- Generator: Adobe Illustrator 16.0.0, SVG Export Plug-In . SVG Version: 6.00 Build 0)  -->
<!DOCTYPE svg PUBLIC "-//W3C//DTD SVG 1.1//EN" "http://www.w3.org/Graphics/SVG/1.1/DTD/svg11.dtd">
<svg version="1.1" id="Layer_1" xmlns="http://www.w3.org/2000/svg" xmlns:xlink="http://www.w3.org/1999/xlink" x="0px" y="0px"
	 width="283.46px" height="283.46px" viewBox="0 0 283.46 283.46" enable-background="new 0 0 283.46 283.46" xml:space="preserve">
<path fill-rule="evenodd" clip-rule="evenodd" d="M130.185,168.043c3.517-5.938,9.007-7.684,14.66-9.192
	c1.255-0.335,2.472-0.897,3.615-1.521c3.71-2.012,4.823-4.666,3.536-8.662c-0.616-1.922-1.532-3.748-2.309-5.605
	c0.289-0.159,0.512-0.36,0.594-0.313c3.977,2.285,7.033,9.644,5.794,13.958c-0.546,1.896-1.829,3.207-3.428,4.295
	c-3.144,2.137-6.778,3.156-10.222,4.596c-7.06,2.951-11.882,7.703-12.582,15.737c-0.089,1.022-0.428,1.924-1.568,1.999
	c-1.329,0.088-1.728-0.943-1.848-2.027c-0.113-1.02-0.119-2.057-0.119-3.083c-0.003-20.606,0.119-41.212-0.073-61.816
	c-0.064-6.838,2.992-11.343,8.932-13.868c5.855-2.489,11.732-2.336,16.973,1.836c4.609,3.669,4.749,10.257,0.411,14.624
	c-5.305,5.333-12.62,6.809-19.663,3.881c-1.779-0.738-3.049-1.128-3.041,1.58c0.04,13.956,0.022,27.91,0.03,41.866
	C129.877,166.668,129.997,167.009,130.185,168.043z"/>
</svg>
