<?xml version="1.0" encoding="utf-8"?>
<!-- Generator: Adobe Illustrator 16.0.0, SVG Export Plug-In . SVG Version: 6.00 Build 0)  -->
<!DOCTYPE svg PUBLIC "-//W3C//DTD SVG 1.1//EN" "http://www.w3.org/Graphics/SVG/1.1/DTD/svg11.dtd">
<svg version="1.1" id="Layer_1" xmlns="http://www.w3.org/2000/svg" xmlns:xlink="http://www.w3.org/1999/xlink" x="0px" y="0px"
	 width="283.46px" height="283.46px" viewBox="0 0 283.46 283.46" enable-background="new 0 0 283.46 283.46" xml:space="preserve">
<path d="M159.799,129.712c-1.767,0-3.197,1.433-3.197,3.199s1.431,3.198,3.197,3.198c1.766,0,3.197-1.432,3.197-3.198
	S161.564,129.712,159.799,129.712z M124.526,153.887c1.766,0,3.198-1.433,3.198-3.197c0-1.767-1.432-3.199-3.198-3.199
	c-1.766,0-3.198,1.433-3.198,3.199C121.329,152.454,122.761,153.887,124.526,153.887z M146.268,137.014l16.729-29.01l-2.618-0.128
	l-16.638,28.854c-0.43-0.033-0.855-0.071-1.306-0.092l0.006,0.006c-7.3-0.126-12.461-2.781-13.926-7.016
	c-1.466-4.234-0.43-9.174,2.946-11.186c7.405-4.414,10.846,7.142,13.671,5.458s3.333-4.782,2.211-8.027
	c-1.336-3.863-8.658-7.329-15.014-3.541c-6.356,3.789-10.894,10.785-8.543,20.644c1.862,7.797,6.011,12.284,14.271,13.61
	l-16.729,29.01l2.618,0.127l16.639-28.854c0.43,0.035,0.855,0.072,1.305,0.092l-0.006-0.005c7.299,0.126,12.461,2.78,13.928,7.016
	c1.463,4.236,0.428,9.173-2.947,11.186c-7.405,4.412-10.847-7.142-13.673-5.456c-2.825,1.682-3.332,4.778-2.209,8.025
	c1.336,3.861,8.657,7.33,15.013,3.541c6.357-3.788,10.894-10.786,8.543-20.642C158.678,142.826,154.527,138.34,146.268,137.014z"/>
</svg>
