<?xml version="1.0" encoding="utf-8"?>
<!-- Generator: Adobe Illustrator 16.0.0, SVG Export Plug-In . SVG Version: 6.00 Build 0)  -->
<!DOCTYPE svg PUBLIC "-//W3C//DTD SVG 1.1//EN" "http://www.w3.org/Graphics/SVG/1.1/DTD/svg11.dtd">
<svg version="1.1" id="Layer_1" xmlns="http://www.w3.org/2000/svg" xmlns:xlink="http://www.w3.org/1999/xlink" x="0px" y="0px"
	 width="283.46px" height="283.46px" viewBox="0 0 283.46 283.46" enable-background="new 0 0 283.46 283.46" xml:space="preserve">
<path fill-rule="evenodd" clip-rule="evenodd" d="M134.195,88.686c1.408,2.502,2.491,5.093,3.893,7.523
	c5.912,10.251,14.277,18.039,23.797,24.852c4.326,3.096,8.787,6.231,11.618,10.967c2.487,4.167,0.893,9.282-3.789,11.738
	c0.912-1.798,1.703-3.419,2.246-5.152c0.702-2.236,0.092-4.015-1.46-5.663c-3.154-3.343-6.858-5.911-11.059-7.691
	c-7.771-3.293-15.044-7.257-20.472-14.153c-0.026,3.437-0.925,6.683,1.017,10.078c4.26,7.454,10.686,12.731,16.98,18.212
	c2.652,2.308,5.403,4.563,7.026,7.801c1.685,3.361,0.432,6.805-2.957,8.244c2.168-5.619,2.145-5.596-2.543-9.982
	c-2.387-2.236-5.275-3.68-8.073-5.241c-3.802-2.118-7.104-4.783-9.953-8.049c-0.37-0.422-0.667-1.207-1.42-0.852
	c-0.567,0.27-0.38,0.964-0.373,1.471c0.142,13.641-0.263,27.281,0.224,40.926c0.262,7.367-3.383,13.055-8.984,17.517
	c-3.039,2.423-6.466,4.042-10.511,4.066c-7.113,0.041-11.731-5.192-10.745-12.278c1.269-9.1,8.737-17.16,17.677-19.046
	c1.741-0.367,3.551-0.507,5.223,0.144c1.875,0.733,2.24,0.063,2.234-1.69c-0.048-11.116-0.022-22.234-0.022-33.351
	c0-9.199,0.034-18.401-0.02-27.602c-0.019-3.291-0.277-6.581-0.359-9.872C133.372,90.647,133.172,89.59,134.195,88.686z"/>
</svg>
