<?xml version="1.0" encoding="utf-8"?>
<!-- Generator: Adobe Illustrator 16.0.0, SVG Export Plug-In . SVG Version: 6.00 Build 0)  -->
<!DOCTYPE svg PUBLIC "-//W3C//DTD SVG 1.1//EN" "http://www.w3.org/Graphics/SVG/1.1/DTD/svg11.dtd">
<svg version="1.1" id="Layer_1" xmlns="http://www.w3.org/2000/svg" xmlns:xlink="http://www.w3.org/1999/xlink" x="0px" y="0px"
	 width="283.46px" height="283.46px" viewBox="0 0 283.46 283.46" enable-background="new 0 0 283.46 283.46" xml:space="preserve">
<path d="M169.373,111.516c-5.365-0.025-12.174,3.458-16.828,18.168h-15.531c2.792-9.078,5.737-15.406,8.708-15.406
	c1.638,0,3.503,2.35,2.028,3.504c-3.523-0.021-5.883,6.908-1.291,7.563c3.873,0.553,5.902-4.24,5.902-7.563
	c0-3.32-2.013-6.244-6.271-6.266c-5.364-0.025-12.174,3.458-16.828,18.168H122.8v2.898h5.596
	c-3.852,13.904-7.048,35.588-12.371,36.662c-3.938,0.795-2.951-2.213-2.951-2.213c3.121,0,4.834-6.232,1.291-7.564
	c-2.624-0.985-5.717,1.624-5.717,5.166c0,3.69,1.715,7.449,6.495,7.449c5.903,0,13.279-7.79,17.338-25.157
	c1.181-5.052,2.409-9.944,3.671-14.343h15.526c-3.852,13.904-7.047,35.588-12.37,36.662c-3.938,0.795-2.952-2.213-2.952-2.213
	c3.121,0,4.835-6.232,1.292-7.564c-2.624-0.985-5.718,1.624-5.718,5.166c0,3.69,1.715,7.449,6.495,7.449
	c5.902,0,13.279-7.79,17.337-25.157c1.182-5.052,2.41-9.944,3.672-14.343h8.961v-2.898h-8.099
	c2.792-9.078,5.737-15.406,8.708-15.406c1.638,0,3.504,2.35,2.029,3.504c-3.524-0.021-5.884,6.908-1.292,7.563
	c3.874,0.553,5.903-4.24,5.903-7.563C175.645,114.461,173.631,111.537,169.373,111.516z"/>
</svg>
