<?xml version="1.0" encoding="utf-8"?>
<!-- Generator: Adobe Illustrator 16.0.0, SVG Export Plug-In . SVG Version: 6.00 Build 0)  -->
<!DOCTYPE svg PUBLIC "-//W3C//DTD SVG 1.1//EN" "http://www.w3.org/Graphics/SVG/1.1/DTD/svg11.dtd">
<svg version="1.1" id="Layer_1" xmlns="http://www.w3.org/2000/svg" xmlns:xlink="http://www.w3.org/1999/xlink" x="0px" y="0px"
	 width="283.46px" height="283.46px" viewBox="0 0 283.46 283.46" enable-background="new 0 0 283.46 283.46" xml:space="preserve">
<path d="M123.909,105.943v14.925l0.031-0.008v49.038c-3.079-1.31-7.186-1.255-11.105,0.479c-6.374,2.832-9.827,9.001-7.708,13.786
	c2.123,4.794,9.008,6.359,15.399,3.544c4.543-2.021,7.552-5.732,8.166-9.432h0.046v-0.221c0.111-0.803,0.131-1.59,0-2.369v-55.972
	l47.641-11.381v10.409l-18.2,5.447v7.521l18.2-5.45v31.51c-3.086-1.344-7.229-1.299-11.175,0.454
	c-6.382,2.833-9.827,9.002-7.722,13.784c2.129,4.793,9.02,6.367,15.401,3.547c5.313-2.359,8.543-7.031,8.257-11.287h0.038v-57.08
	l0.039-0.008V92.842L123.909,105.943z"/>
</svg>
