<?xml version="1.0" encoding="utf-8"?>
<!-- Generator: Adobe Illustrator 16.0.0, SVG Export Plug-In . SVG Version: 6.00 Build 0)  -->
<!DOCTYPE svg PUBLIC "-//W3C//DTD SVG 1.1//EN" "http://www.w3.org/Graphics/SVG/1.1/DTD/svg11.dtd">
<svg version="1.1" id="Layer_1" xmlns="http://www.w3.org/2000/svg" xmlns:xlink="http://www.w3.org/1999/xlink" x="0px" y="0px"
	 width="283.46px" height="283.46px" viewBox="0 0 283.46 283.46" enable-background="new 0 0 283.46 283.46" xml:space="preserve">
<path d="M178.169,96.089l-53.24,12.167v13.868l0.033-0.007v45.561c-2.863-1.223-6.675-1.166-10.315,0.443
	c-5.923,2.63-9.129,8.363-7.166,12.806c1.973,4.448,8.371,5.903,14.304,3.292c4.225-1.877,7.024-5.331,7.593-8.765h0.042v-0.206
	c0.104-0.738,0.122-1.477,0-2.199v-51.996l44.26-10.572v45.926c-2.867-1.251-6.715-1.204-10.386,0.423
	c-5.926,2.631-9.13,8.361-7.169,12.806c1.975,4.452,8.373,5.916,14.303,3.294c4.937-2.193,7.938-6.533,7.671-10.488h0.038v-53.026
	l0.033-0.009V96.089z"/>
</svg>
