<?xml version="1.0" encoding="utf-8"?>
<!-- Generator: Adobe Illustrator 16.0.0, SVG Export Plug-In . SVG Version: 6.00 Build 0)  -->
<!DOCTYPE svg PUBLIC "-//W3C//DTD SVG 1.1//EN" "http://www.w3.org/Graphics/SVG/1.1/DTD/svg11.dtd">
<svg version="1.1" id="Layer_1" xmlns="http://www.w3.org/2000/svg" xmlns:xlink="http://www.w3.org/1999/xlink" x="0px" y="0px"
	 width="283.46px" height="283.46px" viewBox="0 0 283.46 283.46" enable-background="new 0 0 283.46 283.46" xml:space="preserve">
<path d="M153.477,171.289c-2.788-4.691-10.38-5.326-16.958-1.419c-2.389,1.421-4.309,3.247-5.66,5.218v-53.559
	c0,0,6.859-2.569,12.401,6.053c8.984,13.973,7.511,20.455,5.653,35.416c6.381-16.662,3.738-27.103-1.343-36.648
	c-5.081-9.546-16.711-18.062-16.711-32.996h-2.231v88.271h0.002c0.008,1.357,0.336,2.656,1.024,3.816
	c2.787,4.692,10.378,5.326,16.957,1.418C153.19,182.951,156.263,175.98,153.477,171.289z"/>
</svg>
