<?xml version="1.0" encoding="utf-8"?>
<!-- Generator: Adobe Illustrator 16.0.0, SVG Export Plug-In . SVG Version: 6.00 Build 0)  -->
<!DOCTYPE svg PUBLIC "-//W3C//DTD SVG 1.1//EN" "http://www.w3.org/Graphics/SVG/1.1/DTD/svg11.dtd">
<svg version="1.1" id="Layer_1" xmlns="http://www.w3.org/2000/svg" xmlns:xlink="http://www.w3.org/1999/xlink" x="0px" y="0px"
	 width="283.46px" height="283.46px" viewBox="0 0 283.46 283.46" enable-background="new 0 0 283.46 283.46" xml:space="preserve">
<path d="M162.92,142.689c4.801-9.793,1.039-19.12-2.864-24.9c-8.044-11.908-16.712-12.923-16.712-27.856h-2.232v82.847
	c-3.395-3.266-9.965-3.348-15.753,0.091c-6.578,3.909-9.652,10.88-6.864,15.571c2.787,4.692,10.379,5.326,16.957,1.418
	c4.914-2.918,7.869-7.547,7.891-11.656h0.002v-44.682c0,0,5.429,0.209,12.402,7.722c9.513,10.25,10.801,20.423,4.997,33.368
	C168.936,163.166,167.576,151.236,162.92,142.689z M160.056,138.341c-6.682-8.469-14.897-16.386-16.436-28.83
	c1.181,0.611,6.068,3.368,12.126,9.893c6.113,6.586,8.807,13.872,6.623,22.315C161.656,140.516,160.879,139.385,160.056,138.341z"/>
</svg>
