<?xml version="1.0" encoding="utf-8"?>
<!-- Generator: Adobe Illustrator 16.0.0, SVG Export Plug-In . SVG Version: 6.00 Build 0)  -->
<!DOCTYPE svg PUBLIC "-//W3C//DTD SVG 1.1//EN" "http://www.w3.org/Graphics/SVG/1.1/DTD/svg11.dtd">
<svg version="1.1" id="Layer_1" xmlns="http://www.w3.org/2000/svg" xmlns:xlink="http://www.w3.org/1999/xlink" x="0px" y="0px"
	 width="283.46px" height="283.46px" viewBox="0 0 283.46 283.46" enable-background="new 0 0 283.46 283.46" xml:space="preserve">
<path d="M155.374,135.729c2.94,0,5.325-2.861,5.325-6.391c0-3.53-2.385-6.391-5.325-6.391s-5.325,2.86-5.325,6.391
	C150.049,132.867,152.434,135.729,155.374,135.729z M122.799,193.792h11.675V89.694h-11.675V193.792z M141.46,193.792h2.233V89.694
	h-2.233V193.792z M155.374,149.656c-2.94,0-5.325,2.861-5.325,6.39c0,3.53,2.385,6.391,5.325,6.391s5.325-2.86,5.325-6.391
	C160.699,152.518,158.314,149.656,155.374,149.656z"/>
</svg>
