<?xml version="1.0" encoding="utf-8"?>
<!-- Generator: Adobe Illustrator 16.0.0, SVG Export Plug-In . SVG Version: 6.00 Build 0)  -->
<!DOCTYPE svg PUBLIC "-//W3C//DTD SVG 1.1//EN" "http://www.w3.org/Graphics/SVG/1.1/DTD/svg11.dtd">
<svg version="1.1" id="Layer_1" xmlns="http://www.w3.org/2000/svg" xmlns:xlink="http://www.w3.org/1999/xlink" x="0px" y="0px"
	 width="283.46px" height="283.46px" viewBox="0 0 283.46 283.46" enable-background="new 0 0 283.46 283.46" xml:space="preserve">
<path d="M157.703,111.516c-5.364-0.025-12.174,3.458-16.827,18.168h-6.463v2.898h5.596c-3.852,13.904-7.048,35.588-12.371,36.662
	c-3.938,0.795-2.952-2.213-2.952-2.213c3.12,0,4.835-6.232,1.292-7.564c-2.625-0.985-5.718,1.624-5.718,5.166
	c0,3.69,1.715,7.449,6.495,7.449c5.902,0,13.28-7.79,17.338-25.157c1.181-5.052,2.408-9.944,3.672-14.343h8.961v-2.898h-8.1
	c2.793-9.078,5.738-15.406,8.708-15.406c1.638,0,3.503,2.35,2.028,3.504c-3.523-0.021-5.883,6.908-1.291,7.563
	c3.875,0.553,5.902-4.24,5.902-7.563C163.975,114.461,161.962,111.537,157.703,111.516z"/>
</svg>
